<svg xmlns="http://www.w3.org/2000/svg" xmlns:xlink="http://www.w3.org/1999/xlink" width="110" zoomAndPan="magnify" viewBox="0 0 82.5 44.999999" height="60" preserveAspectRatio="xMidYMid meet" version="1.0"><defs><clipPath id="ab46dd33c1"><path d="M 0 0.136719 L 82.003906 0.136719 L 82.003906 44.863281 L 0 44.863281 Z M 0 0.136719 " clip-rule="nonzero"/></clipPath><clipPath id="c0a38260c8"><path d="M 25 12.699219 L 82.003906 12.699219 L 82.003906 27 L 25 27 Z M 25 12.699219 " clip-rule="nonzero"/></clipPath><clipPath id="2608708bc1"><path d="M 0.445312 14 L 75 14 L 75 32.199219 L 0.445312 32.199219 Z M 0.445312 14 " clip-rule="nonzero"/></clipPath></defs><g clip-path="url(#ab46dd33c1)"><path fill="#ffffff" d="M 0 0.136719 L 82.5 0.136719 L 82.5 52.636719 L 0 52.636719 Z M 0 0.136719 " fill-opacity="1" fill-rule="nonzero"/><path fill="#ffffff" d="M 0 0.136719 L 82.5 0.136719 L 82.5 45.136719 L 0 45.136719 Z M 0 0.136719 " fill-opacity="1" fill-rule="nonzero"/><path fill="#ffffff" d="M 0 0.136719 L 82.5 0.136719 L 82.5 45.136719 L 0 45.136719 Z M 0 0.136719 " fill-opacity="1" fill-rule="nonzero"/></g><path fill="#131b28" d="M 35.609375 19.722656 L 35.609375 19.71875 L 35.085938 21.527344 Z M 38.285156 23.644531 L 37.710938 23.640625 Z M 38.136719 26.34375 L 34.703125 26.355469 Z M 38.855469 23.648438 L 38.28125 23.644531 Z M 38.4375 26.113281 L 39.035156 23.875 Z M 51.082031 15.816406 L 49.96875 20.953125 Z M 48.21875 15.816406 L 47.371094 19.652344 Z M 48.21875 15.816406 " fill-opacity="1" fill-rule="nonzero"/><path fill="#131b28" d="M 50.894531 15.582031 L 48.507812 15.582031 C 48.378906 15.582031 48.246094 15.6875 48.21875 15.8125 L 46.527344 23.488281 C 46.496094 23.613281 46.367188 23.71875 46.234375 23.71875 L 44.546875 23.71875 C 42.878906 23.71875 43.074219 22.585938 43.414062 21.035156 L 43.421875 20.988281 L 43.625 19.933594 L 43.714844 19.5 L 44.484375 15.816406 C 44.507812 15.6875 44.421875 15.582031 44.289062 15.582031 L 41.84375 15.582031 C 41.710938 15.582031 41.582031 15.6875 41.554688 15.816406 L 40.5 20.707031 C 40.5 20.707031 40.5 20.707031 40.5 20.710938 L 40.453125 20.9375 C 39.847656 23.648438 40.007812 26.234375 43.300781 26.3125 L 43.394531 26.316406 L 48.5625 26.316406 C 48.695312 26.316406 48.828125 26.210938 48.855469 26.085938 L 51.085938 15.816406 C 51.113281 15.691406 51.027344 15.585938 50.894531 15.585938 Z M 60.402344 23.742188 C 60.535156 23.742188 60.617188 23.847656 60.59375 23.976562 L 60.363281 25.082031 M 60.128906 26.191406 L 60.363281 25.082031 L 60.132812 26.195312 Z M 59.839844 26.425781 L 55.449219 26.445312 Z M 59.839844 26.425781 " fill-opacity="1" fill-rule="nonzero"/><path fill="#131b28" d="M 54.027344 22.316406 C 54.023438 22.195312 54.164062 21.984375 54.296875 21.984375 L 54 21.980469 C 53.867188 23.304688 54.027344 22.316406 54.027344 22.316406 Z M 55.664062 26.445312 L 55.621094 26.445312 Z M 60.398438 23.742188 C 60.53125 23.742188 60.617188 23.847656 60.589844 23.976562 L 60.324219 25.265625 M 56.792969 26.445312 L 56.785156 26.445312 Z M 56.207031 26.445312 L 56.171875 26.445312 Z M 56.03125 26.445312 L 55.972656 26.445312 Z M 55.847656 26.445312 L 55.796875 26.445312 Z M 56.171875 26.445312 L 56.027344 26.445312 Z M 56.785156 26.445312 L 56.207031 26.445312 Z M 59.839844 26.425781 L 56.792969 26.445312 Z M 60.128906 26.191406 L 60.324219 25.265625 Z M 55.972656 26.445312 L 55.847656 26.445312 Z M 55.617188 26.449219 L 55.445312 26.449219 Z M 55.796875 26.449219 L 55.664062 26.449219 Z M 20.933594 22.34375 L 21.300781 20.734375 L 20.878906 22.574219 L 20.828125 22.804688 Z M 25.363281 15.558594 L 22.746094 15.558594 C 22.613281 15.558594 22.480469 15.660156 22.449219 15.785156 L 21.953125 17.933594 C 21.925781 18.058594 22.007812 18.160156 22.140625 18.160156 L 24.78125 18.160156 C 24.910156 18.160156 25.042969 18.058594 25.070312 17.929688 L 25.554688 15.785156 C 25.582031 15.65625 25.496094 15.554688 25.363281 15.554688 Z M 24.796875 19.128906 L 24.027344 22.609375 Z M 17.191406 30.660156 L 19.347656 30.675781 C 18.710938 30.675781 17.660156 30.664062 17.1875 30.660156 Z M 21.675781 19.128906 L 21.304688 20.734375 Z M 21.675781 19.128906 " fill-opacity="1" fill-rule="nonzero"/><path fill="#131b28" d="M 24.605469 18.898438 L 21.96875 18.898438 C 21.8125 18.902344 21.714844 18.980469 21.675781 19.128906 L 20.933594 22.34375 L 20.832031 22.804688 L 20.121094 26.089844 C 20.085938 26.242188 20.042969 26.394531 19.992188 26.542969 C 19.992188 26.542969 19.5 27.980469 18.671875 27.964844 L 17.847656 27.949219 C 17.714844 27.945312 17.582031 28.046875 17.554688 28.175781 L 17.007812 30.429688 C 16.976562 30.554688 17.058594 30.65625 17.191406 30.660156 L 19.347656 30.675781 C 21.417969 30.675781 22.507812 29.554688 23.210938 26.320312 L 24.796875 19.128906 C 24.824219 19 24.738281 18.898438 24.605469 18.898438 Z M 62.082031 26.316406 C 61.949219 26.316406 61.863281 26.210938 61.890625 26.085938 L 63.875 16.972656 " fill-opacity="1" fill-rule="nonzero"/><path fill="#131b28" d="M 64.839844 26.085938 L 65.640625 22.195312 Z M 61.921875 26.199219 C 61.90625 26.136719 61.914062 25.980469 61.941406 25.855469 L 62.886719 21.53125 L 61.894531 26.085938 C 61.863281 26.210938 61.949219 26.316406 62.082031 26.316406 L 62.324219 26.316406 C 62.191406 26.316406 61.9375 26.265625 61.921875 26.199219 Z M 61.921875 26.199219 " fill-opacity="1" fill-rule="nonzero"/><path fill="#131b28" d="M 64.683594 26.261719 C 64.609375 26.292969 64.445312 26.316406 64.3125 26.316406 L 64.550781 26.316406 C 64.683594 26.316406 64.816406 26.210938 64.839844 26.085938 L 64.886719 25.851562 C 64.863281 25.980469 64.753906 26.234375 64.683594 26.261719 Z M 65.242188 24.140625 L 65.597656 22.425781 C 65.597656 22.425781 65.597656 22.425781 65.59375 22.425781 Z M 65.242188 24.140625 " fill-opacity="1" fill-rule="nonzero"/><path fill="#131b28" d="M 73.070312 17.585938 L 73.179688 18.027344 C 73.210938 18.152344 73.128906 18.253906 72.996094 18.253906 M 64.886719 25.851562 L 65.242188 24.140625 Z M 72.964844 17.132812 L 73.070312 17.585938 Z M 65.59375 22.425781 L 65.691406 21.964844 L 66.070312 20.226562 L 65.644531 22.195312 Z M 63.910156 16.824219 L 63.828125 17.207031 L 62.886719 21.53125 L 63.878906 16.976562 Z M 63.910156 16.824219 " fill-opacity="1" fill-rule="nonzero"/><g clip-path="url(#c0a38260c8)"><path fill="#131b28" d="M 73.179688 18.027344 L 73.070312 17.585938 L 72.910156 16.902344 C 72.695312 16.085938 72.066406 15.617188 70.699219 15.617188 L 66.613281 15.609375 L 64.410156 15.609375 C 64.253906 15.617188 64.15625 15.691406 64.121094 15.839844 L 63.875 16.972656 L 61.941406 25.855469 C 61.914062 25.980469 61.90625 26.136719 61.921875 26.199219 C 61.9375 26.261719 62.191406 26.316406 62.324219 26.316406 L 64.3125 26.316406 C 64.445312 26.316406 64.613281 26.292969 64.683594 26.261719 C 64.757812 26.234375 64.863281 25.980469 64.890625 25.851562 L 65.597656 22.425781 C 65.597656 22.425781 65.597656 22.425781 65.597656 22.421875 L 65.644531 22.195312 L 66.449219 18.488281 C 66.488281 18.34375 66.585938 18.265625 66.742188 18.261719 L 72.996094 18.257812 C 73.128906 18.257812 73.214844 18.152344 73.179688 18.027344 Z M 81.234375 14.023438 L 80.75 14.027344 L 78.75 14.027344 C 78.617188 14.027344 78.445312 14.113281 78.371094 14.222656 L 73.945312 20.578125 C 73.871094 20.6875 73.785156 20.671875 73.757812 20.542969 L 73.429688 19.144531 C 73.398438 19.015625 73.269531 18.914062 73.136719 18.914062 L 70.292969 18.914062 C 70.160156 18.914062 70.082031 19.019531 70.117188 19.144531 L 71.390625 23.523438 C 71.429688 23.648438 71.429688 23.851562 71.398438 23.976562 L 70.84375 26.097656 C 70.808594 26.222656 70.890625 26.324219 71.023438 26.324219 L 73.835938 26.324219 C 73.964844 26.324219 74.101562 26.222656 74.132812 26.097656 L 74.691406 23.976562 C 74.734375 23.828125 74.804688 23.6875 74.894531 23.558594 L 82.082031 14.210938 C 82.164062 14.109375 82.117188 14.023438 81.988281 14.023438 L 81.234375 14.03125 Z M 58.621094 19.507812 C 58.605469 19.648438 58.472656 19.75 58.339844 19.75 L 54.730469 19.75 C 54.609375 19.75 54.542969 19.667969 54.5625 19.5625 C 54.5625 19.5625 54.5625 19.558594 54.566406 19.554688 C 54.5625 19.554688 54.5625 19.550781 54.566406 19.546875 L 54.582031 19.484375 C 54.925781 18.585938 55.628906 17.996094 56.949219 17.996094 C 58.433594 17.996094 58.722656 18.710938 58.621094 19.507812 Z M 57.5625 15.425781 C 52.933594 15.425781 51.835938 18.183594 51.21875 20.960938 C 50.601562 23.796875 50.65625 26.445312 55.449219 26.445312 L 56.792969 26.445312 L 59.84375 26.425781 C 59.972656 26.425781 60.101562 26.320312 60.128906 26.195312 L 60.59375 23.976562 C 60.617188 23.847656 60.53125 23.746094 60.398438 23.746094 L 56.089844 23.746094 C 54.378906 23.746094 53.867188 23.296875 54.054688 21.984375 L 60.945312 21.984375 C 60.945312 21.988281 60.945312 21.984375 60.949219 21.984375 C 61.058594 21.984375 61.160156 21.910156 61.199219 21.8125 C 61.207031 21.792969 61.214844 21.773438 61.214844 21.753906 C 62.238281 17.972656 61.945312 15.425781 57.5625 15.425781 Z M 35.671875 19.496094 L 35.609375 19.71875 C 35.609375 19.722656 35.085938 21.527344 35.085938 21.527344 L 34.566406 23.332031 C 34.53125 23.457031 34.394531 23.558594 34.261719 23.558594 L 31.511719 23.558594 C 29.421875 23.558594 28.914062 21.960938 29.421875 19.597656 C 29.929688 17.183594 30.925781 15.683594 32.980469 15.53125 C 35.789062 15.324219 36.351562 17.261719 35.671875 19.496094 Z M 37.5625 23.421875 C 37.5625 23.421875 38.859375 20.332031 39.152344 18.550781 C 39.558594 16.160156 38.335938 12.699219 33.625 12.699219 C 28.9375 12.699219 26.902344 16.003906 26.128906 19.597656 C 25.351562 23.21875 26.367188 26.394531 31.027344 26.367188 L 38.136719 26.34375 C 38.265625 26.339844 38.402344 26.238281 38.4375 26.113281 L 39.039062 23.878906 C 39.070312 23.753906 38.992188 23.648438 38.859375 23.648438 L 37.710938 23.644531 C 37.597656 23.640625 37.535156 23.570312 37.546875 23.476562 C 37.550781 23.460938 37.554688 23.441406 37.5625 23.421875 Z M 37.5625 23.421875 " fill-opacity="1" fill-rule="nonzero"/></g><path fill="#131b28" d="M 60.753906 21.355469 C 60.753906 21.457031 60.703125 21.507812 60.597656 21.507812 C 60.492188 21.507812 60.4375 21.457031 60.4375 21.355469 C 60.4375 21.269531 60.507812 21.199219 60.597656 21.199219 C 60.683594 21.199219 60.753906 21.269531 60.753906 21.355469 Z M 60.753906 21.355469 " fill-opacity="1" fill-rule="nonzero"/><g clip-path="url(#2608708bc1)"><path fill="#0868ac" d="M 1.785156 17.335938 C 0.492188 19.160156 0.652344 21.53125 1.640625 23.464844 C 1.664062 23.511719 1.6875 23.558594 1.714844 23.605469 L 1.757812 23.691406 C 1.769531 23.707031 1.777344 23.726562 1.789062 23.742188 L 1.839844 23.832031 L 1.933594 23.992188 L 1.988281 24.078125 L 2.144531 24.316406 C 2.195312 24.394531 2.25 24.46875 2.304688 24.542969 C 2.304688 24.542969 2.308594 24.546875 2.308594 24.546875 C 2.316406 24.558594 2.328125 24.570312 2.335938 24.582031 C 2.382812 24.648438 2.429688 24.710938 2.480469 24.769531 L 2.535156 24.839844 L 2.667969 25 L 2.71875 25.058594 C 2.78125 25.128906 2.839844 25.199219 2.90625 25.269531 C 2.90625 25.269531 2.90625 25.269531 2.910156 25.273438 C 2.910156 25.273438 2.914062 25.277344 2.914062 25.28125 C 2.976562 25.34375 3.039062 25.410156 3.105469 25.476562 L 3.167969 25.535156 L 3.316406 25.679688 L 3.378906 25.738281 C 3.449219 25.800781 3.515625 25.863281 3.585938 25.921875 C 3.585938 25.921875 3.589844 25.921875 3.589844 25.925781 C 3.601562 25.933594 3.613281 25.945312 3.625 25.953125 L 3.8125 26.109375 L 3.890625 26.171875 L 4.046875 26.292969 L 4.128906 26.351562 L 4.304688 26.476562 L 4.386719 26.535156 C 4.441406 26.570312 4.5 26.609375 4.558594 26.644531 L 4.628906 26.691406 C 4.71875 26.746094 4.808594 26.800781 4.898438 26.851562 L 4.972656 26.894531 L 5.171875 27.003906 C 5.210938 27.023438 5.246094 27.042969 5.285156 27.0625 L 5.425781 27.132812 L 5.460938 27.148438 L 5.519531 27.175781 L 5.746094 27.28125 L 5.792969 27.300781 C 5.882812 27.339844 5.96875 27.375 6.058594 27.410156 L 6.125 27.433594 L 6.375 27.527344 L 6.40625 27.535156 C 6.496094 27.566406 6.589844 27.597656 6.683594 27.625 L 6.753906 27.644531 C 6.847656 27.675781 6.941406 27.707031 7.039062 27.726562 C 13.296875 28.84375 15.113281 24.042969 15.113281 24.042969 C 13.589844 25.988281 10.878906 26.503906 8.3125 25.933594 C 8.214844 25.910156 8.121094 25.878906 8.023438 25.851562 L 7.953125 25.832031 C 7.859375 25.804688 7.769531 25.773438 7.679688 25.742188 L 7.640625 25.730469 C 7.558594 25.703125 7.476562 25.671875 7.398438 25.640625 L 7.328125 25.617188 C 7.242188 25.582031 7.152344 25.546875 7.066406 25.507812 L 7.011719 25.484375 L 6.792969 25.386719 L 6.726562 25.355469 C 6.671875 25.328125 6.613281 25.296875 6.554688 25.269531 L 6.441406 25.210938 C 6.371094 25.175781 6.304688 25.136719 6.238281 25.097656 L 6.167969 25.058594 C 6.078125 25.007812 5.988281 24.953125 5.898438 24.898438 C 5.875 24.882812 5.851562 24.867188 5.828125 24.855469 L 5.636719 24.730469 C 5.617188 24.714844 5.597656 24.703125 5.578125 24.6875 L 5.394531 24.558594 L 5.316406 24.5 L 5.152344 24.375 L 5.082031 24.320312 L 4.878906 24.152344 C 4.871094 24.144531 4.863281 24.140625 4.859375 24.132812 C 4.785156 24.070312 4.714844 24.007812 4.644531 23.945312 L 4.585938 23.886719 L 4.433594 23.742188 L 4.371094 23.683594 C 4.308594 23.621094 4.246094 23.554688 4.183594 23.488281 C 4.183594 23.484375 4.179688 23.484375 4.175781 23.480469 C 4.109375 23.410156 4.046875 23.339844 3.984375 23.265625 L 3.9375 23.210938 L 3.75 22.980469 L 3.589844 22.773438 C 2.167969 20.871094 1.652344 18.242188 2.792969 16.082031 M 5.800781 15.804688 C 4.863281 17.121094 4.914062 18.890625 5.644531 20.285156 C 5.765625 20.519531 5.90625 20.746094 6.058594 20.960938 C 6.199219 21.160156 6.355469 21.394531 6.539062 21.550781 C 6.609375 21.625 6.679688 21.695312 6.75 21.765625 C 6.769531 21.78125 6.785156 21.800781 6.804688 21.816406 C 6.875 21.886719 6.945312 21.949219 7.019531 22.011719 C 7.023438 22.015625 7.023438 22.019531 7.027344 22.019531 C 7.109375 22.089844 7.195312 22.160156 7.28125 22.226562 L 7.335938 22.269531 C 7.421875 22.335938 7.511719 22.398438 7.597656 22.457031 L 7.605469 22.460938 C 7.648438 22.488281 7.6875 22.515625 7.726562 22.539062 C 7.746094 22.550781 7.765625 22.566406 7.785156 22.578125 C 7.847656 22.617188 7.910156 22.65625 7.976562 22.695312 C 7.988281 22.699219 7.996094 22.703125 8.003906 22.707031 L 8.175781 22.804688 C 8.195312 22.8125 8.21875 22.824219 8.238281 22.835938 L 8.359375 22.894531 C 8.363281 22.898438 8.371094 22.902344 8.375 22.902344 C 8.457031 22.941406 8.542969 22.980469 8.625 23.015625 C 8.644531 23.023438 8.664062 23.03125 8.683594 23.039062 C 8.75 23.066406 8.816406 23.09375 8.886719 23.121094 L 8.976562 23.152344 C 9.039062 23.175781 9.101562 23.195312 9.164062 23.21875 L 9.25 23.242188 C 9.339844 23.269531 9.425781 23.304688 9.523438 23.320312 C 14.351562 24.105469 15.464844 20.460938 15.464844 20.460938 C 14.460938 21.878906 12.515625 22.558594 10.4375 22.027344 C 10.34375 22.003906 10.253906 21.980469 10.164062 21.953125 C 10.136719 21.945312 10.109375 21.9375 10.082031 21.925781 C 10.015625 21.90625 9.953125 21.886719 9.890625 21.863281 L 9.804688 21.832031 C 9.734375 21.804688 9.664062 21.777344 9.597656 21.75 L 9.542969 21.726562 C 9.457031 21.691406 9.371094 21.652344 9.289062 21.613281 C 9.246094 21.589844 9.203125 21.570312 9.164062 21.550781 L 9.089844 21.511719 C 9.035156 21.484375 8.980469 21.453125 8.929688 21.425781 L 8.890625 21.402344 C 8.828125 21.363281 8.761719 21.328125 8.699219 21.285156 C 8.679688 21.273438 8.660156 21.261719 8.640625 21.25 L 8.515625 21.167969 C 8.425781 21.105469 8.339844 21.042969 8.253906 20.980469 L 8.195312 20.933594 C 7.285156 20.230469 6.566406 19.269531 6.222656 18.179688 C 5.863281 17.046875 5.941406 15.777344 6.5625 14.75 M 9.175781 14.660156 C 8.625 15.453125 8.570312 16.441406 8.953125 17.320312 C 9.355469 18.253906 10.183594 18.984375 11.148438 19.332031 C 11.1875 19.34375 11.226562 19.359375 11.269531 19.371094 L 11.320312 19.386719 C 11.378906 19.40625 11.433594 19.425781 11.492188 19.4375 C 14.164062 19.941406 14.886719 18.09375 15.078125 17.824219 C 14.445312 18.71875 13.378906 18.933594 12.074219 18.621094 C 11.964844 18.59375 11.859375 18.5625 11.757812 18.527344 C 11.628906 18.480469 11.503906 18.429688 11.382812 18.371094 C 11.148438 18.261719 10.929688 18.128906 10.722656 17.976562 C 9.554688 17.109375 8.828125 15.449219 9.589844 14.097656 M 39.21875 30.148438 L 38.449219 31.863281 L 37.601562 31.863281 L 37.671875 30.304688 L 37.046875 31.863281 L 36.222656 31.863281 L 36.203125 30.148438 L 36.292969 29.722656 L 36.875 29.722656 L 36.761719 31.417969 L 37.410156 29.722656 L 38.222656 29.722656 L 38.164062 31.441406 L 38.804688 29.722656 L 39.308594 29.722656 Z M 40.5625 30.65625 C 40.636719 30.324219 40.613281 30.257812 40.4375 30.257812 L 40.167969 30.257812 L 40 31.042969 L 39.738281 31.867188 L 39.242188 31.867188 L 39.707031 29.730469 L 40.160156 29.730469 L 40.21875 29.855469 C 40.21875 29.855469 40.480469 29.703125 40.734375 29.703125 C 41.277344 29.703125 41.238281 30.109375 41.121094 30.65625 Z M 42.171875 29.460938 C 41.953125 29.460938 41.8125 29.398438 41.867188 29.136719 C 41.925781 28.875 42.097656 28.8125 42.308594 28.8125 C 42.523438 28.8125 42.667969 28.875 42.609375 29.136719 C 42.554688 29.394531 42.386719 29.460938 42.171875 29.460938 Z M 41.9375 31.867188 L 41.445312 31.867188 L 41.539062 31.03125 L 41.710938 30.253906 L 41.367188 30.179688 L 41.464844 29.722656 L 42.398438 29.722656 L 41.933594 31.863281 Z M 44.066406 30.179688 L 43.453125 30.253906 L 43.277344 31.070312 C 43.230469 31.296875 43.230469 31.359375 43.429688 31.359375 L 43.84375 31.359375 L 43.757812 31.785156 C 43.757812 31.785156 43.382812 31.898438 43.222656 31.898438 C 42.59375 31.898438 42.597656 31.554688 42.710938 31.046875 L 42.882812 30.25 L 42.539062 30.175781 L 42.640625 29.71875 L 43 29.71875 L 43.203125 29.179688 L 43.6875 29.179688 L 43.570312 29.71875 L 44.167969 29.71875 Z M 45.339844 30.207031 C 45.050781 30.207031 44.902344 30.351562 44.84375 30.613281 L 45.664062 30.546875 C 45.703125 30.367188 45.664062 30.207031 45.339844 30.207031 Z M 44.761719 31 C 44.726562 31.261719 44.824219 31.351562 45.167969 31.351562 L 46.027344 31.351562 L 45.941406 31.75 C 45.941406 31.75 45.425781 31.890625 45.039062 31.890625 C 44.085938 31.890625 44.074219 31.363281 44.195312 30.796875 C 44.320312 30.242188 44.539062 29.695312 45.460938 29.695312 C 46.351562 29.695312 46.394531 30.222656 46.175781 31 Z M 48.136719 31.863281 L 47.644531 31.863281 L 47.742188 31.027344 L 48.089844 29.4375 L 47.746094 29.359375 L 47.847656 28.902344 L 48.785156 28.902344 Z M 49.910156 30.207031 C 49.621094 30.207031 49.472656 30.351562 49.414062 30.613281 L 50.238281 30.546875 C 50.273438 30.367188 50.238281 30.207031 49.910156 30.207031 Z M 49.335938 31 C 49.296875 31.261719 49.398438 31.351562 49.738281 31.351562 L 50.597656 31.351562 L 50.515625 31.75 C 50.515625 31.75 49.996094 31.890625 49.613281 31.890625 C 48.65625 31.890625 48.644531 31.363281 48.769531 30.796875 C 48.890625 30.242188 49.109375 29.691406 50.035156 29.691406 C 50.925781 29.691406 50.96875 30.222656 50.746094 31 L 49.332031 31 Z M 53 30.234375 L 52.207031 30.238281 C 51.84375 30.238281 51.804688 30.347656 51.777344 30.460938 L 51.757812 30.566406 L 52.910156 30.652344 C 52.910156 30.652344 52.914062 31.011719 52.867188 31.214844 C 52.796875 31.554688 52.441406 31.902344 51.792969 31.902344 C 51.472656 31.902344 50.957031 31.78125 50.957031 31.78125 L 51.046875 31.367188 L 51.84375 31.367188 C 52.195312 31.367188 52.242188 31.273438 52.265625 31.179688 L 52.289062 31.042969 L 51.160156 30.957031 C 51.160156 30.957031 51.117188 30.679688 51.175781 30.402344 C 51.261719 30.027344 51.613281 29.703125 52.257812 29.703125 C 52.578125 29.703125 53.097656 29.820312 53.097656 29.820312 L 53 30.230469 Z M 55.148438 30.234375 L 54.351562 30.238281 C 53.988281 30.238281 53.953125 30.347656 53.925781 30.460938 L 53.902344 30.566406 L 55.058594 30.652344 C 55.058594 30.652344 55.0625 31.011719 55.015625 31.214844 C 54.945312 31.554688 54.585938 31.902344 53.941406 31.902344 C 53.621094 31.902344 53.101562 31.78125 53.101562 31.78125 L 53.195312 31.367188 L 53.988281 31.367188 C 54.339844 31.367188 54.390625 31.273438 54.410156 31.179688 L 54.4375 31.042969 L 53.304688 30.957031 C 53.304688 30.957031 53.261719 30.679688 53.320312 30.402344 C 53.40625 30.027344 53.757812 29.703125 54.40625 29.703125 C 54.726562 29.703125 55.242188 29.820312 55.242188 29.820312 L 55.148438 30.230469 Z M 55.820312 32.207031 L 55.394531 32.207031 L 55.410156 31.890625 C 55.253906 31.882812 55.175781 31.769531 55.210938 31.589844 C 55.269531 31.328125 55.4375 31.265625 55.65625 31.265625 C 55.867188 31.265625 56.011719 31.328125 55.953125 31.589844 Z M 58.675781 30.253906 C 58.355469 30.253906 58.242188 30.441406 58.167969 30.789062 C 58.09375 31.132812 58.113281 31.335938 58.433594 31.335938 L 58.878906 31.335938 L 59.125 30.253906 Z M 59.40625 31.589844 L 59.347656 31.867188 L 58.898438 31.859375 L 58.835938 31.722656 C 58.835938 31.722656 58.441406 31.890625 58.175781 31.890625 C 57.492188 31.890625 57.460938 31.34375 57.582031 30.789062 C 57.707031 30.222656 57.96875 29.6875 58.648438 29.6875 C 58.894531 29.6875 59.226562 29.8125 59.226562 29.8125 L 59.496094 28.90625 L 59.988281 28.90625 Z M 61.175781 30.234375 C 60.757812 30.234375 60.625 30.460938 60.550781 30.800781 C 60.480469 31.140625 60.511719 31.371094 60.921875 31.371094 C 61.351562 31.371094 61.480469 31.144531 61.554688 30.800781 C 61.628906 30.476562 61.605469 30.234375 61.175781 30.234375 Z M 60.8125 31.898438 C 59.929688 31.898438 59.859375 31.359375 59.976562 30.800781 C 60.101562 30.238281 60.410156 29.707031 61.292969 29.707031 C 62.167969 29.707031 62.246094 30.238281 62.125 30.800781 C 62 31.371094 61.691406 31.898438 60.8125 31.898438 Z M 65.8125 31.863281 L 65.90625 31.035156 L 65.953125 30.800781 C 66.023438 30.488281 66.066406 30.257812 65.730469 30.257812 L 65.46875 30.257812 C 65.480469 30.417969 65.445312 30.601562 65.40625 30.796875 L 65.171875 31.863281 L 64.675781 31.863281 L 64.769531 31.035156 L 64.816406 30.800781 C 64.886719 30.488281 64.929688 30.257812 64.59375 30.257812 L 64.378906 30.257812 L 64.027344 31.863281 L 63.457031 31.863281 L 63.921875 29.722656 L 64.371094 29.722656 L 64.441406 29.855469 C 64.441406 29.855469 64.746094 29.695312 64.992188 29.695312 C 65.175781 29.695312 65.316406 29.78125 65.363281 29.886719 C 65.46875 29.828125 65.773438 29.695312 65.996094 29.695312 C 66.675781 29.695312 66.65625 30.242188 66.53125 30.796875 L 66.304688 31.863281 L 65.808594 31.863281 Z M 68.078125 30.234375 C 67.660156 30.234375 67.527344 30.460938 67.453125 30.796875 C 67.382812 31.136719 67.414062 31.367188 67.824219 31.367188 C 68.253906 31.367188 68.382812 31.144531 68.457031 30.796875 C 68.53125 30.472656 68.507812 30.234375 68.078125 30.234375 Z M 67.714844 31.894531 C 66.832031 31.894531 66.761719 31.359375 66.878906 30.796875 C 67.003906 30.238281 67.3125 29.703125 68.195312 29.703125 C 69.070312 29.703125 69.148438 30.238281 69.027344 30.796875 C 68.902344 31.367188 68.59375 31.898438 67.714844 31.898438 Z M 70.511719 30.65625 C 70.589844 30.320312 70.566406 30.257812 70.390625 30.257812 L 70.121094 30.257812 L 69.953125 31.042969 L 69.691406 31.863281 L 69.195312 31.863281 L 69.65625 29.730469 L 70.113281 29.730469 L 70.171875 29.855469 C 70.171875 29.855469 70.433594 29.703125 70.6875 29.703125 C 71.234375 29.703125 71.191406 30.105469 71.074219 30.65625 Z M 72.421875 30.207031 C 72.132812 30.207031 71.984375 30.351562 71.925781 30.613281 L 72.746094 30.546875 C 72.785156 30.367188 72.746094 30.207031 72.421875 30.207031 Z M 71.847656 31 C 71.808594 31.261719 71.910156 31.351562 72.25 31.351562 L 73.109375 31.351562 L 73.027344 31.75 C 73.027344 31.75 72.507812 31.890625 72.125 31.890625 C 71.167969 31.890625 71.15625 31.363281 71.28125 30.796875 C 71.402344 30.242188 71.621094 29.691406 72.546875 29.691406 C 73.4375 29.691406 73.480469 30.222656 73.257812 31 L 71.84375 31 Z M 73.742188 31.898438 C 73.515625 31.898438 73.378906 31.832031 73.4375 31.578125 C 73.492188 31.316406 73.65625 31.253906 73.878906 31.253906 C 74.089844 31.253906 74.234375 31.3125 74.179688 31.578125 C 74.121094 31.828125 73.949219 31.898438 73.742188 31.898438 Z M 73.742188 31.898438 " fill-opacity="1" fill-rule="nonzero"/></g></svg>