<svg xmlns="http://www.w3.org/2000/svg" xmlns:xlink="http://www.w3.org/1999/xlink" width="110" zoomAndPan="magnify" viewBox="0 0 82.5 44.999999" height="60" preserveAspectRatio="xMidYMid meet" version="1.0"><defs><clipPath id="04662fdf14"><path d="M 0 0.136719 L 82.003906 0.136719 L 82.003906 44.863281 L 0 44.863281 Z M 0 0.136719 " clip-rule="nonzero"/></clipPath><clipPath id="4c1377c297"><path d="M 0 8.234375 L 33 8.234375 L 33 36.734375 L 0 36.734375 Z M 0 8.234375 " clip-rule="nonzero"/></clipPath><clipPath id="9c3eeca244"><path d="M 37 17 L 82.003906 17 L 82.003906 30 L 37 30 Z M 37 17 " clip-rule="nonzero"/></clipPath></defs><g clip-path="url(#04662fdf14)"><path fill="#ffffff" d="M 0 0.136719 L 82.5 0.136719 L 82.5 52.636719 L 0 52.636719 Z M 0 0.136719 " fill-opacity="1" fill-rule="nonzero"/><path fill="#ffffff" d="M 0 0.136719 L 82.5 0.136719 L 82.5 45.136719 L 0 45.136719 Z M 0 0.136719 " fill-opacity="1" fill-rule="nonzero"/><path fill="#ffffff" d="M 0 0.136719 L 82.5 0.136719 L 82.5 45.136719 L 0 45.136719 Z M 0 0.136719 " fill-opacity="1" fill-rule="nonzero"/></g><path fill="#00d8ff" d="M 18.632812 22.460938 C 18.632812 22.824219 18.5625 23.171875 18.421875 23.507812 C 18.285156 23.84375 18.082031 24.136719 17.824219 24.394531 C 17.566406 24.652344 17.265625 24.847656 16.925781 24.988281 C 16.589844 25.128906 16.234375 25.195312 15.871094 25.195312 C 15.503906 25.195312 15.148438 25.128906 14.8125 24.988281 C 14.472656 24.847656 14.175781 24.652344 13.914062 24.394531 C 13.65625 24.136719 13.457031 23.84375 13.316406 23.507812 C 13.175781 23.171875 13.105469 22.824219 13.105469 22.460938 C 13.105469 22.097656 13.175781 21.75 13.316406 21.414062 C 13.457031 21.078125 13.65625 20.78125 13.914062 20.527344 C 14.175781 20.269531 14.472656 20.070312 14.8125 19.933594 C 15.148438 19.792969 15.503906 19.722656 15.871094 19.722656 C 16.234375 19.722656 16.589844 19.792969 16.925781 19.933594 C 17.265625 20.070312 17.566406 20.269531 17.824219 20.527344 C 18.082031 20.78125 18.285156 21.078125 18.421875 21.414062 C 18.5625 21.75 18.632812 22.097656 18.632812 22.460938 Z M 18.632812 22.460938 " fill-opacity="1" fill-rule="nonzero"/><path stroke-linecap="butt" transform="matrix(0.0551043, 0, 0, 0.0545436, 1.017316, 9.499146)" fill="none" stroke-linejoin="miter" d="M 269.557349 135.65816 C 336.901195 135.65816 399.424638 145.326449 446.636218 161.51188 C 503.488601 181.134925 538.436512 210.784344 538.436512 237.640702 C 538.436512 265.642931 501.361953 297.15439 440.327163 317.350371 C 394.178907 332.676399 333.498558 340.625881 269.557349 340.625881 C 203.985711 340.625881 141.887597 333.106101 95.243123 317.207137 C 36.193204 297.011156 0.607298 265.069995 0.607298 237.640702 C 0.607298 210.999195 33.995668 181.564627 90.06828 162.013199 C 137.421636 145.469683 201.504622 135.65816 269.557349 135.65816 Z M 269.557349 135.65816 " stroke="#00d8ff" stroke-width="24" stroke-opacity="1" stroke-miterlimit="4"/><g clip-path="url(#4c1377c297)"><path stroke-linecap="butt" transform="matrix(0.0551043, 0, 0, 0.0545436, 1.017316, 9.499146)" fill="none" stroke-linejoin="miter" d="M 180.734362 186.935899 C 214.406285 128.568081 254.032821 79.224001 291.674486 46.423436 C 337.042971 6.962494 380.143032 -8.506768 403.465269 4.95722 C 427.709053 18.922526 436.499197 66.762651 423.526646 129.713953 C 413.673178 177.339227 390.280053 233.91662 358.309449 289.348142 C 325.559073 346.140386 288.059185 396.12902 250.913738 428.5715 C 203.985711 469.679631 158.546337 484.504341 134.727883 470.825502 C 111.689199 457.504749 102.828166 413.890024 113.957623 355.593824 C 123.314873 306.32136 146.778886 245.876651 180.734362 186.935899 Z M 180.734362 186.935899 " stroke="#00d8ff" stroke-width="24" stroke-opacity="1" stroke-miterlimit="4"/><path stroke-linecap="butt" transform="matrix(0.0551043, 0, 0, 0.0545436, 1.017316, 9.499146)" fill="none" stroke-linejoin="miter" d="M 180.80525 289.491376 C 147.062439 231.195176 124.094644 172.182806 114.524729 123.19681 C 102.969943 64.256057 111.122093 19.137377 134.373441 5.673389 C 158.617225 -8.363534 204.41104 7.893515 252.544167 50.577219 C 288.838956 82.876465 326.197068 131.43276 358.23856 186.792665 C 391.059824 243.513292 415.728938 300.950089 425.298853 349.363149 C 437.420745 410.595644 427.567277 457.361515 403.81971 471.11197 C 380.781026 484.432724 338.531625 470.324184 293.588469 431.579412 C 255.592363 398.850464 214.902502 348.360512 180.80525 289.491376 Z M 180.80525 289.491376 " stroke="#00d8ff" stroke-width="24" stroke-opacity="1" stroke-miterlimit="4"/></g><g clip-path="url(#9c3eeca244)"><path fill="#00d8ff" d="M 46.554688 29.453125 L 43.167969 24.382812 C 44.878906 24.234375 46.421875 23.007812 46.421875 20.761719 C 46.421875 18.480469 44.785156 17.019531 42.488281 17.019531 L 37.445312 17.019531 L 37.445312 29.441406 L 39.007812 29.441406 L 39.007812 24.503906 L 41.511719 24.503906 L 44.710938 29.441406 Z M 42.300781 23.15625 L 39.007812 23.15625 L 39.007812 18.40625 L 42.300781 18.40625 C 43.789062 18.40625 44.804688 19.375 44.804688 20.773438 C 44.804688 22.167969 43.789062 23.15625 42.300781 23.15625 Z M 52.371094 29.675781 C 53.859375 29.675781 55.082031 29.191406 55.984375 28.296875 L 55.304688 27.382812 C 54.589844 28.109375 53.539062 28.519531 52.503906 28.519531 C 50.546875 28.519531 49.339844 27.105469 49.226562 25.410156 L 56.585938 25.410156 L 56.585938 25.054688 C 56.585938 22.355469 54.964844 20.230469 52.21875 20.230469 C 49.621094 20.230469 47.742188 22.335938 47.742188 24.945312 C 47.742188 27.757812 49.679688 29.667969 52.371094 29.667969 Z M 55.195312 24.382812 L 49.226562 24.382812 C 49.304688 23.007812 50.261719 21.382812 52.203125 21.382812 C 54.273438 21.382812 55.175781 23.042969 55.195312 24.382812 Z M 65.957031 29.449219 L 65.957031 23.265625 C 65.957031 21.085938 64.359375 20.230469 62.441406 20.230469 C 60.953125 20.230469 59.785156 20.714844 58.808594 21.71875 L 59.464844 22.6875 C 60.277344 21.832031 61.160156 21.441406 62.253906 21.441406 C 63.570312 21.441406 64.546875 22.128906 64.546875 23.339844 L 64.546875 24.960938 C 63.8125 24.121094 62.78125 23.730469 61.535156 23.730469 C 59.992188 23.730469 58.355469 24.679688 58.355469 26.691406 C 58.355469 28.648438 59.992188 29.671875 61.535156 29.671875 C 62.761719 29.671875 63.796875 29.246094 64.546875 28.425781 L 64.546875 29.449219 Z M 62.046875 28.667969 C 60.726562 28.667969 59.804688 27.847656 59.804688 26.710938 C 59.804688 25.558594 60.726562 24.738281 62.046875 24.738281 C 63.042969 24.738281 64.003906 25.109375 64.546875 25.855469 L 64.546875 27.550781 C 64.003906 28.296875 63.042969 28.667969 62.046875 28.667969 Z M 72.78125 29.675781 C 74.4375 29.675781 75.417969 29.003906 76.113281 28.109375 L 75.171875 27.253906 C 74.570312 28.054688 73.800781 28.425781 72.867188 28.425781 C 70.929688 28.425781 69.726562 26.9375 69.726562 24.945312 C 69.726562 22.949219 70.929688 21.480469 72.867188 21.480469 C 73.808594 21.480469 74.578125 21.832031 75.171875 22.652344 L 76.113281 21.796875 C 75.417969 20.902344 74.4375 20.230469 72.78125 20.230469 C 70.074219 20.230469 68.246094 22.28125 68.246094 24.945312 C 68.246094 27.625 70.074219 29.667969 72.78125 29.667969 Z M 80.386719 29.675781 C 81.214844 29.675781 81.722656 29.433594 82.082031 29.097656 L 81.667969 28.054688 C 81.480469 28.257812 81.109375 28.425781 80.707031 28.425781 C 80.085938 28.425781 79.785156 27.941406 79.785156 27.273438 L 79.785156 21.683594 L 81.628906 21.683594 L 81.628906 20.453125 L 79.785156 20.453125 L 79.785156 17.996094 L 78.371094 17.996094 L 78.371094 20.453125 L 76.867188 20.453125 L 76.867188 21.683594 L 78.371094 21.683594 L 78.371094 27.570312 C 78.371094 28.914062 79.050781 29.675781 80.386719 29.675781 Z M 80.386719 29.675781 " fill-opacity="1" fill-rule="evenodd"/></g></svg>