<svg xmlns="http://www.w3.org/2000/svg" xmlns:xlink="http://www.w3.org/1999/xlink" width="110" zoomAndPan="magnify" viewBox="0 0 82.5 44.999999" height="60" preserveAspectRatio="xMidYMid meet" version="1.0"><defs><clipPath id="1fe7dc7d60"><path d="M 0 0.136719 L 82.003906 0.136719 L 82.003906 44.863281 L 0 44.863281 Z M 0 0.136719 " clip-rule="nonzero"/></clipPath><clipPath id="d6c32b6aa7"><path d="M 20.023438 1.410156 L 62.773438 1.410156 L 62.773438 44.160156 L 20.023438 44.160156 Z M 20.023438 1.410156 " clip-rule="nonzero"/></clipPath></defs><g clip-path="url(#1fe7dc7d60)"><path fill="#ffffff" d="M 0 0.136719 L 82.5 0.136719 L 82.5 52.636719 L 0 52.636719 Z M 0 0.136719 " fill-opacity="1" fill-rule="nonzero"/><path fill="#ffffff" d="M 0 0.136719 L 82.5 0.136719 L 82.5 45.136719 L 0 45.136719 Z M 0 0.136719 " fill-opacity="1" fill-rule="nonzero"/><path fill="#ffffff" d="M 0 0.136719 L 82.5 0.136719 L 82.5 45.136719 L 0 45.136719 Z M 0 0.136719 " fill-opacity="1" fill-rule="nonzero"/></g><g clip-path="url(#d6c32b6aa7)"><path fill="#000000" d="M 20.023438 1.410156 L 20.023438 44.160156 L 62.773438 44.160156 L 62.773438 1.410156 Z M 23.585938 4.972656 L 59.210938 4.972656 L 59.210938 40.597656 L 23.585938 40.597656 Z M 31.289062 19.222656 L 31.289062 22.558594 L 35.839844 22.558594 L 35.839844 37.0625 L 39.582031 37.0625 L 39.582031 22.558594 L 44.226562 22.558594 L 44.226562 19.222656 Z M 49.777344 19.511719 C 47.179688 19.703125 44.582031 20.789062 44.582031 24.386719 C 44.582031 29.679688 51.710938 29.679688 51.710938 32.066406 C 51.710938 32.292969 51.8125 33.9375 49.292969 33.9375 C 46.777344 33.9375 44.679688 32.355469 44.679688 32.355469 L 44.679688 36.195312 C 44.679688 36.195312 55.648438 39.742188 55.648438 31.742188 C 55.648438 26.546875 48.457031 26.808594 48.457031 24.226562 C 48.457031 23.226562 49.164062 22.289062 51.132812 22.289062 C 53.101562 22.289062 54.84375 23.449219 54.84375 23.449219 L 54.972656 20.03125 C 54.972656 20.03125 52.375 19.324219 49.777344 19.511719 Z M 49.777344 19.511719 " fill-opacity="1" fill-rule="nonzero"/></g></svg>