<svg xmlns="http://www.w3.org/2000/svg" xmlns:xlink="http://www.w3.org/1999/xlink" width="110" zoomAndPan="magnify" viewBox="0 0 82.5 44.999999" height="60" preserveAspectRatio="xMidYMid meet" version="1.0"><defs><clipPath id="0959713ed5"><path d="M 0 0.136719 L 82.003906 0.136719 L 82.003906 44.863281 L 0 44.863281 Z M 0 0.136719 " clip-rule="nonzero"/></clipPath><clipPath id="98b54e5292"><path d="M 20.664062 2.046875 L 61.914062 2.046875 L 61.914062 43.296875 L 20.664062 43.296875 Z M 20.664062 2.046875 " clip-rule="nonzero"/></clipPath></defs><g clip-path="url(#0959713ed5)"><path fill="#ffffff" d="M 0 0.136719 L 82.5 0.136719 L 82.5 52.636719 L 0 52.636719 Z M 0 0.136719 " fill-opacity="1" fill-rule="nonzero"/><path fill="#ffffff" d="M 0 0.136719 L 82.5 0.136719 L 82.5 45.136719 L 0 45.136719 Z M 0 0.136719 " fill-opacity="1" fill-rule="nonzero"/><path fill="#ffffff" d="M 0 0.136719 L 82.5 0.136719 L 82.5 45.136719 L 0 45.136719 Z M 0 0.136719 " fill-opacity="1" fill-rule="nonzero"/></g><g clip-path="url(#98b54e5292)"><path fill="#b388ff" d="M 20.664062 6.632812 C 20.664062 4.101562 22.714844 2.046875 25.246094 2.046875 L 57.328125 2.046875 C 59.859375 2.046875 61.914062 4.101562 61.914062 6.632812 L 61.914062 38.714844 C 61.914062 41.246094 59.859375 43.296875 57.328125 43.296875 L 25.246094 43.296875 C 22.714844 43.296875 20.664062 41.246094 20.664062 38.714844 Z M 20.664062 6.632812 " fill-opacity="1" fill-rule="nonzero"/></g><path fill="#170b40" d="M 24.101562 5.484375 L 24.101562 39.859375 L 58.476562 39.859375 L 58.476562 5.484375 Z M 24.101562 5.484375 " fill-opacity="1" fill-rule="nonzero"/><path fill="#b388ff" d="M 38.058594 27.214844 L 32.839844 27.214844 L 31.847656 30.476562 L 28.683594 30.476562 L 34.0625 14.652344 L 36.820312 14.652344 L 42.226562 30.476562 L 39.0625 30.476562 Z M 33.644531 24.574219 L 37.257812 24.574219 L 35.441406 18.652344 Z M 48.328125 30.695312 C 47.496094 30.695312 46.75 30.542969 46.09375 30.25 C 45.433594 29.953125 44.875 29.542969 44.414062 29.03125 C 43.953125 28.515625 43.605469 27.914062 43.363281 27.222656 C 43.121094 26.527344 43 25.789062 43 24.996094 L 43 24.574219 C 43 23.683594 43.117188 22.867188 43.351562 22.121094 C 43.585938 21.378906 43.921875 20.742188 44.355469 20.203125 C 44.789062 19.667969 45.316406 19.25 45.933594 18.949219 C 46.550781 18.648438 47.246094 18.496094 48.011719 18.496094 C 48.785156 18.496094 49.464844 18.636719 50.054688 18.914062 C 50.644531 19.195312 51.136719 19.585938 51.539062 20.089844 C 51.9375 20.59375 52.242188 21.199219 52.441406 21.910156 C 52.644531 22.621094 52.746094 23.410156 52.746094 24.28125 L 52.746094 25.617188 L 45.910156 25.617188 C 45.957031 26.003906 46.050781 26.351562 46.191406 26.660156 C 46.335938 26.972656 46.515625 27.238281 46.738281 27.460938 C 46.960938 27.679688 47.21875 27.851562 47.515625 27.976562 C 47.8125 28.101562 48.148438 28.160156 48.519531 28.160156 C 49.042969 28.160156 49.523438 28.054688 49.96875 27.839844 C 50.410156 27.628906 50.792969 27.296875 51.109375 26.847656 L 52.519531 28.574219 C 52.347656 28.84375 52.128906 29.101562 51.871094 29.355469 C 51.613281 29.609375 51.308594 29.835938 50.960938 30.035156 C 50.609375 30.234375 50.214844 30.394531 49.773438 30.515625 C 49.332031 30.632812 48.851562 30.695312 48.328125 30.695312 Z M 48.003906 21.042969 C 47.691406 21.042969 47.421875 21.101562 47.183594 21.222656 C 46.949219 21.339844 46.746094 21.507812 46.578125 21.722656 C 46.410156 21.933594 46.273438 22.191406 46.167969 22.488281 C 46.0625 22.785156 45.988281 23.117188 45.941406 23.476562 L 49.929688 23.476562 L 49.929688 23.226562 C 49.921875 22.914062 49.882812 22.625 49.804688 22.359375 C 49.730469 22.089844 49.613281 21.859375 49.457031 21.664062 C 49.300781 21.464844 49.101562 21.316406 48.863281 21.207031 C 48.617188 21.097656 48.332031 21.042969 48.003906 21.042969 Z M 48.003906 21.042969 " fill-opacity="1" fill-rule="nonzero"/></svg>