<svg xmlns="http://www.w3.org/2000/svg" xmlns:xlink="http://www.w3.org/1999/xlink" width="110" zoomAndPan="magnify" viewBox="0 0 82.5 44.999999" height="60" preserveAspectRatio="xMidYMid meet" version="1.0"><defs><clipPath id="0d00566fd8"><path d="M 0 0.136719 L 82.003906 0.136719 L 82.003906 44.863281 L 0 44.863281 Z M 0 0.136719 " clip-rule="nonzero"/></clipPath></defs><g clip-path="url(#0d00566fd8)"><path fill="#ffffff" d="M 0 0.136719 L 82.5 0.136719 L 82.5 52.636719 L 0 52.636719 Z M 0 0.136719 " fill-opacity="1" fill-rule="nonzero"/><path fill="#ffffff" d="M 0 0.136719 L 82.5 0.136719 L 82.5 45.136719 L 0 45.136719 Z M 0 0.136719 " fill-opacity="1" fill-rule="nonzero"/><path fill="#ffffff" d="M 0 0.136719 L 82.5 0.136719 L 82.5 45.136719 L 0 45.136719 Z M 0 0.136719 " fill-opacity="1" fill-rule="nonzero"/></g><path fill="#03a9f4" d="M 20.605469 6.554688 C 20.605469 4.035156 22.648438 1.992188 25.167969 1.992188 L 57.105469 1.992188 C 59.625 1.992188 61.667969 4.035156 61.667969 6.554688 L 61.667969 38.492188 C 61.667969 41.011719 59.625 43.054688 57.105469 43.054688 L 25.167969 43.054688 C 22.648438 43.054688 20.605469 41.011719 20.605469 38.492188 Z M 20.605469 6.554688 " fill-opacity="1" fill-rule="nonzero"/><path fill="#020f16" d="M 36.59375 17.019531 L 34.308594 17.019531 L 34.308594 22.074219 L 36.558594 22.074219 C 37.183594 22.074219 37.667969 21.871094 38.007812 21.464844 C 38.351562 21.054688 38.519531 20.460938 38.519531 19.679688 C 38.519531 18.871094 38.347656 18.226562 37.996094 17.75 C 37.648438 17.269531 37.179688 17.027344 36.59375 17.019531 Z M 36.59375 17.019531 " fill-opacity="1" fill-rule="nonzero"/><path fill="#020f16" d="M 24.027344 5.414062 L 24.027344 39.632812 L 58.246094 39.632812 L 58.246094 5.414062 Z M 40.414062 23.421875 C 39.472656 24.34375 38.164062 24.804688 36.492188 24.804688 L 34.308594 24.804688 L 34.308594 30.507812 L 31.035156 30.507812 L 31.035156 14.289062 L 36.558594 14.289062 C 38.164062 14.289062 39.445312 14.789062 40.398438 15.78125 C 41.351562 16.777344 41.828125 18.070312 41.828125 19.65625 C 41.828125 21.246094 41.355469 22.5 40.414062 23.421875 Z M 51.039062 29.75 C 50.230469 30.402344 49.167969 30.730469 47.855469 30.730469 C 46.96875 30.730469 46.191406 30.558594 45.515625 30.210938 C 44.839844 29.867188 44.308594 29.386719 43.925781 28.769531 C 43.546875 28.152344 43.355469 27.488281 43.355469 26.773438 L 46.351562 26.773438 C 46.367188 27.324219 46.492188 27.738281 46.734375 28.011719 C 46.976562 28.285156 47.371094 28.421875 47.921875 28.421875 C 48.765625 28.421875 49.191406 28.042969 49.191406 27.277344 C 49.191406 27.007812 49.0625 26.761719 48.804688 26.535156 C 48.550781 26.308594 47.980469 26.003906 47.097656 25.617188 C 45.796875 25.089844 44.90625 24.546875 44.417969 23.980469 C 43.929688 23.414062 43.6875 22.714844 43.6875 21.875 C 43.6875 20.820312 44.070312 19.949219 44.828125 19.261719 C 45.589844 18.574219 46.601562 18.230469 47.851562 18.230469 C 49.175781 18.230469 50.234375 18.574219 51.027344 19.257812 C 51.824219 19.9375 52.21875 20.855469 52.21875 22.007812 L 49.066406 22.007812 C 49.066406 21.027344 48.660156 20.539062 47.84375 20.539062 C 47.507812 20.539062 47.234375 20.640625 47.015625 20.847656 C 46.800781 21.054688 46.695312 21.347656 46.695312 21.71875 C 46.695312 21.984375 46.8125 22.222656 47.050781 22.425781 C 47.289062 22.628906 47.847656 22.921875 48.734375 23.300781 C 50.019531 23.777344 50.925781 24.304688 51.457031 24.886719 C 51.988281 25.46875 52.253906 26.226562 52.253906 27.152344 C 52.253906 28.230469 51.847656 29.097656 51.039062 29.75 Z M 51.039062 29.75 " fill-opacity="1" fill-rule="nonzero"/></svg>