<svg xmlns="http://www.w3.org/2000/svg" xmlns:xlink="http://www.w3.org/1999/xlink" width="110" zoomAndPan="magnify" viewBox="0 0 82.5 44.999999" height="60" preserveAspectRatio="xMidYMid meet" version="1.0"><defs><clipPath id="812e39d7a2"><path d="M 0 0.136719 L 82.003906 0.136719 L 82.003906 44.863281 L 0 44.863281 Z M 0 0.136719 " clip-rule="nonzero"/></clipPath><clipPath id="b6e17d9331"><path d="M 28 2.03125 L 53 2.03125 L 53 27 L 28 27 Z M 28 2.03125 " clip-rule="nonzero"/></clipPath><clipPath id="d492f119a2"><path d="M 32.476562 2 L 48.902344 2 C 49.425781 2 49.925781 2.101562 50.40625 2.300781 C 50.882812 2.503906 51.308594 2.789062 51.675781 3.15625 C 52.042969 3.527344 52.328125 3.953125 52.527344 4.4375 C 52.726562 4.917969 52.824219 5.421875 52.824219 5.945312 L 52.824219 22.574219 C 52.824219 23.097656 52.726562 23.601562 52.527344 24.085938 C 52.328125 24.566406 52.042969 24.996094 51.675781 25.363281 C 51.308594 25.734375 50.882812 26.019531 50.40625 26.21875 C 49.925781 26.417969 49.425781 26.519531 48.902344 26.519531 L 32.476562 26.519531 C 31.957031 26.519531 31.457031 26.417969 30.976562 26.21875 C 30.496094 26.019531 30.074219 25.734375 29.703125 25.363281 C 29.335938 24.996094 29.054688 24.566406 28.855469 24.085938 C 28.65625 23.601562 28.558594 23.097656 28.558594 22.574219 L 28.558594 5.945312 C 28.558594 5.421875 28.65625 4.917969 28.855469 4.4375 C 29.054688 3.953125 29.335938 3.527344 29.703125 3.15625 C 30.074219 2.789062 30.496094 2.503906 30.976562 2.300781 C 31.457031 2.101562 31.957031 2 32.476562 2 Z M 32.476562 2 " clip-rule="nonzero"/></clipPath><linearGradient x1="255.659447" gradientTransform="matrix(0.18956, 0, 0, 0.190723, -19.826508, -79.118562)" y1="554.29218" x2="382.753329" gradientUnits="userSpaceOnUse" y2="424.977863" id="f9063cccba"><stop stop-opacity="1" stop-color="rgb(2.69928%, 0.39978%, 20.799255%)" offset="0"/><stop stop-opacity="1" stop-color="rgb(2.853394%, 0.474548%, 20.845032%)" offset="0.0625"/><stop stop-opacity="1" stop-color="rgb(3.161621%, 0.624084%, 20.93811%)" offset="0.0703125"/><stop stop-opacity="1" stop-color="rgb(3.4729%, 0.775146%, 21.031189%)" offset="0.078125"/><stop stop-opacity="1" stop-color="rgb(3.78418%, 0.927734%, 21.124268%)" offset="0.0859375"/><stop stop-opacity="1" stop-color="rgb(4.093933%, 1.078796%, 21.217346%)" offset="0.09375"/><stop stop-opacity="1" stop-color="rgb(4.405212%, 1.229858%, 21.310425%)" offset="0.101562"/><stop stop-opacity="1" stop-color="rgb(4.716492%, 1.38092%, 21.405029%)" offset="0.109375"/><stop stop-opacity="1" stop-color="rgb(5.027771%, 1.533508%, 21.498108%)" offset="0.117187"/><stop stop-opacity="1" stop-color="rgb(5.337524%, 1.68457%, 21.591187%)" offset="0.125"/><stop stop-opacity="1" stop-color="rgb(5.648804%, 1.835632%, 21.684265%)" offset="0.132812"/><stop stop-opacity="1" stop-color="rgb(5.960083%, 1.986694%, 21.777344%)" offset="0.140625"/><stop stop-opacity="1" stop-color="rgb(6.269836%, 2.139282%, 21.870422%)" offset="0.148438"/><stop stop-opacity="1" stop-color="rgb(6.581116%, 2.290344%, 21.965027%)" offset="0.15625"/><stop stop-opacity="1" stop-color="rgb(6.892395%, 2.441406%, 22.058105%)" offset="0.164062"/><stop stop-opacity="1" stop-color="rgb(7.203674%, 2.593994%, 22.151184%)" offset="0.171875"/><stop stop-opacity="1" stop-color="rgb(7.513428%, 2.745056%, 22.244263%)" offset="0.179688"/><stop stop-opacity="1" stop-color="rgb(7.824707%, 2.896118%, 22.337341%)" offset="0.1875"/><stop stop-opacity="1" stop-color="rgb(8.135986%, 3.04718%, 22.43042%)" offset="0.195312"/><stop stop-opacity="1" stop-color="rgb(8.44574%, 3.199768%, 22.525024%)" offset="0.203125"/><stop stop-opacity="1" stop-color="rgb(8.757019%, 3.35083%, 22.618103%)" offset="0.210938"/><stop stop-opacity="1" stop-color="rgb(9.068298%, 3.501892%, 22.711182%)" offset="0.21875"/><stop stop-opacity="1" stop-color="rgb(9.379578%, 3.652954%, 22.80426%)" offset="0.226562"/><stop stop-opacity="1" stop-color="rgb(9.689331%, 3.805542%, 22.897339%)" offset="0.234375"/><stop stop-opacity="1" stop-color="rgb(10.00061%, 3.956604%, 22.990417%)" offset="0.242187"/><stop stop-opacity="1" stop-color="rgb(10.31189%, 4.107666%, 23.085022%)" offset="0.25"/><stop stop-opacity="1" stop-color="rgb(10.621643%, 4.258728%, 23.178101%)" offset="0.257812"/><stop stop-opacity="1" stop-color="rgb(10.932922%, 4.411316%, 23.271179%)" offset="0.265625"/><stop stop-opacity="1" stop-color="rgb(11.244202%, 4.562378%, 23.364258%)" offset="0.273438"/><stop stop-opacity="1" stop-color="rgb(11.555481%, 4.71344%, 23.457336%)" offset="0.28125"/><stop stop-opacity="1" stop-color="rgb(11.865234%, 4.864502%, 23.550415%)" offset="0.289063"/><stop stop-opacity="1" stop-color="rgb(12.176514%, 5.01709%, 23.64502%)" offset="0.296875"/><stop stop-opacity="1" stop-color="rgb(12.487793%, 5.168152%, 23.738098%)" offset="0.304687"/><stop stop-opacity="1" stop-color="rgb(12.797546%, 5.319214%, 23.831177%)" offset="0.3125"/><stop stop-opacity="1" stop-color="rgb(13.108826%, 5.470276%, 23.924255%)" offset="0.320312"/><stop stop-opacity="1" stop-color="rgb(13.420105%, 5.622864%, 24.017334%)" offset="0.328125"/><stop stop-opacity="1" stop-color="rgb(13.729858%, 5.773926%, 24.111938%)" offset="0.335938"/><stop stop-opacity="1" stop-color="rgb(14.041138%, 5.924988%, 24.205017%)" offset="0.34375"/><stop stop-opacity="1" stop-color="rgb(14.352417%, 6.07605%, 24.298096%)" offset="0.351562"/><stop stop-opacity="1" stop-color="rgb(14.663696%, 6.228638%, 24.391174%)" offset="0.359375"/><stop stop-opacity="1" stop-color="rgb(14.97345%, 6.3797%, 24.484253%)" offset="0.367188"/><stop stop-opacity="1" stop-color="rgb(15.284729%, 6.530762%, 24.577332%)" offset="0.375"/><stop stop-opacity="1" stop-color="rgb(15.596008%, 6.681824%, 24.671936%)" offset="0.382813"/><stop stop-opacity="1" stop-color="rgb(15.905762%, 6.834412%, 24.765015%)" offset="0.390625"/><stop stop-opacity="1" stop-color="rgb(16.217041%, 6.985474%, 24.858093%)" offset="0.398438"/><stop stop-opacity="1" stop-color="rgb(16.52832%, 7.136536%, 24.951172%)" offset="0.40625"/><stop stop-opacity="1" stop-color="rgb(16.8396%, 7.289124%, 25.04425%)" offset="0.414062"/><stop stop-opacity="1" stop-color="rgb(17.149353%, 7.440186%, 25.137329%)" offset="0.421875"/><stop stop-opacity="1" stop-color="rgb(17.460632%, 7.591248%, 25.231934%)" offset="0.429688"/><stop stop-opacity="1" stop-color="rgb(17.771912%, 7.74231%, 25.325012%)" offset="0.4375"/><stop stop-opacity="1" stop-color="rgb(18.081665%, 7.894897%, 25.418091%)" offset="0.445312"/><stop stop-opacity="1" stop-color="rgb(18.392944%, 8.045959%, 25.511169%)" offset="0.453125"/><stop stop-opacity="1" stop-color="rgb(18.704224%, 8.197021%, 25.604248%)" offset="0.460938"/><stop stop-opacity="1" stop-color="rgb(19.015503%, 8.348083%, 25.697327%)" offset="0.46875"/><stop stop-opacity="1" stop-color="rgb(19.325256%, 8.500671%, 25.791931%)" offset="0.476563"/><stop stop-opacity="1" stop-color="rgb(19.636536%, 8.651733%, 25.88501%)" offset="0.484375"/><stop stop-opacity="1" stop-color="rgb(19.947815%, 8.802795%, 25.978088%)" offset="0.492188"/><stop stop-opacity="1" stop-color="rgb(20.257568%, 8.953857%, 26.071167%)" offset="0.494921"/><stop stop-opacity="1" stop-color="rgb(20.413208%, 9.030151%, 26.118469%)" offset="0.5"/><stop stop-opacity="1" stop-color="rgb(20.568848%, 9.106445%, 26.164246%)" offset="0.505079"/><stop stop-opacity="1" stop-color="rgb(20.724487%, 9.182739%, 26.211548%)" offset="0.507812"/><stop stop-opacity="1" stop-color="rgb(20.880127%, 9.257507%, 26.257324%)" offset="0.515625"/><stop stop-opacity="1" stop-color="rgb(21.191406%, 9.408569%, 26.351929%)" offset="0.523438"/><stop stop-opacity="1" stop-color="rgb(21.50116%, 9.559631%, 26.445007%)" offset="0.53125"/><stop stop-opacity="1" stop-color="rgb(21.812439%, 9.712219%, 26.538086%)" offset="0.539062"/><stop stop-opacity="1" stop-color="rgb(22.123718%, 9.863281%, 26.631165%)" offset="0.546875"/><stop stop-opacity="1" stop-color="rgb(22.433472%, 10.014343%, 26.724243%)" offset="0.554688"/><stop stop-opacity="1" stop-color="rgb(22.744751%, 10.165405%, 26.817322%)" offset="0.5625"/><stop stop-opacity="1" stop-color="rgb(23.05603%, 10.317993%, 26.911926%)" offset="0.570312"/><stop stop-opacity="1" stop-color="rgb(23.36731%, 10.469055%, 27.005005%)" offset="0.578125"/><stop stop-opacity="1" stop-color="rgb(23.677063%, 10.620117%, 27.098083%)" offset="0.585938"/><stop stop-opacity="1" stop-color="rgb(23.988342%, 10.771179%, 27.191162%)" offset="0.59375"/><stop stop-opacity="1" stop-color="rgb(24.299622%, 10.923767%, 27.284241%)" offset="0.601562"/><stop stop-opacity="1" stop-color="rgb(24.609375%, 11.074829%, 27.378845%)" offset="0.609375"/><stop stop-opacity="1" stop-color="rgb(24.920654%, 11.225891%, 27.471924%)" offset="0.617188"/><stop stop-opacity="1" stop-color="rgb(25.231934%, 11.378479%, 27.565002%)" offset="0.625"/><stop stop-opacity="1" stop-color="rgb(25.543213%, 11.529541%, 27.658081%)" offset="0.632812"/><stop stop-opacity="1" stop-color="rgb(25.852966%, 11.680603%, 27.75116%)" offset="0.640625"/><stop stop-opacity="1" stop-color="rgb(26.164246%, 11.831665%, 27.844238%)" offset="0.648438"/><stop stop-opacity="1" stop-color="rgb(26.475525%, 11.984253%, 27.938843%)" offset="0.65625"/><stop stop-opacity="1" stop-color="rgb(26.785278%, 12.135315%, 28.031921%)" offset="0.664063"/><stop stop-opacity="1" stop-color="rgb(27.096558%, 12.286377%, 28.125%)" offset="0.671875"/><stop stop-opacity="1" stop-color="rgb(27.407837%, 12.437439%, 28.218079%)" offset="0.679688"/><stop stop-opacity="1" stop-color="rgb(27.71759%, 12.590027%, 28.311157%)" offset="0.6875"/><stop stop-opacity="1" stop-color="rgb(28.02887%, 12.741089%, 28.404236%)" offset="0.695312"/><stop stop-opacity="1" stop-color="rgb(28.340149%, 12.892151%, 28.49884%)" offset="0.703125"/><stop stop-opacity="1" stop-color="rgb(28.651428%, 13.043213%, 28.591919%)" offset="0.710938"/><stop stop-opacity="1" stop-color="rgb(28.961182%, 13.195801%, 28.684998%)" offset="0.71875"/><stop stop-opacity="1" stop-color="rgb(29.272461%, 13.346863%, 28.778076%)" offset="0.726562"/><stop stop-opacity="1" stop-color="rgb(29.58374%, 13.497925%, 28.871155%)" offset="0.734375"/><stop stop-opacity="1" stop-color="rgb(29.893494%, 13.648987%, 28.964233%)" offset="0.742188"/><stop stop-opacity="1" stop-color="rgb(30.204773%, 13.801575%, 29.058838%)" offset="0.75"/><stop stop-opacity="1" stop-color="rgb(30.516052%, 13.952637%, 29.151917%)" offset="0.757813"/><stop stop-opacity="1" stop-color="rgb(30.827332%, 14.103699%, 29.244995%)" offset="0.765625"/><stop stop-opacity="1" stop-color="rgb(31.137085%, 14.254761%, 29.338074%)" offset="0.773438"/><stop stop-opacity="1" stop-color="rgb(31.448364%, 14.407349%, 29.431152%)" offset="0.78125"/><stop stop-opacity="1" stop-color="rgb(31.759644%, 14.558411%, 29.524231%)" offset="0.789062"/><stop stop-opacity="1" stop-color="rgb(32.069397%, 14.709473%, 29.618835%)" offset="0.796875"/><stop stop-opacity="1" stop-color="rgb(32.380676%, 14.860535%, 29.711914%)" offset="0.804688"/><stop stop-opacity="1" stop-color="rgb(32.691956%, 15.013123%, 29.804993%)" offset="0.8125"/><stop stop-opacity="1" stop-color="rgb(33.003235%, 15.164185%, 29.898071%)" offset="0.820312"/><stop stop-opacity="1" stop-color="rgb(33.312988%, 15.315247%, 29.99115%)" offset="0.828125"/><stop stop-opacity="1" stop-color="rgb(33.624268%, 15.466309%, 30.084229%)" offset="0.835938"/><stop stop-opacity="1" stop-color="rgb(33.935547%, 15.618896%, 30.178833%)" offset="0.84375"/><stop stop-opacity="1" stop-color="rgb(34.2453%, 15.769958%, 30.271912%)" offset="0.851563"/><stop stop-opacity="1" stop-color="rgb(34.55658%, 15.921021%, 30.36499%)" offset="0.859375"/><stop stop-opacity="1" stop-color="rgb(34.867859%, 16.073608%, 30.458069%)" offset="0.867188"/><stop stop-opacity="1" stop-color="rgb(35.179138%, 16.22467%, 30.551147%)" offset="0.875"/><stop stop-opacity="1" stop-color="rgb(35.488892%, 16.375732%, 30.644226%)" offset="0.882812"/><stop stop-opacity="1" stop-color="rgb(35.800171%, 16.526794%, 30.738831%)" offset="0.890625"/><stop stop-opacity="1" stop-color="rgb(36.11145%, 16.679382%, 30.831909%)" offset="0.898438"/><stop stop-opacity="1" stop-color="rgb(36.421204%, 16.830444%, 30.924988%)" offset="0.90625"/><stop stop-opacity="1" stop-color="rgb(36.732483%, 16.981506%, 31.018066%)" offset="0.914062"/><stop stop-opacity="1" stop-color="rgb(37.043762%, 17.132568%, 31.111145%)" offset="0.921875"/><stop stop-opacity="1" stop-color="rgb(37.355042%, 17.285156%, 31.20575%)" offset="0.929688"/><stop stop-opacity="1" stop-color="rgb(37.664795%, 17.436218%, 31.298828%)" offset="0.9375"/><stop stop-opacity="1" stop-color="rgb(37.908936%, 17.555237%, 31.37207%)" offset="1"/></linearGradient><clipPath id="63d09ef8d5"><path d="M 33 29 L 77.441406 29 L 77.441406 43.28125 L 33 43.28125 Z M 33 29 " clip-rule="nonzero"/></clipPath></defs><g clip-path="url(#812e39d7a2)"><path fill="#ffffff" d="M 0 0.136719 L 82.5 0.136719 L 82.5 52.636719 L 0 52.636719 Z M 0 0.136719 " fill-opacity="1" fill-rule="nonzero"/><path fill="#ffffff" d="M 0 0.136719 L 82.5 0.136719 L 82.5 45.136719 L 0 45.136719 Z M 0 0.136719 " fill-opacity="1" fill-rule="nonzero"/><path fill="#ffffff" d="M 0 0.136719 L 82.5 0.136719 L 82.5 45.136719 L 0 45.136719 Z M 0 0.136719 " fill-opacity="1" fill-rule="nonzero"/></g><g clip-path="url(#b6e17d9331)"><g clip-path="url(#d492f119a2)"><path fill="url(#f9063cccba)" d="M 28.558594 2.03125 L 28.558594 26.519531 L 52.824219 26.519531 L 52.824219 2.03125 Z M 28.558594 2.03125 " fill-rule="nonzero"/></g></g><path fill="#ffffff" d="M 40.871094 12.554688 C 41.492188 12.554688 41.960938 12.421875 42.28125 12.148438 C 42.601562 11.875 42.761719 11.476562 42.761719 10.949219 C 42.761719 10.425781 42.601562 10.027344 42.28125 9.757812 C 41.960938 9.480469 41.492188 9.339844 40.871094 9.339844 L 38.695312 9.339844 L 38.695312 12.554688 L 40.871094 12.554688 M 41.003906 19.195312 C 41.796875 19.195312 42.386719 19.03125 42.78125 18.699219 C 43.183594 18.367188 43.386719 17.863281 43.386719 17.191406 C 43.386719 16.535156 43.1875 16.042969 42.792969 15.71875 C 42.398438 15.386719 41.800781 15.21875 41.003906 15.21875 L 38.695312 15.21875 L 38.695312 19.199219 L 41.003906 19.199219 M 44.664062 13.734375 C 45.507812 13.980469 46.160156 14.429688 46.625 15.085938 C 47.085938 15.746094 47.320312 16.550781 47.320312 17.507812 C 47.320312 18.972656 46.820312 20.066406 45.828125 20.785156 C 44.832031 21.503906 43.320312 21.863281 41.292969 21.863281 L 34.765625 21.863281 L 34.765625 6.679688 L 40.667969 6.679688 C 42.785156 6.679688 44.320312 6.996094 45.265625 7.636719 C 46.21875 8.273438 46.695312 9.292969 46.695312 10.695312 C 46.695312 11.4375 46.523438 12.066406 46.175781 12.589844 C 45.828125 13.105469 45.320312 13.484375 44.664062 13.738281 " fill-opacity="1" fill-rule="nonzero"/><path fill="#230f3d" d="M 6.652344 34.675781 L 6.652344 38.800781 L 9.082031 38.800781 C 9.894531 38.800781 10.5 38.632812 10.890625 38.292969 C 11.285156 37.953125 11.480469 37.429688 11.480469 36.734375 C 11.480469 36.039062 11.28125 35.511719 10.890625 35.179688 C 10.5 34.84375 9.898438 34.675781 9.082031 34.675781 L 6.652344 34.675781 M 6.652344 30.042969 L 6.652344 33.4375 L 8.894531 33.4375 C 9.632812 33.4375 10.183594 33.296875 10.542969 33.023438 C 10.910156 32.742188 11.089844 32.3125 11.089844 31.742188 C 11.089844 31.171875 10.910156 30.746094 10.542969 30.464844 C 10.179688 30.183594 9.632812 30.042969 8.894531 30.042969 L 6.652344 30.042969 M 5.136719 28.792969 L 9.007812 28.792969 C 10.164062 28.792969 11.050781 29.035156 11.675781 29.515625 C 12.300781 30 12.613281 30.6875 12.613281 31.574219 C 12.613281 32.265625 12.453125 32.8125 12.132812 33.222656 C 11.8125 33.628906 11.34375 33.882812 10.722656 33.984375 C 11.46875 34.144531 12.046875 34.480469 12.457031 34.988281 C 12.871094 35.496094 13.070312 36.128906 13.070312 36.894531 C 13.070312 37.902344 12.730469 38.679688 12.050781 39.226562 C 11.371094 39.773438 10.402344 40.046875 9.148438 40.046875 L 5.128906 40.046875 L 5.128906 28.789062 " fill-opacity="1" fill-rule="nonzero"/><path fill="#230f3d" d="M 18.78125 32.578125 C 18.433594 32.566406 18.105469 32.636719 17.796875 32.792969 C 17.484375 32.945312 17.226562 33.167969 17.027344 33.453125 C 16.597656 34.03125 16.382812 34.824219 16.382812 35.835938 C 16.382812 36.847656 16.59375 37.644531 17.019531 38.226562 C 17.449219 38.804688 18.039062 39.09375 18.78125 39.09375 C 19.128906 39.105469 19.457031 39.035156 19.765625 38.878906 C 20.074219 38.722656 20.328125 38.503906 20.527344 38.21875 C 20.957031 37.636719 21.171875 36.839844 21.171875 35.835938 C 21.171875 34.835938 20.957031 34.042969 20.527344 33.460938 C 20.097656 32.871094 19.515625 32.578125 18.78125 32.578125 M 18.78125 31.398438 C 19.980469 31.398438 20.929688 31.792969 21.609375 32.578125 C 22.285156 33.359375 22.636719 34.445312 22.636719 35.835938 C 22.636719 37.226562 22.292969 38.304688 21.609375 39.097656 C 20.925781 39.878906 19.980469 40.273438 18.78125 40.273438 C 17.578125 40.273438 16.632812 39.878906 15.941406 39.097656 C 15.261719 38.304688 14.921875 37.21875 14.921875 35.835938 C 14.921875 34.449219 15.261719 33.363281 15.941406 32.578125 C 16.625 31.792969 17.570312 31.398438 18.78125 31.398438 " fill-opacity="1" fill-rule="nonzero"/><path fill="#230f3d" d="M 28.09375 32.578125 C 27.746094 32.566406 27.417969 32.636719 27.105469 32.792969 C 26.792969 32.945312 26.539062 33.167969 26.339844 33.453125 C 25.90625 34.03125 25.691406 34.824219 25.691406 35.835938 C 25.691406 36.847656 25.90625 37.644531 26.332031 38.226562 C 26.761719 38.804688 27.347656 39.09375 28.09375 39.09375 C 28.4375 39.105469 28.765625 39.035156 29.074219 38.878906 C 29.386719 38.722656 29.640625 38.503906 29.839844 38.21875 C 30.269531 37.636719 30.484375 36.839844 30.484375 35.835938 C 30.484375 34.835938 30.269531 34.042969 29.839844 33.460938 C 29.410156 32.871094 28.828125 32.578125 28.09375 32.578125 M 28.09375 31.398438 C 29.292969 31.398438 30.242188 31.792969 30.917969 32.578125 C 31.597656 33.359375 31.945312 34.445312 31.945312 35.835938 C 31.945312 37.226562 31.605469 38.304688 30.917969 39.097656 C 30.234375 39.878906 29.292969 40.273438 28.09375 40.273438 C 26.886719 40.273438 25.941406 39.878906 25.25 39.097656 C 24.574219 38.304688 24.230469 37.21875 24.230469 35.835938 C 24.230469 34.449219 24.574219 33.363281 25.25 32.578125 C 25.9375 31.792969 26.882812 31.398438 28.09375 31.398438 " fill-opacity="1" fill-rule="nonzero"/><g clip-path="url(#63d09ef8d5)"><path fill="#230f3d" d="M 35.511719 29.203125 L 35.511719 31.601562 L 38.355469 31.601562 L 38.355469 32.679688 L 35.511719 32.679688 L 35.511719 37.265625 C 35.511719 37.957031 35.605469 38.398438 35.789062 38.597656 C 35.980469 38.792969 36.359375 38.890625 36.9375 38.890625 L 38.355469 38.890625 L 38.355469 40.050781 L 36.933594 40.050781 C 35.871094 40.050781 35.136719 39.851562 34.730469 39.457031 C 34.328125 39.054688 34.117188 38.324219 34.117188 37.269531 L 34.117188 32.679688 L 33.105469 32.679688 L 33.105469 31.601562 L 34.117188 31.601562 L 34.117188 29.207031 L 35.503906 29.207031 M 45.445312 31.851562 L 45.445312 33.164062 C 45.058594 32.964844 44.652344 32.816406 44.230469 32.714844 C 43.808594 32.613281 43.375 32.5625 42.925781 32.5625 C 42.238281 32.5625 41.726562 32.667969 41.378906 32.871094 C 41.039062 33.082031 40.871094 33.398438 40.871094 33.820312 C 40.871094 34.144531 40.992188 34.398438 41.238281 34.582031 C 41.484375 34.765625 41.976562 34.9375 42.714844 35.105469 L 43.1875 35.210938 C 44.167969 35.421875 44.863281 35.71875 45.273438 36.105469 C 45.6875 36.488281 45.886719 37.023438 45.886719 37.714844 C 45.898438 38.082031 45.820312 38.433594 45.660156 38.761719 C 45.496094 39.09375 45.265625 39.363281 44.964844 39.578125 C 44.351562 40.035156 43.503906 40.273438 42.433594 40.273438 C 41.980469 40.273438 41.511719 40.226562 41.023438 40.136719 C 40.535156 40.058594 40.023438 39.921875 39.484375 39.742188 L 39.484375 38.3125 C 39.996094 38.578125 40.496094 38.777344 40.992188 38.914062 C 41.472656 39.042969 41.964844 39.109375 42.460938 39.109375 C 43.113281 39.109375 43.609375 39 43.960938 38.777344 C 44.3125 38.550781 44.488281 38.234375 44.488281 37.828125 C 44.488281 37.449219 44.359375 37.160156 44.105469 36.960938 C 43.855469 36.757812 43.300781 36.574219 42.449219 36.378906 L 41.96875 36.265625 C 41.113281 36.085938 40.496094 35.808594 40.117188 35.4375 C 39.734375 35.058594 39.546875 34.542969 39.546875 33.890625 C 39.546875 33.09375 39.824219 32.480469 40.386719 32.050781 C 40.945312 31.617188 41.738281 31.402344 42.769531 31.402344 C 43.253906 31.398438 43.734375 31.4375 44.210938 31.511719 C 44.636719 31.582031 45.050781 31.695312 45.453125 31.851562 M 49.394531 29.203125 L 49.394531 31.601562 L 52.234375 31.601562 L 52.234375 32.679688 L 49.394531 32.679688 L 49.394531 37.265625 C 49.394531 37.957031 49.488281 38.398438 49.671875 38.59375 C 49.859375 38.792969 50.242188 38.890625 50.816406 38.890625 L 52.238281 38.890625 L 52.238281 40.050781 L 50.820312 40.050781 C 49.753906 40.050781 49.019531 39.851562 48.617188 39.457031 C 48.210938 39.054688 48.003906 38.324219 48.003906 37.269531 L 48.003906 32.679688 L 46.988281 32.679688 L 46.988281 31.601562 L 48.003906 31.601562 L 48.003906 29.207031 L 49.394531 29.207031 M 58.839844 32.902344 C 58.679688 32.808594 58.511719 32.742188 58.328125 32.707031 C 58.132812 32.65625 57.933594 32.632812 57.730469 32.636719 C 56.949219 32.636719 56.351562 32.894531 55.929688 33.40625 C 55.515625 33.914062 55.316406 34.644531 55.316406 35.601562 L 55.316406 40.054688 L 53.929688 40.054688 L 53.929688 31.601562 L 55.316406 31.601562 L 55.316406 32.914062 C 55.609375 32.402344 55.984375 32.023438 56.449219 31.777344 C 56.914062 31.523438 57.476562 31.398438 58.144531 31.398438 C 58.25 31.398438 58.355469 31.40625 58.457031 31.421875 L 58.839844 31.472656 L 58.847656 32.898438 M 64.050781 35.804688 C 62.933594 35.804688 62.164062 35.933594 61.734375 36.1875 C 61.300781 36.445312 61.085938 36.882812 61.085938 37.503906 C 61.085938 37.996094 61.246094 38.386719 61.566406 38.679688 C 61.890625 38.964844 62.332031 39.109375 62.886719 39.109375 C 63.652344 39.109375 64.265625 38.835938 64.726562 38.292969 C 65.191406 37.753906 65.421875 37.019531 65.421875 36.113281 L 65.421875 35.804688 L 64.050781 35.804688 M 66.800781 35.230469 L 66.800781 40.050781 L 65.421875 40.050781 L 65.421875 38.769531 C 65.117188 39.28125 64.714844 39.664062 64.246094 39.910156 C 63.777344 40.148438 63.203125 40.273438 62.519531 40.273438 C 61.660156 40.273438 60.976562 40.03125 60.464844 39.546875 C 59.960938 39.058594 59.710938 38.410156 59.710938 37.59375 C 59.710938 36.644531 60.015625 35.925781 60.652344 35.445312 C 61.292969 34.960938 62.234375 34.71875 63.496094 34.71875 L 65.429688 34.71875 L 65.429688 34.585938 C 65.429688 33.945312 65.21875 33.453125 64.800781 33.105469 C 64.386719 32.753906 63.800781 32.578125 63.046875 32.578125 C 62.566406 32.578125 62.097656 32.636719 61.644531 32.75 C 61.183594 32.867188 60.746094 33.042969 60.332031 33.273438 L 60.332031 31.988281 C 60.835938 31.792969 61.328125 31.648438 61.800781 31.550781 C 62.257812 31.453125 62.71875 31.402344 63.1875 31.402344 C 64.402344 31.402344 65.308594 31.710938 65.910156 32.351562 C 66.507812 32.992188 66.808594 33.945312 66.808594 35.234375 M 70.917969 38.785156 L 70.917969 43.265625 L 69.53125 43.265625 L 69.53125 31.601562 L 70.917969 31.601562 L 70.917969 32.886719 C 71.207031 32.382812 71.574219 32.011719 72.011719 31.769531 C 72.457031 31.523438 72.988281 31.398438 73.601562 31.398438 C 74.089844 31.386719 74.550781 31.488281 74.988281 31.703125 C 75.429688 31.921875 75.792969 32.226562 76.082031 32.621094 C 76.722656 33.433594 77.042969 34.503906 77.042969 35.832031 C 77.042969 37.164062 76.722656 38.230469 76.082031 39.046875 C 75.792969 39.441406 75.429688 39.746094 74.988281 39.960938 C 74.550781 40.179688 74.089844 40.28125 73.601562 40.269531 C 72.988281 40.269531 72.449219 40.148438 72.011719 39.90625 C 71.574219 39.660156 71.207031 39.285156 70.917969 38.78125 M 75.609375 35.832031 C 75.609375 34.8125 75.402344 34.011719 74.980469 33.433594 C 74.566406 32.851562 73.992188 32.558594 73.265625 32.558594 C 72.921875 32.546875 72.597656 32.621094 72.289062 32.773438 C 71.984375 32.929688 71.734375 33.148438 71.539062 33.433594 C 71.125 34.015625 70.925781 34.8125 70.925781 35.832031 C 70.925781 36.851562 71.132812 37.65625 71.539062 38.238281 C 71.960938 38.820312 72.535156 39.105469 73.265625 39.105469 C 73.992188 39.105469 74.566406 38.816406 74.980469 38.238281 C 75.402344 37.65625 75.609375 36.851562 75.609375 35.832031 " fill-opacity="1" fill-rule="nonzero"/></g></svg>