<svg xmlns="http://www.w3.org/2000/svg" xmlns:xlink="http://www.w3.org/1999/xlink" width="110" zoomAndPan="magnify" viewBox="0 0 82.5 44.999999" height="60" preserveAspectRatio="xMidYMid meet" version="1.0"><defs><clipPath id="ec92f3c5ed"><path d="M 0 0.136719 L 82.003906 0.136719 L 82.003906 44.863281 L 0 44.863281 Z M 0 0.136719 " clip-rule="nonzero"/></clipPath><clipPath id="e1e64f5935"><path d="M 2.773438 2.628906 L 80.023438 2.628906 L 80.023438 42.378906 L 2.773438 42.378906 Z M 2.773438 2.628906 " clip-rule="nonzero"/></clipPath><clipPath id="0b50e1602e"><path d="M 2.773438 22.507812 C 2.773438 33.460938 20.066406 42.339844 41.398438 42.339844 C 62.726562 42.339844 80.019531 33.460938 80.019531 22.507812 C 80.019531 11.554688 62.726562 2.675781 41.398438 2.675781 C 20.066406 2.675781 2.773438 11.554688 2.773438 22.507812 " clip-rule="nonzero"/></clipPath><clipPath id="b836ff4e44"><path d="M 2.773438 22.507812 C 2.773438 33.460938 20.066406 42.339844 41.398438 42.339844 C 62.726562 42.339844 80.019531 33.460938 80.019531 22.507812 C 80.019531 11.554688 62.726562 2.675781 41.398438 2.675781 C 20.066406 2.675781 2.773438 11.554688 2.773438 22.507812 " clip-rule="nonzero"/></clipPath><radialGradient gradientTransform="matrix(1.012084, 0, 0, 0.987916, 25.962752, 9.648141)" gradientUnits="userSpaceOnUse" r="50.113501" cx="0" id="3ebd12b401" cy="0" fx="0" fy="0"><stop stop-opacity="1" stop-color="rgb(68.199158%, 69.799805%, 83.499146%)" offset="0"/><stop stop-opacity="1" stop-color="rgb(68.199158%, 69.799805%, 83.499146%)" offset="0.25"/><stop stop-opacity="1" stop-color="rgb(68.164062%, 69.764709%, 83.473206%)" offset="0.296875"/><stop stop-opacity="1" stop-color="rgb(67.956543%, 69.555664%, 83.317566%)" offset="0.300781"/><stop stop-opacity="1" stop-color="rgb(67.608643%, 69.20929%, 83.059692%)" offset="0.304688"/><stop stop-opacity="1" stop-color="rgb(67.260742%, 68.861389%, 82.800293%)" offset="0.308594"/><stop stop-opacity="1" stop-color="rgb(66.914368%, 68.513489%, 82.542419%)" offset="0.3125"/><stop stop-opacity="1" stop-color="rgb(66.566467%, 68.167114%, 82.28302%)" offset="0.316406"/><stop stop-opacity="1" stop-color="rgb(66.220093%, 67.819214%, 82.025146%)" offset="0.320312"/><stop stop-opacity="1" stop-color="rgb(65.872192%, 67.472839%, 81.765747%)" offset="0.324219"/><stop stop-opacity="1" stop-color="rgb(65.525818%, 67.124939%, 81.506348%)" offset="0.328125"/><stop stop-opacity="1" stop-color="rgb(65.177917%, 66.778564%, 81.248474%)" offset="0.332031"/><stop stop-opacity="1" stop-color="rgb(64.831543%, 66.430664%, 80.989075%)" offset="0.335938"/><stop stop-opacity="1" stop-color="rgb(64.483643%, 66.08429%, 80.731201%)" offset="0.339844"/><stop stop-opacity="1" stop-color="rgb(64.135742%, 65.736389%, 80.471802%)" offset="0.34375"/><stop stop-opacity="1" stop-color="rgb(63.789368%, 65.388489%, 80.213928%)" offset="0.347656"/><stop stop-opacity="1" stop-color="rgb(63.441467%, 65.042114%, 79.954529%)" offset="0.351562"/><stop stop-opacity="1" stop-color="rgb(63.095093%, 64.694214%, 79.696655%)" offset="0.355469"/><stop stop-opacity="1" stop-color="rgb(62.747192%, 64.347839%, 79.437256%)" offset="0.359375"/><stop stop-opacity="1" stop-color="rgb(62.400818%, 63.999939%, 79.179382%)" offset="0.363281"/><stop stop-opacity="1" stop-color="rgb(62.052917%, 63.653564%, 78.919983%)" offset="0.367188"/><stop stop-opacity="1" stop-color="rgb(61.706543%, 63.305664%, 78.662109%)" offset="0.371094"/><stop stop-opacity="1" stop-color="rgb(61.358643%, 62.95929%, 78.40271%)" offset="0.375"/><stop stop-opacity="1" stop-color="rgb(61.010742%, 62.611389%, 78.144836%)" offset="0.378906"/><stop stop-opacity="1" stop-color="rgb(60.664368%, 62.263489%, 77.885437%)" offset="0.382812"/><stop stop-opacity="1" stop-color="rgb(60.316467%, 61.917114%, 77.627563%)" offset="0.386719"/><stop stop-opacity="1" stop-color="rgb(59.970093%, 61.569214%, 77.368164%)" offset="0.390625"/><stop stop-opacity="1" stop-color="rgb(59.622192%, 61.222839%, 77.108765%)" offset="0.394531"/><stop stop-opacity="1" stop-color="rgb(59.275818%, 60.874939%, 76.850891%)" offset="0.398438"/><stop stop-opacity="1" stop-color="rgb(58.927917%, 60.528564%, 76.591492%)" offset="0.402344"/><stop stop-opacity="1" stop-color="rgb(58.581543%, 60.180664%, 76.333618%)" offset="0.40625"/><stop stop-opacity="1" stop-color="rgb(58.233643%, 59.83429%, 76.074219%)" offset="0.410156"/><stop stop-opacity="1" stop-color="rgb(57.885742%, 59.486389%, 75.816345%)" offset="0.414062"/><stop stop-opacity="1" stop-color="rgb(57.539368%, 59.138489%, 75.556946%)" offset="0.417969"/><stop stop-opacity="1" stop-color="rgb(57.191467%, 58.792114%, 75.299072%)" offset="0.421875"/><stop stop-opacity="1" stop-color="rgb(56.845093%, 58.444214%, 75.039673%)" offset="0.425781"/><stop stop-opacity="1" stop-color="rgb(56.497192%, 58.097839%, 74.781799%)" offset="0.429688"/><stop stop-opacity="1" stop-color="rgb(56.150818%, 57.749939%, 74.5224%)" offset="0.433594"/><stop stop-opacity="1" stop-color="rgb(55.802917%, 57.403564%, 74.264526%)" offset="0.4375"/><stop stop-opacity="1" stop-color="rgb(55.456543%, 57.055664%, 74.005127%)" offset="0.441406"/><stop stop-opacity="1" stop-color="rgb(55.108643%, 56.70929%, 73.747253%)" offset="0.445312"/><stop stop-opacity="1" stop-color="rgb(54.760742%, 56.361389%, 73.487854%)" offset="0.449219"/><stop stop-opacity="1" stop-color="rgb(54.414368%, 56.013489%, 73.22998%)" offset="0.453125"/><stop stop-opacity="1" stop-color="rgb(54.066467%, 55.667114%, 72.970581%)" offset="0.457031"/><stop stop-opacity="1" stop-color="rgb(53.720093%, 55.319214%, 72.711182%)" offset="0.460938"/><stop stop-opacity="1" stop-color="rgb(53.372192%, 54.972839%, 72.453308%)" offset="0.464844"/><stop stop-opacity="1" stop-color="rgb(53.025818%, 54.624939%, 72.193909%)" offset="0.46875"/><stop stop-opacity="1" stop-color="rgb(52.677917%, 54.278564%, 71.936035%)" offset="0.472656"/><stop stop-opacity="1" stop-color="rgb(52.331543%, 53.930664%, 71.676636%)" offset="0.476562"/><stop stop-opacity="1" stop-color="rgb(51.983643%, 53.58429%, 71.418762%)" offset="0.480469"/><stop stop-opacity="1" stop-color="rgb(51.635742%, 53.236389%, 71.159363%)" offset="0.484375"/><stop stop-opacity="1" stop-color="rgb(51.289368%, 52.888489%, 70.901489%)" offset="0.488281"/><stop stop-opacity="1" stop-color="rgb(50.941467%, 52.542114%, 70.64209%)" offset="0.492188"/><stop stop-opacity="1" stop-color="rgb(50.595093%, 52.194214%, 70.384216%)" offset="0.496094"/><stop stop-opacity="1" stop-color="rgb(50.247192%, 51.847839%, 70.124817%)" offset="0.5"/><stop stop-opacity="1" stop-color="rgb(49.900818%, 51.499939%, 69.866943%)" offset="0.503906"/><stop stop-opacity="1" stop-color="rgb(49.552917%, 51.153564%, 69.607544%)" offset="0.507812"/><stop stop-opacity="1" stop-color="rgb(49.206543%, 50.805664%, 69.34967%)" offset="0.511719"/><stop stop-opacity="1" stop-color="rgb(48.858643%, 50.45929%, 69.090271%)" offset="0.515625"/><stop stop-opacity="1" stop-color="rgb(48.510742%, 50.111389%, 68.832397%)" offset="0.519531"/><stop stop-opacity="1" stop-color="rgb(48.164368%, 49.763489%, 68.572998%)" offset="0.523438"/><stop stop-opacity="1" stop-color="rgb(47.816467%, 49.417114%, 68.313599%)" offset="0.527344"/><stop stop-opacity="1" stop-color="rgb(47.470093%, 49.069214%, 68.055725%)" offset="0.53125"/><stop stop-opacity="1" stop-color="rgb(47.122192%, 48.722839%, 67.796326%)" offset="0.535156"/><stop stop-opacity="1" stop-color="rgb(46.775818%, 48.374939%, 67.538452%)" offset="0.539062"/><stop stop-opacity="1" stop-color="rgb(46.427917%, 48.028564%, 67.279053%)" offset="0.542969"/><stop stop-opacity="1" stop-color="rgb(46.081543%, 47.680664%, 67.021179%)" offset="0.546875"/><stop stop-opacity="1" stop-color="rgb(45.733643%, 47.33429%, 66.76178%)" offset="0.550781"/><stop stop-opacity="1" stop-color="rgb(45.385742%, 46.986389%, 66.503906%)" offset="0.554688"/><stop stop-opacity="1" stop-color="rgb(45.039368%, 46.638489%, 66.244507%)" offset="0.558594"/><stop stop-opacity="1" stop-color="rgb(44.691467%, 46.292114%, 65.986633%)" offset="0.5625"/><stop stop-opacity="1" stop-color="rgb(44.345093%, 45.944214%, 65.727234%)" offset="0.566406"/><stop stop-opacity="1" stop-color="rgb(43.997192%, 45.597839%, 65.46936%)" offset="0.570312"/><stop stop-opacity="1" stop-color="rgb(43.650818%, 45.249939%, 65.209961%)" offset="0.574219"/><stop stop-opacity="1" stop-color="rgb(43.302917%, 44.903564%, 64.952087%)" offset="0.578125"/><stop stop-opacity="1" stop-color="rgb(42.956543%, 44.555664%, 64.692688%)" offset="0.582031"/><stop stop-opacity="1" stop-color="rgb(42.608643%, 44.20929%, 64.434814%)" offset="0.585938"/><stop stop-opacity="1" stop-color="rgb(42.260742%, 43.861389%, 64.175415%)" offset="0.589844"/><stop stop-opacity="1" stop-color="rgb(41.914368%, 43.513489%, 63.916016%)" offset="0.59375"/><stop stop-opacity="1" stop-color="rgb(41.566467%, 43.167114%, 63.658142%)" offset="0.597656"/><stop stop-opacity="1" stop-color="rgb(41.220093%, 42.819214%, 63.398743%)" offset="0.601562"/><stop stop-opacity="1" stop-color="rgb(40.872192%, 42.472839%, 63.140869%)" offset="0.605469"/><stop stop-opacity="1" stop-color="rgb(40.525818%, 42.124939%, 62.88147%)" offset="0.609375"/><stop stop-opacity="1" stop-color="rgb(40.177917%, 41.778564%, 62.623596%)" offset="0.613281"/><stop stop-opacity="1" stop-color="rgb(39.831543%, 41.430664%, 62.364197%)" offset="0.617188"/><stop stop-opacity="1" stop-color="rgb(39.483643%, 41.08429%, 62.106323%)" offset="0.621094"/><stop stop-opacity="1" stop-color="rgb(39.135742%, 40.736389%, 61.846924%)" offset="0.625"/><stop stop-opacity="1" stop-color="rgb(38.789368%, 40.388489%, 61.58905%)" offset="0.628906"/><stop stop-opacity="1" stop-color="rgb(38.441467%, 40.042114%, 61.329651%)" offset="0.632812"/><stop stop-opacity="1" stop-color="rgb(38.095093%, 39.694214%, 61.071777%)" offset="0.636719"/><stop stop-opacity="1" stop-color="rgb(37.747192%, 39.347839%, 60.812378%)" offset="0.640625"/><stop stop-opacity="1" stop-color="rgb(37.400818%, 38.999939%, 60.554504%)" offset="0.644531"/><stop stop-opacity="1" stop-color="rgb(37.052917%, 38.653564%, 60.295105%)" offset="0.648438"/><stop stop-opacity="1" stop-color="rgb(36.706543%, 38.305664%, 60.037231%)" offset="0.652344"/><stop stop-opacity="1" stop-color="rgb(36.358643%, 37.95929%, 59.777832%)" offset="0.65625"/><stop stop-opacity="1" stop-color="rgb(36.010742%, 37.611389%, 59.518433%)" offset="0.660156"/><stop stop-opacity="1" stop-color="rgb(35.664368%, 37.263489%, 59.260559%)" offset="0.664062"/><stop stop-opacity="1" stop-color="rgb(35.316467%, 36.917114%, 59.00116%)" offset="0.667969"/><stop stop-opacity="1" stop-color="rgb(34.970093%, 36.569214%, 58.743286%)" offset="0.671875"/><stop stop-opacity="1" stop-color="rgb(34.622192%, 36.222839%, 58.483887%)" offset="0.675781"/><stop stop-opacity="1" stop-color="rgb(34.275818%, 35.874939%, 58.226013%)" offset="0.679688"/><stop stop-opacity="1" stop-color="rgb(33.927917%, 35.528564%, 57.966614%)" offset="0.683594"/><stop stop-opacity="1" stop-color="rgb(33.581543%, 35.180664%, 57.70874%)" offset="0.6875"/><stop stop-opacity="1" stop-color="rgb(33.233643%, 34.83429%, 57.449341%)" offset="0.691406"/><stop stop-opacity="1" stop-color="rgb(32.885742%, 34.486389%, 57.191467%)" offset="0.695312"/><stop stop-opacity="1" stop-color="rgb(32.539368%, 34.138489%, 56.932068%)" offset="0.699219"/><stop stop-opacity="1" stop-color="rgb(32.191467%, 33.792114%, 56.674194%)" offset="0.703125"/><stop stop-opacity="1" stop-color="rgb(31.845093%, 33.444214%, 56.414795%)" offset="0.707031"/><stop stop-opacity="1" stop-color="rgb(31.497192%, 33.097839%, 56.156921%)" offset="0.710938"/><stop stop-opacity="1" stop-color="rgb(31.150818%, 32.749939%, 55.897522%)" offset="0.714844"/><stop stop-opacity="1" stop-color="rgb(30.802917%, 32.403564%, 55.639648%)" offset="0.71875"/><stop stop-opacity="1" stop-color="rgb(30.456543%, 32.055664%, 55.380249%)" offset="0.722656"/><stop stop-opacity="1" stop-color="rgb(30.108643%, 31.70929%, 55.122375%)" offset="0.726562"/><stop stop-opacity="1" stop-color="rgb(29.760742%, 31.361389%, 54.862976%)" offset="0.730469"/><stop stop-opacity="1" stop-color="rgb(29.414368%, 31.013489%, 54.603577%)" offset="0.734375"/><stop stop-opacity="1" stop-color="rgb(29.066467%, 30.667114%, 54.345703%)" offset="0.738281"/><stop stop-opacity="1" stop-color="rgb(28.720093%, 30.319214%, 54.086304%)" offset="0.742188"/><stop stop-opacity="1" stop-color="rgb(28.372192%, 29.972839%, 53.82843%)" offset="0.746094"/><stop stop-opacity="1" stop-color="rgb(28.199768%, 29.798889%, 53.69873%)" offset="1"/></radialGradient></defs><g clip-path="url(#ec92f3c5ed)"><path fill="#ffffff" d="M 0 0.136719 L 82.5 0.136719 L 82.5 52.636719 L 0 52.636719 Z M 0 0.136719 " fill-opacity="1" fill-rule="nonzero"/><path fill="#ffffff" d="M 0 0.136719 L 82.5 0.136719 L 82.5 45.136719 L 0 45.136719 Z M 0 0.136719 " fill-opacity="1" fill-rule="nonzero"/><path fill="#ffffff" d="M 0 0.136719 L 82.5 0.136719 L 82.5 45.136719 L 0 45.136719 Z M 0 0.136719 " fill-opacity="1" fill-rule="nonzero"/></g><g clip-path="url(#e1e64f5935)"><g clip-path="url(#0b50e1602e)"><g clip-path="url(#b836ff4e44)"><path fill="url(#3ebd12b401)" d="M 2.773438 2.675781 L 2.773438 42.339844 L 80.019531 42.339844 L 80.019531 2.675781 Z M 2.773438 2.675781 " fill-rule="nonzero"/></g></g></g><path fill="#777bb3" d="M 41.398438 40.867188 C 61.894531 40.867188 78.511719 32.648438 78.511719 22.507812 C 78.511719 12.367188 61.894531 4.148438 41.398438 4.148438 C 20.898438 4.148438 4.28125 12.367188 4.28125 22.507812 C 4.28125 32.648438 20.898438 40.867188 41.398438 40.867188 " fill-opacity="1" fill-rule="nonzero"/><path fill="#000000" d="M 23.757812 24.785156 C 25.441406 24.785156 26.699219 24.480469 27.496094 23.882812 C 28.285156 23.292969 28.828125 22.265625 29.113281 20.835938 C 29.378906 19.496094 29.277344 18.5625 28.8125 18.058594 C 28.335938 17.546875 27.308594 17.285156 25.753906 17.285156 L 23.0625 17.285156 L 21.566406 24.785156 Z M 14.949219 34.023438 C 14.824219 34.023438 14.703125 33.96875 14.625 33.875 C 14.539062 33.773438 14.511719 33.664062 14.535156 33.535156 L 18.492188 13.660156 C 18.539062 13.441406 18.675781 13.332031 18.90625 13.332031 L 27.433594 13.332031 C 30.113281 13.332031 32.109375 14.039062 33.363281 15.441406 C 34.625 16.851562 35.015625 18.820312 34.519531 21.296875 C 34.320312 22.304688 33.976562 23.238281 33.496094 24.078125 C 33.015625 24.917969 32.378906 25.695312 31.609375 26.386719 C 30.683594 27.230469 29.636719 27.84375 28.503906 28.203125 C 27.382812 28.558594 25.949219 28.738281 24.234375 28.738281 L 20.78125 28.738281 L 19.792969 33.691406 C 19.75 33.914062 19.613281 34.023438 19.382812 34.023438 L 14.945312 34.023438 Z M 14.949219 34.023438 " fill-opacity="1" fill-rule="nonzero"/><path fill="#ffffff" d="M 23.40625 17.695312 L 25.753906 17.695312 C 27.628906 17.695312 28.28125 18.09375 28.5 18.335938 C 28.867188 18.730469 28.9375 19.570312 28.703125 20.757812 C 28.4375 22.085938 27.945312 23.03125 27.242188 23.558594 C 26.519531 24.101562 25.347656 24.375 23.757812 24.375 L 22.078125 24.375 Z M 27.433594 12.921875 L 18.90625 12.921875 C 18.703125 12.921875 18.527344 12.984375 18.371094 13.109375 C 18.21875 13.230469 18.121094 13.390625 18.082031 13.582031 L 14.125 33.460938 C 14.101562 33.578125 14.105469 33.699219 14.136719 33.816406 C 14.167969 33.933594 14.222656 34.042969 14.300781 34.136719 C 14.382812 34.230469 14.476562 34.304688 14.589844 34.355469 C 14.703125 34.40625 14.824219 34.433594 14.949219 34.433594 L 19.382812 34.433594 C 19.585938 34.433594 19.761719 34.371094 19.917969 34.246094 C 20.070312 34.121094 20.167969 33.964844 20.207031 33.769531 L 21.125 29.148438 L 24.234375 29.148438 C 25.992188 29.148438 27.472656 28.960938 28.632812 28.59375 C 29.824219 28.214844 30.921875 27.574219 31.894531 26.6875 C 32.699219 25.964844 33.363281 25.15625 33.863281 24.277344 C 34.363281 23.402344 34.722656 22.425781 34.933594 21.375 C 35.453125 18.769531 35.03125 16.683594 33.679688 15.175781 C 32.34375 13.679688 30.242188 12.921875 27.433594 12.921875 M 21.058594 25.195312 L 23.757812 25.195312 C 25.546875 25.195312 26.878906 24.867188 27.753906 24.207031 C 28.628906 23.550781 29.21875 22.453125 29.527344 20.914062 C 29.820312 19.4375 29.6875 18.394531 29.125 17.789062 C 28.5625 17.179688 27.441406 16.875 25.753906 16.875 L 22.714844 16.875 L 21.058594 25.195312 M 27.433594 13.738281 C 30 13.738281 31.871094 14.398438 33.050781 15.710938 C 34.226562 17.027344 34.578125 18.863281 34.109375 21.21875 C 33.917969 22.1875 33.589844 23.074219 33.128906 23.878906 C 32.671875 24.683594 32.070312 25.417969 31.324219 26.085938 C 30.441406 26.894531 29.457031 27.472656 28.371094 27.816406 C 27.289062 28.160156 25.910156 28.332031 24.234375 28.332031 L 20.4375 28.332031 L 19.382812 33.613281 L 14.949219 33.613281 L 18.90625 13.742188 L 27.433594 13.742188 " fill-opacity="1" fill-rule="nonzero"/><path fill="#000000" d="M 44.691406 28.738281 C 44.566406 28.738281 44.445312 28.683594 44.367188 28.589844 C 44.289062 28.496094 44.253906 28.371094 44.28125 28.25 L 46.03125 19.457031 C 46.195312 18.621094 46.15625 18.019531 45.914062 17.769531 C 45.765625 17.613281 45.324219 17.351562 44.011719 17.351562 L 40.84375 17.351562 L 38.640625 28.40625 C 38.597656 28.628906 38.460938 28.738281 38.230469 28.738281 L 33.828125 28.738281 C 33.699219 28.738281 33.589844 28.6875 33.503906 28.589844 C 33.421875 28.492188 33.394531 28.378906 33.417969 28.25 L 37.375 8.375 C 37.417969 8.15625 37.554688 8.046875 37.785156 8.046875 L 42.1875 8.046875 C 42.320312 8.046875 42.425781 8.09375 42.511719 8.195312 C 42.59375 8.292969 42.625 8.40625 42.597656 8.53125 L 41.644531 13.328125 L 45.054688 13.328125 C 47.65625 13.328125 49.417969 13.777344 50.445312 14.699219 C 51.492188 15.636719 51.816406 17.136719 51.414062 19.160156 L 49.574219 28.40625 C 49.527344 28.628906 49.390625 28.738281 49.160156 28.738281 Z M 44.691406 28.738281 " fill-opacity="1" fill-rule="nonzero"/><path fill="#ffffff" d="M 42.1875 7.636719 L 37.785156 7.636719 C 37.585938 7.636719 37.410156 7.699219 37.253906 7.824219 C 37.097656 7.949219 37.003906 8.105469 36.964844 8.300781 L 33.007812 28.171875 C 32.984375 28.292969 32.984375 28.414062 33.015625 28.53125 C 33.046875 28.648438 33.101562 28.757812 33.183594 28.851562 C 33.261719 28.945312 33.359375 29.019531 33.472656 29.070312 C 33.585938 29.121094 33.703125 29.148438 33.828125 29.148438 L 38.230469 29.148438 C 38.429688 29.148438 38.609375 29.085938 38.761719 28.960938 C 38.917969 28.835938 39.015625 28.679688 39.054688 28.484375 L 41.1875 17.761719 L 44.015625 17.761719 C 45.320312 17.761719 45.597656 18.035156 45.609375 18.046875 C 45.6875 18.128906 45.792969 18.515625 45.617188 19.378906 L 43.867188 28.171875 C 43.84375 28.292969 43.847656 28.414062 43.878906 28.53125 C 43.910156 28.648438 43.964844 28.757812 44.042969 28.851562 C 44.125 28.945312 44.21875 29.019531 44.332031 29.070312 C 44.445312 29.121094 44.566406 29.148438 44.691406 29.148438 L 49.160156 29.148438 C 49.363281 29.148438 49.539062 29.085938 49.695312 28.960938 C 49.851562 28.835938 49.945312 28.679688 49.984375 28.484375 L 51.824219 19.238281 C 52.257812 17.066406 51.886719 15.4375 50.726562 14.394531 C 49.621094 13.402344 47.765625 12.921875 45.054688 12.921875 L 42.152344 12.921875 L 43.011719 8.609375 C 43.035156 8.492188 43.03125 8.371094 43 8.253906 C 42.96875 8.136719 42.914062 8.027344 42.835938 7.933594 C 42.753906 7.839844 42.660156 7.765625 42.546875 7.714844 C 42.433594 7.664062 42.3125 7.636719 42.1875 7.636719 M 42.1875 8.453125 L 41.136719 13.738281 L 45.054688 13.738281 C 47.523438 13.738281 49.222656 14.160156 50.160156 15 C 51.097656 15.839844 51.378906 17.199219 51.003906 19.082031 L 49.164062 28.328125 L 44.691406 28.328125 L 46.441406 19.535156 C 46.640625 18.535156 46.566406 17.851562 46.222656 17.488281 C 45.875 17.125 45.140625 16.945312 44.015625 16.945312 L 40.496094 16.945312 L 38.230469 28.328125 L 33.828125 28.328125 L 37.785156 8.453125 L 42.1875 8.453125 " fill-opacity="1" fill-rule="nonzero"/><path fill="#000000" d="M 58.378906 24.785156 C 60.0625 24.785156 61.320312 24.480469 62.117188 23.882812 C 62.90625 23.292969 63.449219 22.265625 63.734375 20.835938 C 64 19.496094 63.898438 18.5625 63.433594 18.058594 C 62.957031 17.546875 61.925781 17.285156 60.375 17.285156 L 57.679688 17.285156 L 56.1875 24.785156 Z M 49.566406 34.023438 C 49.441406 34.023438 49.324219 33.96875 49.242188 33.875 C 49.160156 33.773438 49.132812 33.664062 49.15625 33.535156 L 53.113281 13.660156 C 53.15625 13.441406 53.292969 13.328125 53.523438 13.328125 L 62.054688 13.328125 C 64.734375 13.328125 66.730469 14.039062 67.984375 15.441406 C 69.246094 16.851562 69.632812 18.820312 69.140625 21.292969 C 68.941406 22.304688 68.59375 23.238281 68.117188 24.078125 C 67.636719 24.917969 67 25.695312 66.226562 26.386719 C 65.304688 27.230469 64.257812 27.84375 63.121094 28.203125 C 62.003906 28.558594 60.566406 28.738281 58.855469 28.738281 L 55.398438 28.738281 L 54.414062 33.691406 C 54.367188 33.914062 54.230469 34.023438 54 34.023438 Z M 49.566406 34.023438 " fill-opacity="1" fill-rule="nonzero"/><path fill="#ffffff" d="M 58.027344 17.695312 L 60.375 17.695312 C 62.25 17.695312 62.902344 18.09375 63.121094 18.335938 C 63.488281 18.730469 63.558594 19.570312 63.324219 20.757812 C 63.058594 22.085938 62.566406 23.03125 61.863281 23.558594 C 61.140625 24.101562 59.96875 24.375 58.378906 24.375 L 56.695312 24.375 Z M 62.054688 12.921875 L 53.523438 12.921875 C 53.324219 12.921875 53.144531 12.984375 52.992188 13.109375 C 52.835938 13.230469 52.742188 13.390625 52.703125 13.582031 L 48.746094 33.460938 C 48.71875 33.578125 48.722656 33.699219 48.753906 33.816406 C 48.785156 33.933594 48.839844 34.042969 48.921875 34.136719 C 49 34.230469 49.097656 34.304688 49.210938 34.355469 C 49.324219 34.40625 49.441406 34.433594 49.566406 34.433594 L 54.003906 34.433594 C 54.203125 34.433594 54.382812 34.371094 54.535156 34.246094 C 54.691406 34.121094 54.785156 33.964844 54.824219 33.769531 L 55.746094 29.148438 L 58.855469 29.148438 C 60.613281 29.148438 62.089844 28.960938 63.25 28.59375 C 64.445312 28.214844 65.542969 27.574219 66.515625 26.6875 C 67.316406 25.964844 67.980469 25.15625 68.480469 24.277344 C 68.984375 23.402344 69.34375 22.425781 69.550781 21.375 C 70.070312 18.769531 69.648438 16.683594 68.300781 15.175781 C 66.960938 13.679688 64.859375 12.921875 62.054688 12.921875 M 55.679688 25.195312 L 58.375 25.195312 C 60.164062 25.195312 61.496094 24.867188 62.371094 24.207031 C 63.246094 23.550781 63.839844 22.453125 64.144531 20.914062 C 64.4375 19.4375 64.304688 18.394531 63.742188 17.789062 C 63.183594 17.179688 62.058594 16.875 60.375 16.875 L 57.335938 16.875 L 55.679688 25.195312 M 62.054688 13.738281 C 64.621094 13.738281 66.492188 14.398438 67.667969 15.710938 C 68.84375 17.027344 69.199219 18.863281 68.730469 21.21875 C 68.535156 22.1875 68.210938 23.074219 67.75 23.878906 C 67.289062 24.683594 66.6875 25.417969 65.945312 26.085938 C 65.058594 26.894531 64.074219 27.472656 62.992188 27.816406 C 61.910156 28.160156 60.53125 28.332031 58.855469 28.332031 L 55.054688 28.332031 L 54.003906 33.613281 L 49.566406 33.613281 L 53.523438 13.742188 L 62.054688 13.742188 " fill-opacity="1" fill-rule="nonzero"/></svg>