<svg xmlns="http://www.w3.org/2000/svg" xmlns:xlink="http://www.w3.org/1999/xlink" width="110" zoomAndPan="magnify" viewBox="0 0 82.5 44.999999" height="60" preserveAspectRatio="xMidYMid meet" version="1.0"><defs><clipPath id="8b8cc61ea1"><path d="M 0 0.136719 L 82.003906 0.136719 L 82.003906 44.863281 L 0 44.863281 Z M 0 0.136719 " clip-rule="nonzero"/></clipPath><clipPath id="d0096c2cfe"><path d="M 23.070312 36 L 28 36 L 28 40 L 23.070312 40 Z M 23.070312 36 " clip-rule="nonzero"/></clipPath><clipPath id="099183a23d"><path d="M 27 3 L 55 3 L 55 42.765625 L 27 42.765625 Z M 27 3 " clip-rule="nonzero"/></clipPath><clipPath id="ad7d1ef335"><path d="M 26 2.265625 L 56 2.265625 L 56 42.765625 L 26 42.765625 Z M 26 2.265625 " clip-rule="nonzero"/></clipPath><clipPath id="db253b5dae"><path d="M 48 2.265625 L 56 2.265625 L 56 10 L 48 10 Z M 48 2.265625 " clip-rule="nonzero"/></clipPath><clipPath id="072a1f5ff5"><path d="M 23.070312 35 L 29 35 L 29 41 L 23.070312 41 Z M 23.070312 35 " clip-rule="nonzero"/></clipPath><clipPath id="a98fbdd16d"><path d="M 23.070312 23 L 59 23 L 59 37 L 23.070312 37 Z M 23.070312 23 " clip-rule="nonzero"/></clipPath><clipPath id="ce5dff8831"><path d="M 23.070312 22 L 59 22 L 59 37 L 23.070312 37 Z M 23.070312 22 " clip-rule="nonzero"/></clipPath></defs><g clip-path="url(#8b8cc61ea1)"><path fill="#ffffff" d="M 0 0.136719 L 82.5 0.136719 L 82.5 52.636719 L 0 52.636719 Z M 0 0.136719 " fill-opacity="1" fill-rule="nonzero"/><path fill="#ffffff" d="M 0 0.136719 L 82.5 0.136719 L 82.5 45.136719 L 0 45.136719 Z M 0 0.136719 " fill-opacity="1" fill-rule="nonzero"/><path fill="#ffffff" d="M 0 0.136719 L 82.5 0.136719 L 82.5 45.136719 L 0 45.136719 Z M 0 0.136719 " fill-opacity="1" fill-rule="nonzero"/></g><g clip-path="url(#d0096c2cfe)"><path fill="#6a4e7c" d="M 27.453125 39.742188 L 23.863281 36.148438 L 27.453125 36.148438 Z M 27.453125 39.742188 " fill-opacity="1" fill-rule="nonzero"/></g><path fill="#6a4e7c" d="M 54.683594 39.742188 L 58.273438 36.148438 L 54.683594 36.148438 Z M 54.683594 39.742188 " fill-opacity="1" fill-rule="nonzero"/><path fill="#b2b2b2" d="M 54.683594 8.8125 L 48.957031 8.8125 L 48.957031 3.0625 Z M 54.683594 8.8125 " fill-opacity="1" fill-rule="nonzero"/><g clip-path="url(#099183a23d)"><path fill="#f1f1f1" d="M 48.949219 3.054688 L 28.59375 3.054688 C 28.441406 3.054688 28.296875 3.085938 28.160156 3.144531 C 28.019531 3.199219 27.894531 3.285156 27.789062 3.390625 C 27.683594 3.5 27.597656 3.621094 27.542969 3.761719 C 27.484375 3.902344 27.453125 4.046875 27.453125 4.199219 L 27.453125 40.886719 C 27.453125 41.039062 27.484375 41.183594 27.542969 41.324219 C 27.597656 41.464844 27.679688 41.589844 27.789062 41.699219 C 27.894531 41.804688 28.019531 41.890625 28.15625 41.949219 C 28.296875 42.007812 28.441406 42.039062 28.59375 42.039062 L 53.542969 42.039062 C 53.699219 42.039062 53.847656 42.007812 53.988281 41.945312 C 54.128906 41.882812 54.253906 41.796875 54.363281 41.6875 C 54.46875 41.574219 54.550781 41.445312 54.605469 41.300781 C 54.664062 41.15625 54.6875 41.007812 54.683594 40.851562 L 54.683594 8.8125 L 48.949219 8.8125 Z M 48.949219 3.054688 " fill-opacity="1" fill-rule="nonzero"/></g><g clip-path="url(#ad7d1ef335)"><path stroke-linecap="round" transform="matrix(0.716526, 0, 0, 0.719361, 18.140113, -0.540886)" fill="none" stroke-linejoin="round" d="M 42.997876 4.998291 L 14.589329 4.998291 C 14.376715 4.998291 14.175003 5.041733 13.984196 5.123185 C 13.787936 5.199208 13.613484 5.318671 13.466289 5.465286 C 13.319094 5.617331 13.199158 5.785666 13.122835 5.981152 C 13.04106 6.176638 12.997447 6.377555 12.997447 6.589331 L 12.997447 57.589489 C 12.997447 57.801266 13.04106 58.002182 13.122835 58.197668 C 13.199158 58.393154 13.313643 58.56692 13.466289 58.718964 C 13.613484 58.865579 13.787936 58.985043 13.978744 59.066495 C 14.175003 59.147948 14.376715 59.191389 14.589329 59.191389 L 49.409016 59.191389 C 49.627082 59.191389 49.834245 59.147948 50.030504 59.061065 C 50.226764 58.974182 50.401217 58.854719 50.553863 58.702674 C 50.701057 58.545199 50.815542 58.366003 50.891865 58.165087 C 50.97364 57.964171 51.00635 57.757824 51.000898 57.540617 L 51.000898 13.002362 L 42.997876 13.002362 Z M 42.997876 4.998291 " stroke="#231f20" stroke-width="2" stroke-opacity="1" stroke-miterlimit="4"/></g><g clip-path="url(#db253b5dae)"><path stroke-linecap="round" transform="matrix(0.716526, 0, 0, 0.719361, 18.140113, -0.540886)" fill="none" stroke-linejoin="round" d="M 51.000898 13.002362 L 43.008779 13.002362 L 43.008779 5.009152 Z M 51.000898 13.002362 " stroke="#231f20" stroke-width="2" stroke-opacity="1" stroke-miterlimit="4"/></g><g clip-path="url(#072a1f5ff5)"><path fill="#231f20" d="M 27.453125 40.460938 C 27.257812 40.464844 27.085938 40.394531 26.945312 40.253906 L 23.363281 36.65625 C 23.140625 36.429688 23.089844 36.167969 23.214844 35.875 C 23.335938 35.578125 23.554688 35.429688 23.871094 35.425781 L 27.453125 35.425781 C 27.652344 35.425781 27.820312 35.496094 27.960938 35.636719 C 28.101562 35.777344 28.171875 35.949219 28.171875 36.148438 L 28.171875 39.742188 C 28.167969 40.0625 28.023438 40.285156 27.726562 40.40625 C 27.640625 40.445312 27.550781 40.464844 27.453125 40.460938 Z M 25.597656 36.867188 L 26.738281 38.007812 L 26.738281 36.867188 Z M 25.597656 36.867188 " fill-opacity="1" fill-rule="nonzero"/></g><path fill="#231f20" d="M 54.683594 40.460938 C 54.585938 40.464844 54.496094 40.445312 54.410156 40.40625 C 54.117188 40.285156 53.96875 40.0625 53.964844 39.742188 L 53.964844 36.148438 C 53.964844 35.949219 54.035156 35.777344 54.175781 35.636719 C 54.316406 35.496094 54.484375 35.425781 54.683594 35.425781 L 58.265625 35.425781 C 58.585938 35.429688 58.804688 35.578125 58.925781 35.875 C 59.046875 36.171875 58.992188 36.429688 58.765625 36.65625 L 55.183594 40.253906 C 55.046875 40.390625 54.878906 40.460938 54.683594 40.460938 Z M 55.398438 36.867188 L 55.398438 38.007812 L 56.539062 36.867188 Z M 55.398438 36.867188 " fill-opacity="1" fill-rule="nonzero"/><g clip-path="url(#a98fbdd16d)"><path fill="#9679a6" d="M 24.589844 23.199219 L 57.550781 23.199219 C 57.746094 23.199219 57.914062 23.269531 58.054688 23.410156 C 58.195312 23.550781 58.265625 23.71875 58.265625 23.917969 L 58.265625 36.148438 L 23.871094 36.148438 L 23.871094 23.917969 C 23.871094 23.71875 23.941406 23.550781 24.082031 23.410156 C 24.222656 23.269531 24.390625 23.199219 24.589844 23.199219 Z M 24.589844 23.199219 " fill-opacity="1" fill-rule="nonzero"/></g><g clip-path="url(#ce5dff8831)"><path fill="#231f20" d="M 58.265625 36.867188 L 23.871094 36.867188 C 23.675781 36.867188 23.503906 36.796875 23.367188 36.65625 C 23.226562 36.515625 23.15625 36.34375 23.15625 36.148438 L 23.15625 23.917969 C 23.15625 23.726562 23.191406 23.542969 23.265625 23.367188 C 23.335938 23.191406 23.441406 23.035156 23.574219 22.898438 C 23.710938 22.765625 23.863281 22.660156 24.039062 22.589844 C 24.214844 22.515625 24.398438 22.480469 24.589844 22.480469 L 57.550781 22.480469 C 57.738281 22.480469 57.921875 22.515625 58.097656 22.589844 C 58.273438 22.660156 58.429688 22.765625 58.5625 22.898438 C 58.695312 23.035156 58.800781 23.191406 58.871094 23.367188 C 58.945312 23.542969 58.980469 23.726562 58.980469 23.917969 L 58.980469 36.148438 C 58.980469 36.34375 58.914062 36.515625 58.773438 36.65625 C 58.632812 36.796875 58.464844 36.867188 58.265625 36.867188 Z M 24.589844 35.425781 L 57.550781 35.425781 L 57.550781 23.917969 L 24.589844 23.917969 Z M 24.589844 35.425781 " fill-opacity="1" fill-rule="nonzero"/></g><path fill="#ffffff" d="M 34.039062 26.664062 L 34.039062 30.6875 C 34.066406 30.945312 34.039062 31.199219 33.953125 31.449219 C 33.867188 31.695312 33.734375 31.914062 33.550781 32.097656 C 33.367188 32.285156 33.152344 32.421875 32.90625 32.511719 C 32.660156 32.601562 32.40625 32.632812 32.148438 32.605469 C 31.5625 32.636719 31.054688 32.457031 30.621094 32.058594 C 30.207031 31.621094 30.023438 31.097656 30.0625 30.492188 L 31.460938 30.492188 C 31.460938 31.046875 31.667969 31.320312 32.082031 31.320312 C 32.5 31.320312 32.621094 31.109375 32.621094 30.6875 L 32.621094 26.664062 Z M 34.039062 26.664062 " fill-opacity="1" fill-rule="nonzero"/><path fill="#ffffff" d="M 38.917969 31.75 C 38.742188 32.03125 38.503906 32.238281 38.203125 32.378906 C 37.847656 32.539062 37.476562 32.617188 37.085938 32.605469 C 36.492188 32.632812 35.949219 32.472656 35.464844 32.125 C 35.007812 31.796875 34.769531 31.347656 34.75 30.78125 L 36.253906 30.78125 C 36.265625 30.984375 36.34375 31.160156 36.492188 31.304688 C 36.636719 31.4375 36.808594 31.5 37.007812 31.492188 C 37.171875 31.503906 37.3125 31.453125 37.4375 31.339844 C 37.550781 31.234375 37.601562 31.101562 37.59375 30.945312 C 37.601562 30.800781 37.554688 30.675781 37.449219 30.570312 C 37.347656 30.464844 37.226562 30.382812 37.09375 30.328125 C 36.949219 30.261719 36.75 30.183594 36.496094 30.097656 C 36.1875 29.992188 35.882812 29.867188 35.585938 29.722656 C 35.339844 29.597656 35.136719 29.417969 34.976562 29.191406 C 34.796875 28.914062 34.714844 28.609375 34.726562 28.277344 C 34.722656 27.945312 34.808594 27.644531 34.992188 27.371094 C 35.175781 27.105469 35.414062 26.90625 35.710938 26.78125 C 36.050781 26.636719 36.40625 26.570312 36.777344 26.578125 C 37.351562 26.542969 37.871094 26.699219 38.332031 27.046875 C 38.738281 27.375 38.957031 27.800781 38.984375 28.328125 L 37.542969 28.328125 C 37.523438 28.148438 37.453125 27.992188 37.335938 27.859375 C 37.203125 27.742188 37.046875 27.6875 36.871094 27.695312 C 36.722656 27.6875 36.585938 27.730469 36.46875 27.824219 C 36.359375 27.933594 36.308594 28.0625 36.320312 28.21875 C 36.316406 28.355469 36.359375 28.472656 36.453125 28.570312 C 36.554688 28.671875 36.671875 28.75 36.796875 28.808594 L 37.394531 29.039062 C 37.710938 29.140625 38.019531 29.269531 38.316406 29.421875 C 38.5625 29.550781 38.765625 29.730469 38.925781 29.960938 C 39.113281 30.242188 39.199219 30.554688 39.183594 30.894531 C 39.179688 31.207031 39.089844 31.492188 38.917969 31.75 Z M 38.917969 31.75 " fill-opacity="1" fill-rule="nonzero"/><path fill="#ffffff" d="M 44.257812 26.96875 C 44.714844 27.222656 45.070312 27.578125 45.324219 28.039062 C 45.585938 28.523438 45.714844 29.042969 45.714844 29.59375 C 45.714844 30.144531 45.585938 30.660156 45.324219 31.148438 C 45.070312 31.605469 44.714844 31.960938 44.257812 32.21875 C 43.792969 32.476562 43.292969 32.605469 42.761719 32.605469 C 42.230469 32.605469 41.734375 32.476562 41.269531 32.21875 C 40.8125 31.960938 40.457031 31.601562 40.195312 31.148438 C 39.925781 30.660156 39.796875 30.140625 39.808594 29.585938 C 39.796875 29.035156 39.925781 28.519531 40.195312 28.039062 C 40.453125 27.582031 40.8125 27.222656 41.269531 26.96875 C 41.730469 26.703125 42.226562 26.574219 42.761719 26.578125 C 43.292969 26.574219 43.792969 26.703125 44.257812 26.96875 Z M 41.648438 28.355469 C 41.378906 28.71875 41.242188 29.128906 41.242188 29.585938 C 41.242188 30.042969 41.378906 30.453125 41.648438 30.816406 C 41.796875 30.964844 41.964844 31.078125 42.15625 31.15625 C 42.347656 31.238281 42.546875 31.277344 42.753906 31.277344 C 42.960938 31.277344 43.160156 31.238281 43.351562 31.15625 C 43.542969 31.078125 43.710938 30.964844 43.855469 30.816406 C 44.160156 30.460938 44.296875 30.050781 44.273438 29.585938 C 44.292969 29.121094 44.15625 28.710938 43.863281 28.355469 C 43.714844 28.210938 43.546875 28.097656 43.355469 28.019531 C 43.164062 27.941406 42.964844 27.902344 42.757812 27.902344 C 42.550781 27.902344 42.351562 27.941406 42.160156 28.019531 C 41.96875 28.097656 41.796875 28.210938 41.648438 28.355469 Z M 41.648438 28.355469 " fill-opacity="1" fill-rule="nonzero"/><path fill="#ffffff" d="M 51.710938 32.550781 L 50.277344 32.550781 L 47.90625 28.953125 L 47.90625 32.550781 L 46.472656 32.550781 L 46.472656 26.664062 L 47.90625 26.664062 L 50.277344 30.3125 L 50.277344 26.664062 L 51.710938 26.664062 Z M 51.710938 32.550781 " fill-opacity="1" fill-rule="nonzero"/><path fill="#9679a6" d="M 38.109375 15.945312 L 38.917969 15.945312 C 39.007812 15.945312 39.085938 15.976562 39.148438 16.042969 C 39.210938 16.105469 39.242188 16.179688 39.242188 16.269531 L 39.242188 17.054688 C 39.242188 17.144531 39.210938 17.21875 39.148438 17.285156 C 39.085938 17.347656 39.007812 17.378906 38.917969 17.378906 L 38.109375 17.378906 C 38.019531 17.378906 37.945312 17.347656 37.882812 17.285156 C 37.820312 17.21875 37.789062 17.144531 37.789062 17.054688 L 37.789062 16.269531 C 37.789062 16.179688 37.820312 16.105469 37.882812 16.042969 C 37.945312 15.976562 38.019531 15.945312 38.109375 15.945312 Z M 38.109375 15.945312 " fill-opacity="1" fill-rule="nonzero"/><path fill="#9679a6" d="M 40.660156 15.945312 L 41.476562 15.945312 C 41.5625 15.945312 41.640625 15.976562 41.699219 16.039062 C 41.761719 16.101562 41.792969 16.175781 41.792969 16.261719 L 41.792969 17.0625 C 41.792969 17.148438 41.761719 17.222656 41.699219 17.285156 C 41.640625 17.347656 41.5625 17.378906 41.476562 17.378906 L 40.660156 17.378906 C 40.574219 17.378906 40.5 17.347656 40.4375 17.285156 C 40.375 17.222656 40.34375 17.148438 40.34375 17.0625 L 40.34375 16.261719 C 40.34375 16.175781 40.375 16.101562 40.4375 16.039062 C 40.5 15.976562 40.574219 15.945312 40.660156 15.945312 Z M 40.660156 15.945312 " fill-opacity="1" fill-rule="nonzero"/><path fill="#9679a6" d="M 43.21875 15.945312 L 44.027344 15.945312 C 44.117188 15.945312 44.191406 15.976562 44.25 16.039062 C 44.3125 16.101562 44.34375 16.175781 44.34375 16.261719 L 44.34375 17.0625 C 44.34375 17.148438 44.3125 17.222656 44.25 17.285156 C 44.191406 17.347656 44.117188 17.378906 44.027344 17.378906 L 43.21875 17.378906 C 43.132812 17.378906 43.058594 17.347656 42.996094 17.285156 C 42.933594 17.222656 42.902344 17.148438 42.902344 17.0625 L 42.902344 16.269531 C 42.902344 16.183594 42.933594 16.105469 42.996094 16.042969 C 43.054688 15.980469 43.132812 15.949219 43.21875 15.945312 Z M 43.21875 15.945312 " fill-opacity="1" fill-rule="nonzero"/><path fill="#9679a6" d="M 34.898438 14.867188 C 35.128906 15 35.324219 15.171875 35.480469 15.386719 C 35.632812 15.601562 35.730469 15.84375 35.773438 16.105469 C 35.835938 16.480469 35.867188 16.859375 35.859375 17.242188 C 35.859375 17.585938 35.859375 17.839844 35.859375 18.003906 C 35.867188 18.136719 35.898438 18.257812 35.953125 18.378906 C 35.988281 18.453125 36.046875 18.511719 36.125 18.542969 C 36.234375 18.585938 36.347656 18.609375 36.460938 18.621094 C 36.601562 18.636719 36.710938 18.703125 36.792969 18.816406 C 36.882812 18.949219 36.925781 19.09375 36.921875 19.257812 C 36.921875 19.679688 36.667969 19.890625 36.152344 19.890625 C 35.867188 19.890625 35.59375 19.828125 35.335938 19.703125 C 35.085938 19.570312 34.894531 19.378906 34.757812 19.132812 C 34.617188 18.875 34.546875 18.59375 34.546875 18.300781 C 34.546875 17.765625 34.546875 17.34375 34.546875 17.019531 C 34.546875 16.8125 34.527344 16.605469 34.5 16.398438 C 34.464844 16.203125 34.390625 16.027344 34.269531 15.867188 C 34.152344 15.738281 34.019531 15.625 33.867188 15.535156 C 33.734375 15.460938 33.617188 15.367188 33.515625 15.257812 C 33.433594 15.140625 33.394531 15.011719 33.410156 14.867188 C 33.394531 14.613281 33.496094 14.421875 33.710938 14.285156 C 33.902344 14.167969 34.082031 14.035156 34.246094 13.882812 C 34.359375 13.761719 34.433594 13.621094 34.46875 13.457031 C 34.515625 13.269531 34.542969 13.082031 34.546875 12.890625 C 34.546875 12.6875 34.546875 12.171875 34.546875 11.414062 C 34.539062 10.964844 34.691406 10.582031 35.007812 10.265625 C 35.339844 9.953125 35.730469 9.8125 36.183594 9.832031 C 36.699219 9.832031 36.949219 10.035156 36.949219 10.449219 C 36.957031 10.613281 36.917969 10.761719 36.828125 10.898438 C 36.742188 11.007812 36.628906 11.070312 36.492188 11.082031 C 36.339844 11.09375 36.199219 11.136719 36.066406 11.214844 C 35.972656 11.300781 35.921875 11.410156 35.910156 11.539062 C 35.910156 11.695312 35.875 12.011719 35.867188 12.472656 C 35.863281 12.84375 35.839844 13.210938 35.789062 13.582031 C 35.746094 13.839844 35.652344 14.078125 35.507812 14.300781 C 35.347656 14.53125 35.144531 14.722656 34.898438 14.867188 Z M 34.898438 14.867188 " fill-opacity="1" fill-rule="nonzero"/><path fill="#9679a6" d="M 46.636719 14.3125 C 46.492188 14.09375 46.398438 13.855469 46.355469 13.59375 C 46.308594 13.226562 46.28125 12.859375 46.277344 12.488281 C 46.277344 12.027344 46.277344 11.710938 46.234375 11.550781 C 46.226562 11.421875 46.171875 11.316406 46.078125 11.226562 C 45.945312 11.152344 45.804688 11.109375 45.65625 11.097656 C 45.515625 11.085938 45.402344 11.023438 45.316406 10.910156 C 45.226562 10.777344 45.1875 10.628906 45.195312 10.464844 C 45.195312 10.046875 45.445312 9.847656 45.960938 9.847656 C 46.414062 9.824219 46.804688 9.96875 47.136719 10.277344 C 47.453125 10.597656 47.605469 10.980469 47.597656 11.429688 C 47.597656 12.214844 47.597656 12.703125 47.597656 12.902344 C 47.601562 13.097656 47.628906 13.285156 47.675781 13.472656 C 47.710938 13.632812 47.785156 13.777344 47.898438 13.898438 C 48.0625 14.050781 48.242188 14.183594 48.433594 14.300781 C 48.648438 14.433594 48.75 14.628906 48.734375 14.882812 C 48.75 15.023438 48.714844 15.15625 48.628906 15.269531 C 48.527344 15.382812 48.410156 15.476562 48.277344 15.550781 C 48.125 15.640625 47.992188 15.75 47.875 15.882812 C 47.757812 16.039062 47.679688 16.21875 47.648438 16.414062 C 47.617188 16.621094 47.601562 16.824219 47.597656 17.03125 C 47.597656 17.355469 47.597656 17.753906 47.597656 18.3125 C 47.597656 18.609375 47.527344 18.886719 47.390625 19.148438 C 47.25 19.394531 47.058594 19.585938 46.808594 19.714844 C 46.542969 19.851562 46.261719 19.914062 45.960938 19.910156 C 45.445312 19.910156 45.195312 19.703125 45.195312 19.277344 C 45.191406 19.117188 45.234375 18.96875 45.324219 18.839844 C 45.40625 18.722656 45.515625 18.660156 45.65625 18.644531 C 45.769531 18.632812 45.882812 18.605469 45.992188 18.566406 C 46.070312 18.53125 46.125 18.476562 46.164062 18.398438 C 46.21875 18.28125 46.25 18.15625 46.257812 18.027344 C 46.257812 17.859375 46.257812 17.609375 46.257812 17.261719 C 46.25 16.882812 46.277344 16.503906 46.34375 16.125 C 46.386719 15.863281 46.484375 15.625 46.636719 15.40625 C 46.792969 15.195312 46.988281 15.019531 47.214844 14.890625 C 46.984375 14.738281 46.789062 14.546875 46.636719 14.3125 Z M 46.636719 14.3125 " fill-opacity="1" fill-rule="nonzero"/></svg>