<svg xmlns="http://www.w3.org/2000/svg" xmlns:xlink="http://www.w3.org/1999/xlink" width="110" zoomAndPan="magnify" viewBox="0 0 82.5 44.999999" height="60" preserveAspectRatio="xMidYMid meet" version="1.0"><defs><clipPath id="10f6cf6206"><path d="M 0 0.136719 L 82.003906 0.136719 L 82.003906 44.863281 L 0 44.863281 Z M 0 0.136719 " clip-rule="nonzero"/></clipPath><clipPath id="be878474fa"><path d="M 25.953125 9 L 56.703125 9 L 56.703125 44.566406 L 25.953125 44.566406 Z M 25.953125 9 " clip-rule="nonzero"/></clipPath><clipPath id="ff57d2c95f"><path d="M 28 1.066406 L 35 1.066406 L 35 7 L 28 7 Z M 28 1.066406 " clip-rule="nonzero"/></clipPath><clipPath id="56fb730f12"><path d="M 35 1.066406 L 41 1.066406 L 41 7 L 35 7 Z M 35 1.066406 " clip-rule="nonzero"/></clipPath><clipPath id="8f92d32a63"><path d="M 41 1.066406 L 49 1.066406 L 49 7 L 41 7 Z M 41 1.066406 " clip-rule="nonzero"/></clipPath><clipPath id="bc73d984aa"><path d="M 49 1.066406 L 54 1.066406 L 54 7 L 49 7 Z M 49 1.066406 " clip-rule="nonzero"/></clipPath></defs><g clip-path="url(#10f6cf6206)"><path fill="#ffffff" d="M 0 0.136719 L 82.5 0.136719 L 82.5 52.636719 L 0 52.636719 Z M 0 0.136719 " fill-opacity="1" fill-rule="nonzero"/><path fill="#ffffff" d="M 0 0.136719 L 82.5 0.136719 L 82.5 45.136719 L 0 45.136719 Z M 0 0.136719 " fill-opacity="1" fill-rule="nonzero"/><path fill="#ffffff" d="M 0 0.136719 L 82.5 0.136719 L 82.5 45.136719 L 0 45.136719 Z M 0 0.136719 " fill-opacity="1" fill-rule="nonzero"/></g><g clip-path="url(#be878474fa)"><path fill="#e44d26" d="M 56.699219 9.613281 L 53.898438 41.066406 L 41.316406 44.5625 L 28.769531 41.070312 L 25.972656 9.613281 Z M 56.699219 9.613281 " fill-opacity="1" fill-rule="nonzero"/></g><path fill="#f16529" d="M 41.335938 41.890625 L 51.503906 39.0625 L 53.894531 12.1875 L 41.335938 12.1875 Z M 41.335938 41.890625 " fill-opacity="1" fill-rule="nonzero"/><path fill="#ebebeb" d="M 35.894531 19.902344 L 41.335938 19.902344 L 41.335938 16.042969 L 31.691406 16.042969 L 31.785156 17.078125 L 32.730469 27.710938 L 41.335938 27.710938 L 41.335938 23.851562 L 36.246094 23.851562 Z M 35.894531 19.902344 " fill-opacity="1" fill-rule="nonzero"/><path fill="#ebebeb" d="M 36.761719 29.640625 L 32.902344 29.640625 L 33.4375 35.699219 L 41.316406 37.890625 L 41.335938 37.886719 L 41.335938 33.871094 L 41.320312 33.878906 L 37.035156 32.714844 Z M 36.761719 29.640625 " fill-opacity="1" fill-rule="nonzero"/><g clip-path="url(#ff57d2c95f)"><path fill="#000000" d="M 28.832031 1.066406 L 30.789062 1.066406 L 30.789062 3.003906 L 32.574219 3.003906 L 32.574219 1.066406 L 34.53125 1.066406 L 34.53125 6.929688 L 32.574219 6.929688 L 32.574219 4.96875 L 30.789062 4.96875 L 30.789062 6.929688 L 28.832031 6.929688 Z M 28.832031 1.066406 " fill-opacity="1" fill-rule="nonzero"/></g><g clip-path="url(#56fb730f12)"><path fill="#000000" d="M 37.101562 3.011719 L 35.378906 3.011719 L 35.378906 1.066406 L 40.777344 1.066406 L 40.777344 3.011719 L 39.054688 3.011719 L 39.054688 6.929688 L 37.101562 6.929688 Z M 37.101562 3.011719 " fill-opacity="1" fill-rule="nonzero"/></g><g clip-path="url(#8f92d32a63)"><path fill="#000000" d="M 41.632812 1.066406 L 43.671875 1.066406 L 44.925781 3.125 L 46.175781 1.066406 L 48.214844 1.066406 L 48.214844 6.929688 L 46.269531 6.929688 L 46.269531 4.023438 L 44.925781 6.109375 L 44.890625 6.109375 L 43.546875 4.023438 L 43.546875 6.929688 L 41.632812 6.929688 Z M 41.632812 1.066406 " fill-opacity="1" fill-rule="nonzero"/></g><g clip-path="url(#bc73d984aa)"><path fill="#000000" d="M 49.191406 1.066406 L 51.144531 1.066406 L 51.144531 4.992188 L 53.894531 4.992188 L 53.894531 6.929688 L 49.191406 6.929688 Z M 49.191406 1.066406 " fill-opacity="1" fill-rule="nonzero"/></g><path fill="#ffffff" d="M 41.324219 27.710938 L 46.058594 27.710938 L 45.613281 32.714844 L 41.324219 33.875 L 41.324219 37.890625 L 49.207031 35.699219 L 49.265625 35.046875 L 50.167969 24.886719 L 50.265625 23.851562 L 41.324219 23.851562 Z M 41.324219 27.710938 " fill-opacity="1" fill-rule="nonzero"/><path fill="#ffffff" d="M 41.324219 19.890625 L 41.324219 19.902344 L 50.613281 19.902344 L 50.691406 19.035156 L 50.867188 17.078125 L 50.957031 16.042969 L 41.324219 16.042969 Z M 41.324219 19.890625 " fill-opacity="1" fill-rule="nonzero"/></svg>