<svg xmlns="http://www.w3.org/2000/svg" xmlns:xlink="http://www.w3.org/1999/xlink" width="110" zoomAndPan="magnify" viewBox="0 0 82.5 44.999999" height="60" preserveAspectRatio="xMidYMid meet" version="1.0"><defs><clipPath id="5e31497d81"><path d="M 0 0.136719 L 82.003906 0.136719 L 82.003906 44.863281 L 0 44.863281 Z M 0 0.136719 " clip-rule="nonzero"/></clipPath><clipPath id="cad95345b2"><path d="M 2.183594 32 L 67 32 L 67 42.425781 L 2.183594 42.425781 Z M 2.183594 32 " clip-rule="nonzero"/></clipPath><clipPath id="484cd4e337"><path d="M 67 34 L 74 34 L 74 42.425781 L 67 42.425781 Z M 67 34 " clip-rule="nonzero"/></clipPath><clipPath id="0d5c1eaad4"><path d="M 74 34 L 80.183594 34 L 80.183594 42.425781 L 74 42.425781 Z M 74 34 " clip-rule="nonzero"/></clipPath><clipPath id="d54a5a0477"><path d="M 27 2.675781 L 55 2.675781 L 55 30 L 27 30 Z M 27 2.675781 " clip-rule="nonzero"/></clipPath></defs><g clip-path="url(#5e31497d81)"><path fill="#ffffff" d="M 0 0.136719 L 82.5 0.136719 L 82.5 52.636719 L 0 52.636719 Z M 0 0.136719 " fill-opacity="1" fill-rule="nonzero"/><path fill="#ffffff" d="M 0 0.136719 L 82.5 0.136719 L 82.5 45.136719 L 0 45.136719 Z M 0 0.136719 " fill-opacity="1" fill-rule="nonzero"/><path fill="#ffffff" d="M 0 0.136719 L 82.5 0.136719 L 82.5 45.136719 L 0 45.136719 Z M 0 0.136719 " fill-opacity="1" fill-rule="nonzero"/></g><g clip-path="url(#cad95345b2)"><path fill="#00749a" d="M 37.226562 34.613281 L 33.207031 34.613281 L 33.207031 35.03125 C 34.460938 35.03125 34.671875 35.292969 34.671875 36.871094 L 34.671875 39.710938 C 34.671875 41.300781 34.460938 41.589844 33.207031 41.589844 C 32.242188 41.464844 31.574219 40.921875 30.691406 39.960938 L 29.644531 38.832031 C 31.027344 38.574219 31.78125 37.703125 31.78125 36.746094 C 31.78125 35.535156 30.734375 34.574219 28.765625 34.574219 L 24.832031 34.574219 L 24.832031 34.988281 C 26.085938 34.988281 26.296875 35.25 26.296875 36.828125 L 26.296875 39.667969 C 26.296875 41.257812 26.085938 41.546875 24.832031 41.546875 L 24.832031 41.964844 L 29.269531 41.964844 L 29.269531 41.546875 C 28.015625 41.546875 27.804688 41.253906 27.804688 39.667969 L 27.804688 38.875 L 28.183594 38.875 L 30.652344 41.964844 L 37.183594 41.964844 C 40.410156 41.964844 41.792969 40.253906 41.792969 38.246094 C 41.832031 36.285156 40.453125 34.613281 37.226562 34.613281 Z M 27.847656 38.25 L 27.847656 35.292969 L 28.769531 35.292969 C 29.773438 35.292969 30.234375 36.003906 30.234375 36.796875 C 30.234375 37.589844 29.773438 38.257812 28.769531 38.257812 Z M 37.308594 41.339844 L 37.140625 41.339844 C 36.347656 41.339844 36.21875 41.128906 36.21875 40.128906 L 36.21875 35.285156 L 37.308594 35.285156 C 39.652344 35.285156 40.070312 36.996094 40.070312 38.292969 C 40.070312 39.667969 39.609375 41.339844 37.308594 41.339844 Z M 12.351562 39.09375 L 13.902344 34.539062 C 14.363281 33.203125 14.160156 32.828125 12.726562 32.828125 L 12.726562 32.367188 L 16.957031 32.367188 L 16.957031 32.828125 C 15.53125 32.828125 15.199219 33.164062 14.652344 34.792969 L 12.097656 42.425781 L 11.761719 42.425781 L 9.460938 35.449219 L 7.15625 42.425781 L 6.863281 42.425781 L 4.390625 34.78125 C 3.847656 33.152344 3.523438 32.820312 2.214844 32.820312 L 2.214844 32.359375 L 7.15625 32.359375 L 7.15625 32.820312 C 5.816406 32.820312 5.480469 33.113281 5.941406 34.53125 L 7.449219 39.085938 L 9.710938 32.359375 L 10.128906 32.359375 Z M 19.972656 42.351562 C 17.5 42.351562 15.492188 40.554688 15.492188 38.34375 C 15.492188 36.171875 17.492188 34.332031 19.972656 34.332031 C 22.453125 34.332031 24.453125 36.128906 24.453125 38.34375 C 24.453125 40.554688 22.453125 42.351562 19.972656 42.351562 Z M 19.972656 35 C 17.921875 35 17.207031 36.839844 17.207031 38.300781 C 17.207031 39.761719 17.921875 41.601562 19.972656 41.601562 C 22.066406 41.601562 22.777344 39.761719 22.777344 38.300781 C 22.777344 36.882812 22.066406 35 19.972656 35 Z M 47.359375 41.601562 L 47.359375 42.058594 L 42.207031 42.058594 L 42.207031 41.601562 C 43.714844 41.601562 43.964844 41.222656 43.964844 38.96875 L 43.964844 35.375 C 43.964844 33.117188 43.703125 32.785156 42.207031 32.785156 L 42.207031 32.324219 L 46.855469 32.324219 C 49.160156 32.324219 50.457031 33.496094 50.457031 35.082031 C 50.457031 36.625 49.160156 37.839844 46.855469 37.839844 L 45.597656 37.839844 L 45.597656 39.007812 C 45.597656 41.222656 45.859375 41.597656 47.355469 41.597656 Z M 46.855469 33.164062 L 45.597656 33.164062 L 45.597656 37.046875 L 46.855469 37.046875 C 48.113281 37.046875 48.699219 36.179688 48.699219 35.125 C 48.699219 34.070312 48.113281 33.164062 46.855469 33.164062 Z M 65.824219 39.96875 L 65.699219 40.386719 C 65.492188 41.136719 65.238281 41.390625 63.648438 41.390625 L 63.355469 41.390625 C 62.183594 41.390625 61.972656 41.128906 61.972656 39.550781 L 61.972656 38.507812 C 63.730469 38.507812 63.859375 38.675781 63.859375 39.84375 L 64.277344 39.84375 L 64.277344 36.503906 L 63.859375 36.503906 C 63.859375 37.671875 63.734375 37.839844 61.972656 37.839844 L 61.972656 35.335938 L 63.1875 35.335938 C 64.78125 35.335938 65.03125 35.597656 65.238281 36.339844 L 65.363281 36.753906 L 65.742188 36.753906 L 65.574219 34.667969 L 59 34.667969 L 59 35.082031 C 60.257812 35.082031 60.464844 35.34375 60.464844 36.921875 L 60.464844 39.761719 C 60.464844 41.222656 60.296875 41.601562 59.292969 41.640625 C 58.371094 41.515625 57.699219 40.972656 56.820312 40.011719 L 55.773438 38.882812 C 57.15625 38.625 57.910156 37.757812 57.910156 36.796875 C 57.910156 35.585938 56.863281 34.625 54.894531 34.625 L 50.960938 34.625 L 50.960938 35.039062 C 52.214844 35.039062 52.425781 35.300781 52.425781 36.878906 L 52.425781 39.71875 C 52.425781 41.308594 52.214844 41.597656 50.960938 41.597656 L 50.960938 42.015625 L 55.398438 42.015625 L 55.398438 41.597656 C 54.140625 41.597656 53.933594 41.308594 53.933594 39.71875 L 53.933594 38.925781 L 54.308594 38.925781 L 56.78125 42.015625 L 65.992188 42.015625 L 66.117188 39.925781 L 65.824219 39.925781 Z M 53.976562 38.257812 L 53.976562 35.292969 L 54.898438 35.292969 C 55.902344 35.292969 56.363281 36.003906 56.363281 36.796875 C 56.363281 37.589844 55.902344 38.257812 54.898438 38.257812 Z M 53.976562 38.257812 " fill-opacity="1" fill-rule="nonzero"/></g><g clip-path="url(#484cd4e337)"><path fill="#00749a" d="M 70.390625 42.351562 C 69.511719 42.351562 68.714844 41.890625 68.386719 41.601562 C 68.261719 41.726562 68.09375 42.0625 68.011719 42.351562 L 67.59375 42.351562 L 67.59375 39.261719 L 68.054688 39.261719 C 68.222656 40.722656 69.269531 41.601562 70.566406 41.601562 C 71.28125 41.601562 71.867188 41.183594 71.867188 40.515625 C 71.867188 39.933594 71.363281 39.472656 70.441406 39.054688 L 69.1875 38.46875 C 68.308594 38.054688 67.636719 37.300781 67.636719 36.339844 C 67.636719 35.253906 68.640625 34.34375 70.023438 34.34375 C 70.777344 34.34375 71.40625 34.59375 71.78125 34.929688 C 71.90625 34.84375 71.992188 34.59375 72.074219 34.34375 L 72.492188 34.34375 L 72.492188 36.976562 L 72.03125 36.976562 C 71.863281 35.929688 71.277344 35.054688 70.105469 35.054688 C 69.476562 35.054688 68.890625 35.429688 68.890625 35.972656 C 68.890625 36.558594 69.351562 36.851562 70.4375 37.351562 L 71.652344 37.9375 C 72.742188 38.4375 73.160156 39.273438 73.160156 39.933594 C 73.121094 41.351562 71.90625 42.355469 70.398438 42.355469 Z M 70.390625 42.351562 " fill-opacity="1" fill-rule="nonzero"/></g><g clip-path="url(#0d5c1eaad4)"><path fill="#00749a" d="M 77.300781 42.351562 C 76.421875 42.351562 75.625 41.890625 75.296875 41.601562 C 75.171875 41.726562 75.003906 42.0625 74.921875 42.351562 L 74.503906 42.351562 L 74.503906 39.261719 L 74.964844 39.261719 C 75.132812 40.722656 76.179688 41.601562 77.476562 41.601562 C 78.191406 41.601562 78.777344 41.183594 78.777344 40.515625 C 78.777344 39.933594 78.273438 39.472656 77.351562 39.054688 L 76.097656 38.46875 C 75.21875 38.054688 74.546875 37.300781 74.546875 36.339844 C 74.546875 35.253906 75.550781 34.34375 76.933594 34.34375 C 77.6875 34.34375 78.316406 34.59375 78.691406 34.929688 C 78.816406 34.84375 78.898438 34.59375 78.984375 34.34375 L 79.402344 34.34375 L 79.402344 36.976562 L 78.941406 36.976562 C 78.773438 35.929688 78.1875 35.054688 77.015625 35.054688 C 76.386719 35.054688 75.800781 35.429688 75.800781 35.972656 C 75.800781 36.558594 76.261719 36.851562 77.347656 37.351562 L 78.5625 37.9375 C 79.652344 38.4375 80.070312 39.273438 80.070312 39.933594 C 80.03125 41.351562 78.816406 42.355469 77.308594 42.355469 Z M 77.300781 42.351562 " fill-opacity="1" fill-rule="nonzero"/></g><g clip-path="url(#d54a5a0477)"><path fill="#00749a" d="M 29.660156 16.027344 C 29.660156 20.570312 32.273438 24.484375 36.101562 26.324219 L 30.675781 11.390625 C 30.046875 12.839844 29.660156 14.386719 29.660156 16.03125 Z M 48.890625 15.449219 C 48.890625 14.046875 48.359375 13.03125 47.921875 12.304688 C 47.34375 11.339844 46.808594 10.566406 46.808594 9.597656 C 46.808594 8.535156 47.632812 7.570312 48.746094 7.570312 L 48.890625 7.570312 C 46.855469 5.6875 44.144531 4.574219 41.148438 4.574219 C 37.128906 4.621094 33.640625 6.652344 31.558594 9.746094 L 32.28125 9.746094 C 33.496094 9.746094 35.335938 9.601562 35.335938 9.601562 C 35.964844 9.550781 36.015625 10.46875 35.421875 10.566406 C 35.421875 10.566406 34.792969 10.652344 34.113281 10.652344 L 38.289062 23.027344 L 40.808594 15.535156 L 39.015625 10.65625 L 37.804688 10.566406 C 37.175781 10.519531 37.273438 9.601562 37.855469 9.601562 C 37.855469 9.601562 39.746094 9.746094 40.859375 9.746094 C 42.070312 9.746094 43.910156 9.601562 43.910156 9.601562 C 44.539062 9.550781 44.589844 10.472656 43.996094 10.566406 C 43.996094 10.566406 43.367188 10.65625 42.691406 10.65625 L 46.867188 22.980469 L 48.027344 19.160156 C 48.511719 17.566406 48.898438 16.453125 48.898438 15.4375 Z M 41.335938 17.042969 L 37.894531 27 C 38.914062 27.289062 40.027344 27.484375 41.140625 27.484375 C 42.496094 27.484375 43.757812 27.242188 44.96875 26.855469 C 44.917969 26.804688 44.917969 26.765625 44.882812 26.710938 Z M 51.21875 10.570312 L 51.304688 11.730469 C 51.304688 12.890625 51.109375 14.195312 50.433594 15.835938 L 46.953125 25.9375 C 50.34375 23.957031 52.667969 20.28125 52.667969 16.03125 C 52.621094 14.046875 52.089844 12.210938 51.214844 10.570312 Z M 41.140625 2.691406 C 33.777344 2.691406 27.769531 8.683594 27.769531 16.027344 C 27.769531 23.375 33.777344 29.367188 41.140625 29.367188 C 48.503906 29.367188 54.511719 23.375 54.511719 16.027344 C 54.511719 8.683594 48.503906 2.691406 41.140625 2.691406 Z M 41.140625 28.785156 C 34.117188 28.785156 28.398438 23.085938 28.398438 16.027344 C 28.398438 9.011719 34.117188 3.320312 41.140625 3.320312 C 48.164062 3.320312 53.882812 9.019531 53.882812 16.027344 C 53.882812 23.085938 48.164062 28.785156 41.140625 28.785156 Z M 41.140625 28.785156 " fill-opacity="1" fill-rule="nonzero"/></g></svg>