<svg xmlns="http://www.w3.org/2000/svg" xmlns:xlink="http://www.w3.org/1999/xlink" width="110" zoomAndPan="magnify" viewBox="0 0 82.5 44.999999" height="60" preserveAspectRatio="xMidYMid meet" version="1.0"><defs><clipPath id="4e0539e2d8"><path d="M 0 0.136719 L 82.003906 0.136719 L 82.003906 44.863281 L 0 44.863281 Z M 0 0.136719 " clip-rule="nonzero"/></clipPath><clipPath id="8c3379dbf7"><path d="M 19.804688 1.890625 L 62.554688 1.890625 L 62.554688 43.140625 L 19.804688 43.140625 Z M 19.804688 1.890625 " clip-rule="nonzero"/></clipPath></defs><g clip-path="url(#4e0539e2d8)"><path fill="#ffffff" d="M 0 0.136719 L 82.5 0.136719 L 82.5 52.636719 L 0 52.636719 Z M 0 0.136719 " fill-opacity="1" fill-rule="nonzero"/><path fill="#ffffff" d="M 0 0.136719 L 82.5 0.136719 L 82.5 45.136719 L 0 45.136719 Z M 0 0.136719 " fill-opacity="1" fill-rule="nonzero"/><path fill="#ffffff" d="M 0 0.136719 L 82.5 0.136719 L 82.5 45.136719 L 0 45.136719 Z M 0 0.136719 " fill-opacity="1" fill-rule="nonzero"/></g><path fill="#261300" d="M 21.742188 3.65625 L 60.617188 3.65625 L 60.617188 41.378906 L 21.742188 41.378906 Z M 21.742188 3.65625 " fill-opacity="1" fill-rule="nonzero"/><g clip-path="url(#8c3379dbf7)"><path fill="#ff7c00" d="M 19.976562 1.890625 L 19.976562 43.140625 L 62.382812 43.140625 L 62.382812 1.890625 Z M 21.742188 3.65625 L 60.617188 3.65625 L 60.617188 41.378906 L 21.742188 41.378906 Z M 34.695312 25.25 L 33.296875 30.539062 C 33.261719 30.679688 33.210938 30.714844 33.03125 30.714844 L 30.433594 30.714844 C 30.257812 30.714844 30.222656 30.660156 30.257812 30.449219 L 35.277344 12.925781 C 35.363281 12.609375 35.417969 12.328125 35.453125 11.464844 C 35.453125 11.339844 35.507812 11.289062 35.59375 11.289062 L 39.304688 11.289062 C 39.429688 11.289062 39.484375 11.324219 39.515625 11.464844 L 45.136719 30.484375 C 45.171875 30.625 45.136719 30.714844 44.996094 30.714844 L 42.0625 30.714844 C 41.921875 30.714844 41.832031 30.679688 41.796875 30.554688 L 40.332031 25.25 Z M 39.605469 22.394531 L 37.503906 14.109375 L 37.46875 14.109375 C 37.097656 16.171875 36.160156 19.660156 35.417969 22.394531 Z M 47.558594 12.589844 C 47.558594 11.464844 48.351562 10.792969 49.359375 10.792969 C 50.4375 10.792969 51.164062 11.515625 51.164062 12.589844 C 51.164062 13.753906 50.402344 14.390625 49.324219 14.390625 C 48.300781 14.390625 47.558594 13.753906 47.558594 12.589844 Z M 47.769531 16.59375 C 47.769531 16.453125 47.824219 16.382812 47.980469 16.382812 L 50.757812 16.382812 C 50.898438 16.382812 50.96875 16.433594 50.96875 16.59375 L 50.96875 30.5 C 50.96875 30.644531 50.933594 30.714844 50.757812 30.714844 L 48.019531 30.714844 C 47.839844 30.714844 47.789062 30.625 47.789062 30.484375 L 47.789062 16.59375 Z M 47.769531 16.59375 " fill-opacity="1" fill-rule="nonzero"/></g></svg>