<svg xmlns="http://www.w3.org/2000/svg" xmlns:xlink="http://www.w3.org/1999/xlink" width="110" zoomAndPan="magnify" viewBox="0 0 82.5 44.999999" height="60" preserveAspectRatio="xMidYMid meet" version="1.0"><defs><clipPath id="7108c8b5c5"><path d="M 0 0.136719 L 82.003906 0.136719 L 82.003906 44.863281 L 0 44.863281 Z M 0 0.136719 " clip-rule="nonzero"/></clipPath><clipPath id="42ac91e06c"><path d="M 68 19 L 80.609375 19 L 80.609375 33.820312 L 68 33.820312 Z M 68 19 " clip-rule="nonzero"/></clipPath><clipPath id="a0ad1f4569"><path d="M 1.859375 11.320312 L 64 11.320312 L 64 33.820312 L 1.859375 33.820312 Z M 1.859375 11.320312 " clip-rule="nonzero"/></clipPath><clipPath id="05590fef64"><path d="M 18 19 L 59 19 L 59 33.820312 L 18 33.820312 Z M 18 19 " clip-rule="nonzero"/></clipPath></defs><g clip-path="url(#7108c8b5c5)"><path fill="#ffffff" d="M 0 0.136719 L 82.5 0.136719 L 82.5 52.636719 L 0 52.636719 Z M 0 0.136719 " fill-opacity="1" fill-rule="nonzero"/><path fill="#ffffff" d="M 0 0.136719 L 82.5 0.136719 L 82.5 45.136719 L 0 45.136719 Z M 0 0.136719 " fill-opacity="1" fill-rule="nonzero"/><path fill="#ffffff" d="M 0 0.136719 L 82.5 0.136719 L 82.5 45.136719 L 0 45.136719 Z M 0 0.136719 " fill-opacity="1" fill-rule="nonzero"/></g><g clip-path="url(#42ac91e06c)"><path fill="#83cd29" d="M 74.308594 19.324219 C 74.113281 19.324219 73.929688 19.363281 73.761719 19.453125 L 68.542969 22.453125 C 68.203125 22.648438 68 23.011719 68 23.402344 L 68 29.390625 C 68 29.777344 68.203125 30.144531 68.542969 30.335938 L 69.90625 31.117188 C 70.566406 31.445312 70.8125 31.4375 71.113281 31.4375 C 72.09375 31.4375 72.65625 30.847656 72.65625 29.816406 L 72.65625 23.910156 C 72.65625 23.828125 72.582031 23.765625 72.5 23.765625 L 71.84375 23.765625 C 71.761719 23.765625 71.691406 23.828125 71.691406 23.910156 L 71.691406 29.820312 C 71.691406 30.277344 71.214844 30.734375 70.4375 30.347656 L 69.019531 29.523438 C 68.96875 29.496094 68.933594 29.445312 68.933594 29.390625 L 68.933594 23.402344 C 68.933594 23.347656 68.96875 23.289062 69.019531 23.261719 L 74.230469 20.273438 C 74.28125 20.242188 74.335938 20.242188 74.386719 20.273438 L 79.597656 23.261719 C 79.644531 23.289062 79.683594 23.34375 79.683594 23.402344 L 79.683594 29.390625 C 79.683594 29.449219 79.65625 29.507812 79.605469 29.535156 L 74.386719 32.523438 C 74.339844 32.546875 74.277344 32.546875 74.230469 32.523438 L 72.890625 31.726562 C 72.847656 31.703125 72.796875 31.707031 72.757812 31.726562 C 72.386719 31.9375 72.316406 31.960938 71.96875 32.082031 C 71.882812 32.109375 71.753906 32.15625 72.015625 32.300781 L 73.765625 33.328125 C 73.933594 33.425781 74.117188 33.472656 74.308594 33.472656 C 74.503906 33.472656 74.683594 33.425781 74.851562 33.328125 L 80.074219 30.339844 C 80.410156 30.144531 80.617188 29.78125 80.617188 29.390625 L 80.617188 23.40625 C 80.617188 23.015625 80.410156 22.652344 80.074219 22.457031 L 74.851562 19.457031 C 74.6875 19.363281 74.5 19.324219 74.308594 19.324219 Z M 75.703125 23.601562 C 74.214844 23.601562 73.332031 24.230469 73.332031 25.277344 C 73.332031 26.410156 74.210938 26.722656 75.636719 26.863281 C 77.34375 27.03125 77.476562 27.28125 77.476562 27.613281 C 77.476562 28.195312 77.011719 28.441406 75.914062 28.441406 C 74.535156 28.441406 74.230469 28.097656 74.128906 27.414062 C 74.117188 27.339844 74.0625 27.28125 73.984375 27.28125 L 73.308594 27.28125 C 73.207031 27.285156 73.15625 27.335938 73.152344 27.4375 C 73.152344 28.308594 73.628906 29.34375 75.914062 29.34375 C 77.566406 29.34375 78.519531 28.699219 78.519531 27.570312 C 78.519531 26.449219 77.746094 26.148438 76.144531 25.9375 C 74.527344 25.722656 74.371094 25.621094 74.371094 25.242188 C 74.371094 24.929688 74.503906 24.515625 75.703125 24.515625 C 76.773438 24.515625 77.167969 24.742188 77.332031 25.460938 C 77.347656 25.53125 77.40625 25.585938 77.476562 25.585938 L 78.152344 25.585938 C 78.195312 25.585938 78.234375 25.558594 78.265625 25.53125 C 78.292969 25.496094 78.3125 25.460938 78.308594 25.417969 C 78.203125 24.183594 77.375 23.601562 75.703125 23.601562 Z M 75.703125 23.601562 " fill-opacity="1" fill-rule="nonzero"/></g><g clip-path="url(#a0ad1f4569)"><path fill="#404137" d="M 43.609375 11.472656 C 43.550781 11.472656 43.496094 11.488281 43.445312 11.519531 C 43.335938 11.582031 43.277344 11.679688 43.277344 11.804688 L 43.277344 20.238281 C 43.277344 20.324219 43.238281 20.398438 43.167969 20.4375 C 43.089844 20.484375 43.011719 20.484375 42.933594 20.4375 L 41.550781 19.644531 C 41.328125 19.515625 41.105469 19.515625 40.882812 19.644531 L 35.351562 22.820312 C 35.144531 22.9375 35.019531 23.167969 35.019531 23.402344 L 35.019531 29.753906 C 35.019531 30.007812 35.128906 30.199219 35.351562 30.328125 L 40.882812 33.503906 C 41.105469 33.632812 41.328125 33.632812 41.550781 33.503906 L 47.082031 30.328125 C 47.304688 30.199219 47.414062 30.007812 47.414062 29.753906 L 47.414062 13.921875 C 47.414062 13.679688 47.28125 13.453125 47.070312 13.335938 L 43.777344 11.507812 C 43.726562 11.476562 43.667969 11.472656 43.609375 11.472656 Z M 8.027344 19.402344 C 7.921875 19.40625 7.820312 19.425781 7.726562 19.480469 L 2.195312 22.652344 C 1.972656 22.78125 1.863281 22.972656 1.863281 23.226562 L 1.875 31.75 C 1.875 31.867188 1.9375 31.980469 2.039062 32.035156 C 2.144531 32.097656 2.269531 32.097656 2.375 32.035156 L 5.65625 30.164062 C 5.863281 30.039062 6 29.824219 6 29.589844 L 6 25.609375 C 6 25.371094 6.125 25.152344 6.332031 25.035156 L 7.726562 24.230469 C 7.832031 24.171875 7.941406 24.140625 8.058594 24.140625 C 8.179688 24.140625 8.289062 24.171875 8.394531 24.230469 L 9.789062 25.035156 C 9.996094 25.152344 10.121094 25.371094 10.121094 25.609375 L 10.121094 29.589844 C 10.121094 29.824219 10.261719 30.039062 10.464844 30.160156 L 13.746094 32.035156 C 13.851562 32.097656 13.976562 32.097656 14.078125 32.035156 C 14.179688 31.976562 14.246094 31.867188 14.246094 31.75 L 14.257812 23.226562 C 14.257812 22.972656 14.148438 22.78125 13.925781 22.652344 L 8.394531 19.480469 C 8.300781 19.425781 8.199219 19.40625 8.09375 19.402344 Z M 57.734375 19.480469 C 57.613281 19.476562 57.503906 19.507812 57.402344 19.566406 L 51.867188 22.742188 C 51.664062 22.859375 51.535156 23.078125 51.535156 23.316406 L 51.535156 29.667969 C 51.535156 29.90625 51.671875 30.121094 51.878906 30.238281 L 57.367188 33.351562 C 57.570312 33.464844 57.816406 33.472656 58.019531 33.359375 L 61.347656 31.519531 C 61.453125 31.460938 61.523438 31.351562 61.523438 31.234375 C 61.523438 31.113281 61.460938 31.007812 61.355469 30.945312 L 55.792969 27.769531 C 55.6875 27.710938 55.613281 27.59375 55.613281 27.472656 L 55.613281 25.488281 C 55.613281 25.367188 55.6875 25.261719 55.792969 25.199219 L 57.523438 24.207031 C 57.625 24.148438 57.75 24.148438 57.855469 24.207031 L 59.585938 25.199219 C 59.699219 25.265625 59.753906 25.359375 59.753906 25.488281 L 59.753906 27.054688 C 59.753906 27.179688 59.808594 27.277344 59.921875 27.339844 C 60.023438 27.398438 60.148438 27.398438 60.253906 27.339844 L 63.566406 25.421875 C 63.773438 25.300781 63.898438 25.085938 63.898438 24.847656 L 63.898438 23.316406 C 63.898438 23.0625 63.789062 22.871094 63.566406 22.742188 L 58.070312 19.566406 C 57.964844 19.507812 57.855469 19.476562 57.734375 19.476562 Z M 41.195312 24.21875 C 41.226562 24.21875 41.253906 24.226562 41.28125 24.242188 L 43.179688 25.332031 C 43.230469 25.363281 43.265625 25.417969 43.265625 25.476562 L 43.265625 27.660156 C 43.265625 27.71875 43.230469 27.773438 43.179688 27.804688 L 41.28125 28.894531 C 41.230469 28.921875 41.167969 28.921875 41.117188 28.894531 L 39.21875 27.804688 C 39.167969 27.773438 39.132812 27.71875 39.132812 27.660156 L 39.132812 25.476562 C 39.132812 25.417969 39.167969 25.363281 39.21875 25.335938 L 41.117188 24.242188 C 41.140625 24.226562 41.164062 24.222656 41.195312 24.222656 Z M 41.195312 24.21875 " fill-opacity="1" fill-rule="nonzero"/></g><g clip-path="url(#05590fef64)"><path fill="#83cd29" d="M 24.644531 19.445312 C 24.523438 19.445312 24.414062 19.476562 24.308594 19.535156 L 18.777344 22.699219 C 18.570312 22.816406 18.445312 23.046875 18.445312 23.28125 L 18.445312 29.632812 C 18.445312 29.886719 18.554688 30.078125 18.777344 30.207031 L 24.308594 33.382812 C 24.53125 33.507812 24.753906 33.507812 24.976562 33.382812 L 30.507812 30.207031 C 30.730469 30.078125 30.839844 29.886719 30.839844 29.632812 L 30.839844 23.28125 C 30.839844 23.046875 30.714844 22.816406 30.507812 22.699219 L 24.976562 19.535156 C 24.871094 19.476562 24.761719 19.445312 24.644531 19.445312 Z M 57.722656 25.113281 C 57.699219 25.113281 57.675781 25.113281 57.65625 25.125 L 56.589844 25.742188 C 56.546875 25.765625 56.527344 25.800781 56.523438 25.851562 L 56.523438 27.0625 C 56.523438 27.109375 56.550781 27.152344 56.589844 27.175781 L 57.65625 27.78125 C 57.695312 27.804688 57.738281 27.804688 57.777344 27.78125 L 58.839844 27.175781 C 58.882812 27.152344 58.910156 27.109375 58.910156 27.0625 L 58.910156 25.851562 C 58.910156 25.804688 58.882812 25.765625 58.839844 25.742188 L 57.777344 25.125 C 57.757812 25.113281 57.746094 25.113281 57.722656 25.113281 Z M 57.722656 25.113281 " fill-opacity="1" fill-rule="nonzero"/></g></svg>