<svg xmlns="http://www.w3.org/2000/svg" xmlns:xlink="http://www.w3.org/1999/xlink" width="110" zoomAndPan="magnify" viewBox="0 0 82.5 44.999999" height="60" preserveAspectRatio="xMidYMid meet" version="1.0"><defs><clipPath id="1f552e9ad9"><path d="M 0 0.136719 L 82.003906 0.136719 L 82.003906 44.863281 L 0 44.863281 Z M 0 0.136719 " clip-rule="nonzero"/></clipPath><clipPath id="d28d2d8626"><path d="M 22.40625 1.8125 L 59.90625 1.8125 L 59.90625 43.8125 L 22.40625 43.8125 Z M 22.40625 1.8125 " clip-rule="nonzero"/></clipPath><clipPath id="5ab2d90e8c"><path d="M 22.40625 1.8125 L 59.90625 1.8125 L 59.90625 34 L 22.40625 34 Z M 22.40625 1.8125 " clip-rule="nonzero"/></clipPath><clipPath id="26c0a13394"><path d="M 40 12 L 59.90625 12 L 59.90625 34 L 40 34 Z M 40 12 " clip-rule="nonzero"/></clipPath></defs><g clip-path="url(#1f552e9ad9)"><path fill="#ffffff" d="M 0 0.136719 L 82.5 0.136719 L 82.5 52.636719 L 0 52.636719 Z M 0 0.136719 " fill-opacity="1" fill-rule="nonzero"/><path fill="#ffffff" d="M 0 0.136719 L 82.5 0.136719 L 82.5 45.136719 L 0 45.136719 Z M 0 0.136719 " fill-opacity="1" fill-rule="nonzero"/><path fill="#ffffff" d="M 0 0.136719 L 82.5 0.136719 L 82.5 45.136719 L 0 45.136719 Z M 0 0.136719 " fill-opacity="1" fill-rule="nonzero"/></g><g clip-path="url(#d28d2d8626)"><path fill="#00549d" d="M 40.078125 2.195312 C 40.746094 1.816406 41.566406 1.816406 42.230469 2.195312 C 45.523438 4.070312 55.4375 9.710938 58.730469 11.585938 C 59.398438 11.964844 59.808594 12.664062 59.808594 13.421875 C 59.808594 17.171875 59.808594 28.453125 59.808594 32.199219 C 59.808594 32.957031 59.398438 33.660156 58.730469 34.039062 C 55.4375 35.914062 45.527344 41.554688 42.230469 43.429688 C 41.5625 43.808594 40.742188 43.808594 40.078125 43.429688 C 36.785156 41.554688 26.871094 35.914062 23.578125 34.039062 C 22.910156 33.660156 22.5 32.960938 22.5 32.203125 C 22.5 28.453125 22.5 17.171875 22.5 13.421875 C 22.5 12.664062 22.910156 11.964844 23.578125 11.585938 C 26.871094 9.710938 36.785156 4.070312 40.078125 2.195312 Z M 40.078125 2.195312 " fill-opacity="1" fill-rule="evenodd"/></g><g clip-path="url(#5ab2d90e8c)"><path fill="#0086d4" d="M 22.800781 33.167969 C 22.539062 32.8125 22.5 32.476562 22.5 32.023438 C 22.5 28.296875 22.5 17.082031 22.5 13.351562 C 22.5 12.597656 22.910156 11.902344 23.574219 11.527344 C 26.859375 9.664062 36.734375 4.054688 40.019531 2.191406 C 40.683594 1.8125 41.582031 1.820312 42.246094 2.199219 C 45.53125 4.0625 55.375 9.621094 58.65625 11.484375 C 58.921875 11.636719 59.125 11.820312 59.304688 12.058594 Z M 22.800781 33.167969 " fill-opacity="1" fill-rule="evenodd"/></g><path fill="#ffffff" d="M 41.15625 8.878906 C 48.742188 8.878906 54.898438 15.121094 54.898438 22.8125 C 54.898438 30.503906 48.742188 36.746094 41.15625 36.746094 C 33.570312 36.746094 27.410156 30.503906 27.410156 22.8125 C 27.410156 15.121094 33.570312 8.878906 41.15625 8.878906 Z M 41.15625 15.84375 C 44.945312 15.84375 48.027344 18.964844 48.027344 22.8125 C 48.027344 26.65625 44.945312 29.777344 41.15625 29.777344 C 37.363281 29.777344 34.28125 26.65625 34.28125 22.8125 C 34.28125 18.964844 37.359375 15.84375 41.15625 15.84375 Z M 41.15625 15.84375 " fill-opacity="1" fill-rule="evenodd"/><g clip-path="url(#26c0a13394)"><path fill="#0075c0" d="M 59.300781 12.066406 C 59.808594 12.550781 59.800781 13.273438 59.800781 13.84375 C 59.800781 17.621094 59.769531 28.363281 59.808594 32.140625 C 59.8125 32.535156 59.683594 32.949219 59.492188 33.261719 L 40.753906 22.8125 Z M 59.300781 12.066406 " fill-opacity="1" fill-rule="evenodd"/></g><path fill="#ffffff" d="M 48.027344 19.828125 L 49.992188 19.828125 L 49.992188 25.796875 L 48.027344 25.796875 Z M 54.898438 19.828125 L 56.863281 19.828125 L 56.863281 25.796875 L 54.898438 25.796875 Z M 54.898438 19.828125 " fill-opacity="1" fill-rule="evenodd"/><path fill="#ffffff" d="M 46.0625 21.816406 L 51.953125 21.816406 L 51.953125 23.808594 L 46.0625 23.808594 Z M 52.9375 21.816406 L 58.824219 21.816406 L 58.824219 23.808594 L 52.9375 23.808594 Z M 52.9375 21.816406 " fill-opacity="1" fill-rule="evenodd"/></svg>