<svg xmlns="http://www.w3.org/2000/svg" xmlns:xlink="http://www.w3.org/1999/xlink" width="110" zoomAndPan="magnify" viewBox="0 0 82.5 44.999999" height="60" preserveAspectRatio="xMidYMid meet" version="1.0"><defs><clipPath id="08c85da709"><path d="M 0 0.136719 L 82.003906 0.136719 L 82.003906 44.863281 L 0 44.863281 Z M 0 0.136719 " clip-rule="nonzero"/></clipPath><clipPath id="a795c60fbd"><path d="M 5.519531 27 L 35 27 L 35 41.359375 L 5.519531 41.359375 Z M 5.519531 27 " clip-rule="nonzero"/></clipPath><clipPath id="c59721a3b4"><path d="M 49 4 L 76.769531 4 L 76.769531 31 L 49 31 Z M 49 4 " clip-rule="nonzero"/></clipPath><clipPath id="63afcf806e"><path d="M 73 34 L 76.769531 34 L 76.769531 39 L 73 39 Z M 73 34 " clip-rule="nonzero"/></clipPath></defs><g clip-path="url(#08c85da709)"><path fill="#ffffff" d="M 0 0.136719 L 82.5 0.136719 L 82.5 52.636719 L 0 52.636719 Z M 0 0.136719 " fill-opacity="1" fill-rule="nonzero"/><path fill="#ffffff" d="M 0 0.136719 L 82.5 0.136719 L 82.5 45.136719 L 0 45.136719 Z M 0 0.136719 " fill-opacity="1" fill-rule="nonzero"/><path fill="#ffffff" d="M 0 0.136719 L 82.5 0.136719 L 82.5 45.136719 L 0 45.136719 Z M 0 0.136719 " fill-opacity="1" fill-rule="nonzero"/></g><g clip-path="url(#a795c60fbd)"><path fill="#00618a" d="M 5.773438 38.121094 L 8.105469 38.121094 L 8.105469 28.90625 L 11.714844 36.941406 C 12.140625 37.910156 12.722656 38.257812 13.863281 38.257812 C 15.007812 38.257812 15.566406 37.914062 15.992188 36.941406 L 19.601562 28.90625 L 19.601562 38.125 L 21.933594 38.125 L 21.933594 28.921875 C 21.933594 28.023438 21.574219 27.589844 20.835938 27.367188 C 19.0625 26.8125 17.875 27.292969 17.339844 28.488281 L 13.796875 36.417969 L 10.371094 28.484375 C 9.855469 27.289062 8.644531 26.808594 6.875 27.363281 C 6.132812 27.585938 5.773438 28.023438 5.773438 28.917969 Z M 23.871094 30.617188 L 26.199219 30.617188 L 26.199219 35.699219 C 26.179688 35.972656 26.289062 36.621094 27.566406 36.640625 C 28.214844 36.652344 32.589844 36.640625 32.632812 36.640625 L 32.632812 30.59375 L 34.96875 30.59375 C 34.976562 30.59375 34.964844 38.839844 34.964844 38.875 C 34.976562 40.90625 32.445312 41.347656 31.277344 41.382812 L 23.921875 41.382812 L 23.921875 39.8125 L 31.292969 39.8125 C 32.792969 39.652344 32.613281 38.90625 32.613281 38.65625 L 32.613281 38.042969 L 27.660156 38.042969 C 25.359375 38.023438 23.890625 37.015625 23.871094 35.855469 C 23.871094 35.753906 23.921875 30.667969 23.871094 30.617188 Z M 23.871094 30.617188 " fill-opacity="1" fill-rule="nonzero"/></g><path fill="#e48e00" d="M 36.765625 38.121094 L 43.464844 38.121094 C 44.25 38.121094 45.011719 37.957031 45.617188 37.671875 C 46.625 37.207031 47.117188 36.578125 47.117188 35.757812 L 47.117188 34.050781 C 47.117188 33.378906 46.558594 32.75 45.460938 32.332031 C 44.875 32.105469 44.160156 31.988281 43.464844 31.988281 L 40.640625 31.988281 C 39.699219 31.988281 39.253906 31.703125 39.140625 31.074219 C 39.117188 31 39.117188 30.933594 39.117188 30.863281 L 39.117188 29.800781 C 39.117188 29.742188 39.117188 29.683594 39.140625 29.605469 C 39.253906 29.128906 39.5 28.992188 40.328125 28.914062 C 40.394531 28.914062 40.484375 28.898438 40.550781 28.898438 L 47.207031 28.898438 L 47.207031 27.34375 L 40.664062 27.34375 C 39.722656 27.34375 39.230469 27.40625 38.78125 27.539062 C 37.390625 27.972656 36.785156 28.664062 36.785156 29.863281 L 36.785156 31.222656 C 36.785156 32.269531 37.972656 33.167969 39.96875 33.378906 C 40.191406 33.394531 40.414062 33.40625 40.640625 33.40625 L 43.058594 33.40625 C 43.148438 33.40625 43.238281 33.40625 43.304688 33.421875 C 44.046875 33.484375 44.359375 33.617188 44.582031 33.886719 C 44.722656 34.023438 44.761719 34.15625 44.761719 34.300781 L 44.761719 35.664062 C 44.761719 35.828125 44.652344 36.039062 44.425781 36.21875 C 44.226562 36.398438 43.890625 36.515625 43.441406 36.546875 C 43.351562 36.546875 43.285156 36.5625 43.195312 36.5625 L 36.761719 36.5625 L 36.761719 38.117188 Z M 61.65625 35.414062 C 61.65625 37.015625 62.84375 37.910156 65.242188 38.089844 C 65.464844 38.109375 65.6875 38.117188 65.914062 38.121094 L 71.984375 38.121094 L 71.984375 36.566406 L 65.867188 36.566406 C 64.5 36.566406 63.984375 36.222656 63.984375 35.398438 L 63.984375 27.347656 L 61.65625 27.347656 Z M 48.605469 35.492188 L 48.605469 29.945312 C 48.605469 28.539062 49.59375 27.683594 51.546875 27.414062 C 51.753906 27.382812 51.964844 27.367188 52.175781 27.367188 L 56.597656 27.367188 C 56.816406 27.367188 57.035156 27.382812 57.25 27.414062 C 59.203125 27.683594 60.191406 28.535156 60.191406 29.945312 L 60.191406 35.492188 C 60.191406 36.636719 59.769531 37.25 58.804688 37.648438 L 61.101562 39.722656 L 58.394531 39.722656 L 56.535156 38.042969 L 54.667969 38.164062 L 52.175781 38.164062 C 51.746094 38.164062 51.300781 38.101562 50.804688 37.96875 C 49.320312 37.5625 48.605469 36.785156 48.605469 35.492188 Z M 51.121094 35.355469 C 51.121094 35.429688 51.140625 35.503906 51.164062 35.59375 C 51.304688 36.242188 51.90625 36.601562 52.824219 36.601562 L 54.941406 36.601562 L 52.996094 34.839844 L 55.699219 34.839844 L 57.394531 36.375 C 57.707031 36.207031 57.910156 35.953125 57.980469 35.625 C 58.003906 35.550781 58.003906 35.476562 58.003906 35.402344 L 58.003906 30.082031 C 58.003906 30.023438 58.003906 29.945312 57.980469 29.871094 C 57.84375 29.273438 57.238281 28.925781 56.339844 28.925781 L 52.828125 28.925781 C 51.792969 28.925781 51.121094 29.378906 51.121094 30.082031 L 51.121094 35.359375 Z M 51.121094 35.355469 " fill-opacity="1" fill-rule="nonzero"/><g clip-path="url(#c59721a3b4)"><path fill="#00618a" d="M 74.035156 24.765625 C 72.601562 24.726562 71.507812 24.859375 70.574219 25.253906 C 70.304688 25.367188 69.882812 25.371094 69.839844 25.703125 C 69.984375 25.859375 70.007812 26.085938 70.125 26.277344 C 70.347656 26.636719 70.726562 27.125 71.0625 27.378906 C 71.429688 27.65625 71.808594 27.953125 72.203125 28.195312 C 72.902344 28.621094 73.6875 28.867188 74.359375 29.296875 C 74.757812 29.546875 75.152344 29.867188 75.542969 30.152344 C 75.734375 30.292969 75.863281 30.511719 76.113281 30.601562 L 76.113281 30.558594 C 75.980469 30.390625 75.945312 30.164062 75.828125 29.988281 L 75.296875 29.457031 C 74.78125 28.765625 74.121094 28.164062 73.421875 27.664062 C 72.867188 27.261719 71.621094 26.722656 71.386719 26.070312 L 71.347656 26.03125 C 71.742188 25.984375 72.203125 25.84375 72.570312 25.746094 C 73.179688 25.582031 73.730469 25.625 74.363281 25.460938 L 75.21875 25.214844 L 75.21875 25.050781 C 74.898438 24.722656 74.667969 24.289062 74.320312 23.992188 C 73.410156 23.210938 72.414062 22.4375 71.386719 21.789062 C 70.820312 21.425781 70.117188 21.195312 69.515625 20.890625 C 69.3125 20.789062 68.957031 20.734375 68.820312 20.5625 C 68.503906 20.160156 68.332031 19.644531 68.089844 19.179688 C 67.578125 18.195312 67.074219 17.117188 66.621094 16.078125 C 66.3125 15.371094 66.109375 14.671875 65.726562 14.039062 C 63.875 10.992188 61.886719 9.15625 58.800781 7.347656 C 58.144531 6.964844 57.355469 6.8125 56.519531 6.613281 L 55.175781 6.53125 C 54.902344 6.417969 54.617188 6.082031 54.359375 5.917969 C 53.339844 5.273438 50.71875 3.867188 49.960938 5.710938 C 49.484375 6.878906 50.675781 8.015625 51.101562 8.609375 C 51.402344 9.023438 51.785156 9.488281 51.996094 9.957031 C 52.136719 10.261719 52.164062 10.570312 52.285156 10.894531 C 52.578125 11.691406 52.835938 12.5625 53.21875 13.300781 C 53.414062 13.675781 53.628906 14.070312 53.871094 14.402344 C 54.023438 14.609375 54.28125 14.699219 54.320312 15.015625 C 54.070312 15.367188 54.054688 15.914062 53.914062 16.359375 C 53.277344 18.371094 53.515625 20.871094 54.441406 22.359375 C 54.726562 22.816406 55.394531 23.796875 56.316406 23.417969 C 57.121094 23.089844 56.9375 22.074219 57.171875 21.175781 C 57.222656 20.972656 57.191406 20.824219 57.292969 20.6875 L 57.292969 20.726562 L 58.027344 22.195312 C 58.570312 23.070312 59.53125 23.984375 60.347656 24.601562 C 60.773438 24.921875 61.109375 25.476562 61.652344 25.664062 L 61.652344 25.625 L 61.613281 25.625 C 61.503906 25.457031 61.339844 25.390625 61.203125 25.257812 C 60.886719 24.945312 60.53125 24.554688 60.265625 24.195312 C 59.523438 23.1875 58.867188 22.082031 58.269531 20.933594 C 57.984375 20.382812 57.738281 19.777344 57.496094 19.21875 C 57.40625 19.003906 57.40625 18.675781 57.210938 18.566406 C 56.949219 18.976562 56.558594 19.304688 56.355469 19.789062 C 56.03125 20.5625 55.988281 21.503906 55.867188 22.480469 C 55.796875 22.507812 55.828125 22.492188 55.785156 22.523438 C 55.21875 22.386719 55.019531 21.800781 54.808594 21.300781 C 54.277344 20.03125 54.175781 17.988281 54.644531 16.527344 C 54.765625 16.148438 55.316406 14.957031 55.09375 14.609375 C 54.988281 14.261719 54.636719 14.054688 54.441406 13.792969 C 54.199219 13.464844 53.957031 13.03125 53.789062 12.648438 C 53.355469 11.660156 53.148438 10.550781 52.691406 9.550781 C 52.472656 9.070312 52.101562 8.585938 51.792969 8.164062 C 51.457031 7.695312 51.078125 7.347656 50.816406 6.78125 C 50.722656 6.578125 50.597656 6.253906 50.734375 6.046875 C 50.765625 5.914062 50.847656 5.832031 50.980469 5.800781 C 51.214844 5.621094 51.875 5.863281 52.121094 5.964844 C 52.773438 6.238281 53.320312 6.496094 53.871094 6.863281 C 54.136719 7.035156 54.40625 7.378906 54.726562 7.476562 L 55.09375 7.476562 C 55.667969 7.609375 56.308594 7.515625 56.84375 7.679688 C 57.792969 7.96875 58.640625 8.417969 59.410156 8.902344 C 61.757812 10.386719 63.679688 12.503906 64.992188 15.027344 C 65.203125 15.433594 65.292969 15.820312 65.480469 16.25 C 65.855469 17.117188 66.328125 18.011719 66.703125 18.863281 C 67.074219 19.707031 67.4375 20.5625 67.964844 21.269531 C 68.242188 21.636719 69.3125 21.835938 69.800781 22.042969 C 70.140625 22.1875 70.699219 22.339844 71.019531 22.53125 C 71.636719 22.90625 72.234375 23.347656 72.8125 23.757812 C 73.101562 23.960938 73.992188 24.410156 74.035156 24.777344 Z M 74.035156 24.765625 " fill-opacity="1" fill-rule="nonzero"/></g><path fill="#00618a" d="M 55.828125 9.222656 C 55.53125 9.21875 55.320312 9.253906 55.09375 9.304688 L 55.09375 9.34375 L 55.136719 9.34375 C 55.277344 9.636719 55.53125 9.828125 55.707031 10.078125 L 56.113281 10.9375 L 56.152344 10.894531 C 56.40625 10.71875 56.523438 10.433594 56.519531 9.996094 C 56.417969 9.890625 56.402344 9.757812 56.316406 9.628906 C 56.199219 9.460938 55.972656 9.363281 55.828125 9.222656 Z M 55.828125 9.222656 " fill-opacity="1" fill-rule="evenodd"/><g clip-path="url(#63afcf806e)"><path fill="#e48e00" d="M 73.082031 36.519531 C 73.082031 37.546875 73.890625 38.242188 74.796875 38.242188 C 75.707031 38.242188 76.515625 37.546875 76.515625 36.519531 C 76.515625 35.492188 75.707031 34.800781 74.796875 34.800781 C 73.890625 34.800781 73.082031 35.492188 73.082031 36.519531 Z M 76.132812 36.519531 C 76.132812 37.300781 75.535156 37.882812 74.796875 37.882812 C 74.050781 37.882812 73.464844 37.300781 73.464844 36.519531 C 73.464844 35.742188 74.050781 35.160156 74.796875 35.160156 C 75.535156 35.160156 76.132812 35.742188 76.132812 36.519531 Z M 75.261719 37.503906 L 75.644531 37.503906 L 75.082031 36.640625 C 75.382812 36.609375 75.613281 36.460938 75.613281 36.101562 C 75.613281 35.703125 75.359375 35.539062 74.875 35.539062 L 74.109375 35.539062 L 74.109375 37.503906 L 74.441406 37.503906 L 74.441406 36.652344 L 74.746094 36.652344 Z M 74.441406 36.378906 L 74.441406 35.8125 L 74.820312 35.8125 C 75.019531 35.8125 75.257812 35.851562 75.257812 36.082031 C 75.257812 36.355469 75.039062 36.378906 74.792969 36.378906 Z M 74.441406 36.378906 " fill-opacity="1" fill-rule="evenodd"/></g></svg>