<svg xmlns="http://www.w3.org/2000/svg" xmlns:xlink="http://www.w3.org/1999/xlink" width="110" zoomAndPan="magnify" viewBox="0 0 82.5 44.999999" height="60" preserveAspectRatio="xMidYMid meet" version="1.0"><defs><clipPath id="670b19c778"><path d="M 0 0.136719 L 82.003906 0.136719 L 82.003906 44.863281 L 0 44.863281 Z M 0 0.136719 " clip-rule="nonzero"/></clipPath><clipPath id="c549296976"><path d="M 25.902344 9 L 56.652344 9 L 56.652344 44.492188 L 25.902344 44.492188 Z M 25.902344 9 " clip-rule="nonzero"/></clipPath><clipPath id="4de616bb99"><path d="M 33 0.992188 L 38 0.992188 L 38 7 L 33 7 Z M 33 0.992188 " clip-rule="nonzero"/></clipPath><clipPath id="39bc72e5ed"><path d="M 38 0.992188 L 44 0.992188 L 44 7 L 38 7 Z M 38 0.992188 " clip-rule="nonzero"/></clipPath><clipPath id="4355a2590c"><path d="M 44 0.992188 L 49 0.992188 L 49 7 L 44 7 Z M 44 0.992188 " clip-rule="nonzero"/></clipPath></defs><g clip-path="url(#670b19c778)"><path fill="#ffffff" d="M 0 0.136719 L 82.5 0.136719 L 82.5 52.636719 L 0 52.636719 Z M 0 0.136719 " fill-opacity="1" fill-rule="nonzero"/><path fill="#ffffff" d="M 0 0.136719 L 82.5 0.136719 L 82.5 45.136719 L 0 45.136719 Z M 0 0.136719 " fill-opacity="1" fill-rule="nonzero"/><path fill="#ffffff" d="M 0 0.136719 L 82.5 0.136719 L 82.5 45.136719 L 0 45.136719 Z M 0 0.136719 " fill-opacity="1" fill-rule="nonzero"/></g><g clip-path="url(#c549296976)"><path fill="#264de4" d="M 41.265625 44.492188 L 28.722656 41 L 25.925781 9.542969 L 56.644531 9.542969 L 53.847656 40.992188 Z M 41.265625 44.492188 " fill-opacity="1" fill-rule="nonzero"/></g><path fill="#2965f1" d="M 51.449219 38.992188 L 53.839844 12.113281 L 41.285156 12.113281 L 41.285156 41.816406 Z M 51.449219 38.992188 " fill-opacity="1" fill-rule="nonzero"/><path fill="#ebebeb" d="M 32.335938 23.78125 L 32.679688 27.640625 L 41.285156 27.640625 L 41.285156 23.78125 Z M 32.335938 23.78125 " fill-opacity="1" fill-rule="nonzero"/><path fill="#ebebeb" d="M 31.640625 15.972656 L 31.992188 19.832031 L 41.285156 19.832031 L 41.285156 15.972656 Z M 31.640625 15.972656 " fill-opacity="1" fill-rule="nonzero"/><path fill="#ebebeb" d="M 41.285156 33.800781 L 41.269531 33.804688 L 36.984375 32.644531 L 36.710938 29.566406 L 32.851562 29.566406 L 33.390625 35.625 L 41.265625 37.820312 L 41.285156 37.816406 Z M 41.285156 33.800781 " fill-opacity="1" fill-rule="nonzero"/><g clip-path="url(#4de616bb99)"><path fill="#000000" d="M 33.15625 0.992188 L 37.8125 0.992188 L 37.8125 2.949219 L 35.101562 2.949219 L 35.101562 4.902344 L 37.8125 4.902344 L 37.8125 6.855469 L 33.15625 6.855469 Z M 33.15625 0.992188 " fill-opacity="1" fill-rule="nonzero"/></g><g clip-path="url(#39bc72e5ed)"><path fill="#000000" d="M 38.746094 0.992188 L 43.402344 0.992188 L 43.402344 2.691406 L 40.691406 2.691406 L 40.691406 3.03125 L 43.402344 3.03125 L 43.402344 6.941406 L 38.746094 6.941406 L 38.746094 5.15625 L 41.453125 5.15625 L 41.453125 4.816406 L 38.746094 4.816406 Z M 38.746094 0.992188 " fill-opacity="1" fill-rule="nonzero"/></g><g clip-path="url(#4355a2590c)"><path fill="#000000" d="M 44.335938 0.992188 L 48.992188 0.992188 L 48.992188 2.691406 L 46.28125 2.691406 L 46.28125 3.03125 L 48.992188 3.03125 L 48.992188 6.941406 L 44.335938 6.941406 L 44.335938 5.15625 L 47.042969 5.15625 L 47.042969 4.816406 L 44.335938 4.816406 Z M 44.335938 0.992188 " fill-opacity="1" fill-rule="nonzero"/></g><path fill="#ffffff" d="M 50.210938 23.78125 L 50.90625 15.972656 L 41.273438 15.972656 L 41.273438 19.832031 L 46.691406 19.832031 L 46.339844 23.78125 L 41.273438 23.78125 L 41.273438 27.640625 L 46.007812 27.640625 L 45.5625 32.640625 L 41.273438 33.804688 L 41.273438 37.816406 L 49.15625 35.625 L 49.214844 34.972656 L 50.117188 24.816406 Z M 50.210938 23.78125 " fill-opacity="1" fill-rule="nonzero"/></svg>